<svg width="20" height="20" viewBox="0 0 20 20" fill="none" xmlns="http://www.w3.org/2000/svg">
<mask id="mask0_2062_9627" style="mask-type:alpha" maskUnits="userSpaceOnUse" x="0" y="0" width="20" height="20">
<rect width="20" height="20" fill="#D9D9D9"/>
</mask>
<g mask="url(#mask0_2062_9627)">
<path d="M8.33203 18.3333V16.6667H19.1654V18.3333H8.33203ZM9.16536 15.8333C9.16536 14.7083 9.51953 13.7257 10.2279 12.8854C10.9362 12.0451 11.832 11.5278 12.9154 11.3333V10.8125C12.9154 10.5764 12.9952 10.3785 13.1549 10.2188C13.3147 10.059 13.5126 9.97917 13.7487 9.97917C13.9848 9.97917 14.1827 10.059 14.3424 10.2188C14.5022 10.3785 14.582 10.5764 14.582 10.8125V11.3333C15.6515 11.5278 16.5438 12.0451 17.2591 12.8854C17.9744 13.7257 18.332 14.7083 18.332 15.8333H9.16536ZM11.3529 14.1458H16.1029C15.839 13.7708 15.5022 13.4688 15.0924 13.2396C14.6827 13.0104 14.2348 12.8958 13.7487 12.8958C13.2487 12.8958 12.7904 13.0104 12.3737 13.2396C11.957 13.4688 11.6168 13.7708 11.3529 14.1458ZM0.832031 10.8333V1.66667H5.83203V2.875L11.6654 1.25L18.332 3.33333V4.16667C18.332 4.86111 18.089 5.45139 17.6029 5.9375C17.1168 6.42361 16.5265 6.66667 15.832 6.66667H14.1654V7.16667C14.1654 7.51389 14.0647 7.82986 13.8633 8.11458C13.6619 8.39931 13.4015 8.60417 13.082 8.72917L7.45703 10.8333H0.832031ZM2.4987 9.16667H4.16536V3.33333H2.4987V9.16667ZM5.83203 9.16667H7.16536L11.9987 7.39583C12.1515 7.34028 12.273 7.24653 12.3633 7.11458C12.4536 6.98264 12.4987 6.83333 12.4987 6.66667H11.0195L8.58203 7.45833L8.08203 5.875L10.6862 5H15.832C15.957 5 16.1133 4.95486 16.3008 4.86458C16.4883 4.77431 16.582 4.66667 16.582 4.54167L11.6237 3L5.83203 4.58333V9.16667Z" fill="#2A323B"/>
</g>
</svg>
