<svg width="20" height="20" viewBox="0 0 20 20" fill="none" xmlns="http://www.w3.org/2000/svg">
<mask id="mask0_2062_9633" style="mask-type:alpha" maskUnits="userSpaceOnUse" x="0" y="0" width="20" height="20">
<rect width="20" height="20" fill="#D9D9D9"/>
</mask>
<g mask="url(#mask0_2062_9633)">
<path d="M4.16797 15.8337H3.33464L2.79297 14.167H1.66797V9.97949C1.66797 9.52116 1.83116 9.13227 2.15755 8.81283C2.48394 8.49338 2.8763 8.33366 3.33464 8.33366V5.83366C3.33464 5.37533 3.49783 4.98296 3.82422 4.65658C4.15061 4.33019 4.54297 4.16699 5.0013 4.16699H15.0013C15.4596 4.16699 15.852 4.33019 16.1784 4.65658C16.5048 4.98296 16.668 5.37533 16.668 5.83366V8.33366C17.1263 8.33366 17.5187 8.49685 17.8451 8.82324C18.1714 9.14963 18.3346 9.54199 18.3346 10.0003V14.167H17.2096L16.668 15.8337H15.8346L15.293 14.167H4.70964L4.16797 15.8337ZM10.8346 8.33366H15.0013V5.83366H10.8346V8.33366ZM5.0013 8.33366H9.16797V5.83366H5.0013V8.33366ZM3.33464 12.5003H16.668V10.0003H3.33464V12.5003Z" fill="#2A323B"/>
</g>
</svg>
