<svg width="138" height="19" viewBox="0 0 138 19" fill="none" xmlns="http://www.w3.org/2000/svg">
<path d="M26.9565 15.9675L22.5283 4.68359H23.7381L27.4977 14.6718L31.2885 4.68359H32.4983L28.0753 15.9623L26.9565 15.9675Z" fill="white"/>
<path d="M34.8639 14.8065C34.0295 13.8823 33.5897 12.6684 33.6384 11.4242C33.6384 10.0557 34.0443 8.95516 34.8561 8.12259C35.2569 7.71041 35.7392 7.38626 36.2723 7.17079C36.8054 6.95533 37.3775 6.85327 37.9522 6.87114C38.7004 6.86053 39.4356 7.0685 40.0674 7.46955C40.6552 7.83608 41.1256 8.36337 41.4229 8.98898V7.04286H42.5677V15.9669H41.4229V14.0052C41.1238 14.6324 40.654 15.1626 40.0674 15.535C39.4333 15.9393 38.6936 16.1466 37.9418 16.1308C37.3638 16.1436 36.7898 16.032 36.2588 15.8035C35.7277 15.575 35.252 15.235 34.8639 14.8065ZM40.4629 14.1457C40.7916 13.7918 41.0468 13.3761 41.2134 12.9228C41.38 12.4694 41.4547 11.9874 41.4333 11.5049C41.4544 11.0228 41.3794 10.5413 41.2128 10.0884C41.0462 9.63551 40.7913 9.22023 40.4629 8.8667C40.1643 8.54489 39.8018 8.28907 39.3985 8.11567C38.9953 7.94227 38.5602 7.85512 38.1213 7.85981C37.6857 7.85183 37.2531 7.93339 36.8503 8.09942C36.4475 8.26546 36.0831 8.51244 35.7797 8.82507C35.1344 9.46684 34.8127 10.3341 34.8144 11.4268C34.7735 12.4134 35.1231 13.3762 35.7875 14.1067C36.0805 14.4378 36.4412 14.702 36.8451 14.8816C37.2491 15.0611 37.687 15.1518 38.1291 15.1474C38.5646 15.1503 38.996 15.0629 39.3959 14.8904C39.7959 14.718 40.1556 14.4644 40.4525 14.1457H40.4629Z" fill="white"/>
<path d="M45.6405 14.8566C44.8444 14.005 44.4463 12.888 44.4463 11.5056C44.4463 10.1232 44.8444 9.00613 45.6405 8.15448C46.0377 7.73304 46.5203 7.40129 47.056 7.18143C47.5918 6.96157 48.1683 6.85867 48.747 6.87961C50.8388 6.87961 52.1683 7.81712 52.7355 9.69213H51.5153C51.3552 9.12705 51.0063 8.63393 50.5266 8.29498C49.9994 7.9493 49.3768 7.77818 48.747 7.80584C48.324 7.79136 47.9028 7.86955 47.5132 8.03494C47.1235 8.20033 46.7748 8.44892 46.4913 8.7633C45.9137 9.4016 45.6249 10.3166 45.6249 11.5082C45.6249 12.6998 45.9137 13.6182 46.4913 14.2634C46.7737 14.5795 47.1222 14.8295 47.512 14.9959C47.9018 15.1622 48.3234 15.2408 48.747 15.2261C49.3751 15.25 49.9948 15.0762 50.5188 14.7292C51.0033 14.3889 51.3553 13.8916 51.5153 13.3216H52.7433C52.4875 14.1312 51.991 14.8436 51.3202 15.364C50.4595 15.9415 49.4268 16.2061 48.3945 16.1138C47.3622 16.0214 46.3928 15.5777 45.6483 14.8566H45.6405Z" fill="white"/>
<path d="M55.4801 14.8065C54.6457 13.8823 54.2059 12.6684 54.2546 11.4242C54.2546 10.0557 54.6605 8.95512 55.4723 8.12256C55.8732 7.7105 56.3556 7.38644 56.8886 7.17098C57.4216 6.95552 57.9937 6.8534 58.5684 6.87111C59.3194 6.85613 60.0584 7.06145 60.694 7.46171C61.2831 7.82741 61.7546 8.35486 62.0521 8.98114V7.04282H63.1943V15.9669H62.0521V14.0052C61.7528 14.633 61.282 15.1634 60.694 15.535C60.0599 15.9392 59.3202 16.1465 58.5684 16.1308C57.9887 16.1451 57.4127 16.0342 56.8797 15.8056C56.3468 15.5771 55.8694 15.2363 55.4801 14.8065ZM61.0791 14.1457C61.4083 13.792 61.6639 13.3764 61.831 12.923C61.998 12.4697 62.0732 11.9876 62.0521 11.5049C62.0729 11.0226 61.9975 10.541 61.8304 10.0881C61.6634 9.63517 61.408 9.21999 61.0791 8.86666C60.7805 8.54486 60.418 8.28904 60.0147 8.11564C59.6115 7.94224 59.1764 7.85509 58.7375 7.85978C58.3019 7.8518 57.8693 7.93335 57.4665 8.09939C57.0637 8.26543 56.6993 8.51241 56.3959 8.82503C55.7541 9.4668 55.4324 10.3341 55.4306 11.4268C55.3909 12.4131 55.7403 13.3756 56.4037 14.1066C56.6969 14.4374 57.0576 14.7015 57.4616 14.8811C57.8655 15.0606 58.3033 15.1514 58.7453 15.1473C59.1825 15.1518 59.6159 15.065 60.0178 14.8925C60.4196 14.72 60.7811 14.4657 61.0791 14.1457Z" fill="white"/>
<path d="M69.6179 7.94307H67.1515V13.8595C67.1167 14.1942 67.2096 14.5296 67.4116 14.7987C67.676 15.0042 68.0105 15.0976 68.3431 15.0589H69.6179V15.9565H68.0985C66.7109 15.9565 66.0171 15.254 66.0171 13.8491V7.94307H64.7734V7.04286H66.0171V4.80273H67.1619V7.04286H69.6283L69.6179 7.94307Z" fill="white"/>
<path d="M72.6103 4.51902C72.6127 4.62913 72.5931 4.7386 72.5524 4.84095C72.5117 4.9433 72.4509 5.03643 72.3735 5.11482C72.2982 5.19463 72.2069 5.25766 72.1056 5.2998C72.0043 5.34194 71.8952 5.36225 71.7855 5.35939C71.6744 5.36179 71.5639 5.34132 71.4609 5.29925C71.358 5.25718 71.2648 5.1944 71.1871 5.11482C71.0303 4.95565 70.9424 4.74117 70.9424 4.51772C70.9424 4.29427 71.0303 4.07979 71.1871 3.92061C71.2648 3.84103 71.358 3.77826 71.4609 3.73619C71.5639 3.69412 71.6744 3.67365 71.7855 3.67605C71.8952 3.67319 72.0043 3.69349 72.1056 3.73563C72.2069 3.77777 72.2982 3.8408 72.3735 3.92061C72.451 3.99948 72.5118 4.09307 72.5525 4.19585C72.5931 4.29863 72.6128 4.40852 72.6103 4.51902ZM71.1871 15.9668V7.04274H72.3293V15.9668H71.1871Z" fill="white"/>
<path d="M78.5341 16.1307C77.953 16.1522 77.374 16.0496 76.8356 15.8298C76.2973 15.6099 75.8119 15.2779 75.412 14.8558C74.6106 14.0041 74.21 12.8897 74.21 11.5125C74.21 10.1362 74.6367 9.01741 75.4874 8.16403C76.3436 7.33953 77.486 6.87891 78.6746 6.87891C79.8632 6.87891 81.0056 7.33953 81.8618 8.16403C82.7099 9.01741 83.1366 10.131 83.1366 11.4969C83.1579 12.1151 83.0496 12.731 82.8189 13.3049C82.5881 13.8789 82.24 14.3983 81.7967 14.8298C81.3669 15.2529 80.8569 15.5859 80.2966 15.8093C79.7364 16.0327 79.1371 16.142 78.5341 16.1307ZM78.5341 15.2148C78.9814 15.2198 79.425 15.1341 79.8382 14.9628C80.2514 14.7915 80.6256 14.5383 80.9381 14.2184C81.6111 13.5558 81.9485 12.6486 81.9502 11.4969C81.952 10.3452 81.6302 9.44063 80.985 8.78325C80.6843 8.46538 80.321 8.21338 79.9179 8.0432C79.5149 7.87302 79.0808 7.78836 78.6434 7.79458C78.2092 7.78461 77.7778 7.86689 77.3777 8.03597C76.9777 8.20505 76.618 8.4571 76.3226 8.77545C75.7016 9.42936 75.3912 10.3391 75.3912 11.5047C75.3912 12.6703 75.6852 13.58 76.2732 14.234C76.5544 14.552 76.9018 14.8046 77.2911 14.974C77.6803 15.1435 78.1019 15.2257 78.5263 15.2148H78.5341Z" fill="white"/>
<path d="M86.1604 7.04214V8.49653C86.7588 7.4194 87.7449 6.87997 89.1186 6.87823C89.5768 6.8657 90.0329 6.94538 90.4597 7.11254C90.8866 7.2797 91.2755 7.53092 91.6033 7.85129C92.2659 8.5 92.598 9.4349 92.5998 10.656V15.9662H91.4732V10.8667C91.4732 9.88588 91.2339 9.14177 90.7603 8.62922C90.2336 8.13458 89.5381 7.85925 88.8155 7.85925C88.0929 7.85925 87.3975 8.13458 86.8707 8.62922C86.3972 9.14958 86.1604 9.88588 86.1604 10.8667V15.9662H85.0156V7.04214H86.1604Z" fill="white"/>
<path d="M98.1404 15.9674L93.9775 4.55859H96.4128L99.5349 13.6648L102.657 4.55859H105.111L100.919 15.9674H98.1404Z" fill="white"/>
<path d="M106.558 15.9674V4.55859H108.863V15.9674H106.558Z" fill="white"/>
<path d="M118.768 10.2487C118.423 10.6427 117.981 10.9381 117.485 11.1046C116.854 11.3295 116.188 11.4379 115.518 11.4247H113.619V15.9674H111.313V4.55859H115.518C116.838 4.55859 117.854 4.88815 118.567 5.54727C118.904 5.83725 119.174 6.19669 119.358 6.6009C119.543 7.00511 119.638 7.4445 119.637 7.88886C119.642 8.7547 119.333 9.59315 118.768 10.2487ZM113.619 9.65806H115.518C115.757 9.67436 115.997 9.64322 116.225 9.56642C116.452 9.48963 116.662 9.36869 116.842 9.21056C116.998 9.0496 117.118 8.85852 117.197 8.64912C117.276 8.43971 117.311 8.2164 117.3 7.99293C117.312 7.76758 117.277 7.54222 117.198 7.33093C117.119 7.11964 116.997 6.92695 116.84 6.76489C116.475 6.44899 115.999 6.29084 115.518 6.3252H113.619V9.65806Z" fill="white"/>
<path d="M118.932 15.8457C118.894 15.8852 118.848 15.9165 118.797 15.9375C118.747 15.9586 118.692 15.9689 118.638 15.968C118.583 15.9693 118.528 15.959 118.478 15.938C118.427 15.9169 118.381 15.8855 118.344 15.8457C118.304 15.8078 118.272 15.7622 118.251 15.7116C118.229 15.661 118.218 15.6066 118.219 15.5517C118.221 15.4408 118.266 15.335 118.345 15.2568C118.423 15.1786 118.529 15.1342 118.64 15.1328C118.695 15.1324 118.75 15.1432 118.8 15.1647C118.851 15.1862 118.896 15.2178 118.934 15.2577C118.974 15.2953 119.006 15.3409 119.028 15.3915C119.049 15.4422 119.06 15.4967 119.059 15.5517C119.059 15.6068 119.048 15.6614 119.026 15.7119C119.004 15.7625 118.972 15.808 118.932 15.8457Z" fill="white"/>
<path d="M120.531 15.387C120.102 14.9087 119.877 14.2807 119.907 13.6386C119.877 12.9964 120.102 12.3684 120.531 11.8902C120.738 11.6698 120.99 11.4963 121.27 11.3814C121.549 11.2665 121.85 11.2129 122.152 11.2241C123.245 11.2241 123.939 11.7133 124.234 12.6915H123.583C123.499 12.3961 123.315 12.1389 123.063 11.963C122.789 11.7809 122.465 11.6899 122.137 11.7028C121.92 11.6986 121.705 11.7407 121.505 11.8264C121.306 11.9121 121.127 12.0394 120.981 12.1998C120.657 12.6041 120.496 13.1159 120.531 13.6334C120.496 14.1523 120.657 14.6656 120.981 15.0721C121.129 15.2375 121.311 15.3684 121.515 15.4557C121.718 15.5429 121.939 15.5843 122.16 15.5769C122.488 15.5898 122.813 15.4988 123.086 15.3167C123.338 15.1409 123.522 14.8836 123.607 14.5882H124.247C124.113 15.0107 123.855 15.3827 123.505 15.6549C123.056 15.9571 122.518 16.0962 121.979 16.0488C121.44 16.0015 120.933 15.7706 120.544 15.3948L120.531 15.387Z" fill="white"/>
<path d="M127.286 16.0536C126.984 16.0634 126.684 16.0091 126.405 15.8943C126.125 15.7795 125.873 15.6068 125.665 15.3876C125.236 14.9114 125.011 14.2852 125.038 13.6444C125.025 13.3226 125.077 13.0014 125.191 12.7004C125.306 12.3994 125.48 12.1248 125.705 11.8934C126.152 11.4642 126.748 11.2246 127.368 11.2246C127.988 11.2246 128.585 11.4642 129.032 11.8934C129.255 12.1232 129.43 12.396 129.544 12.6952C129.659 12.9945 129.711 13.3139 129.698 13.634C129.71 13.9577 129.654 14.2804 129.533 14.5811C129.413 14.8818 129.231 15.1538 128.998 15.3798C128.773 15.6011 128.505 15.7749 128.211 15.8906C127.917 16.0064 127.602 16.0618 127.286 16.0536ZM127.286 15.5775C127.52 15.5801 127.751 15.5353 127.967 15.4459C128.182 15.3565 128.377 15.2242 128.54 15.0572C128.72 14.8688 128.859 14.6455 128.949 14.4011C129.038 14.1567 129.076 13.8964 129.061 13.6366C129.075 13.3806 129.038 13.1244 128.952 12.8828C128.866 12.6413 128.733 12.419 128.561 12.229C128.404 12.0618 128.213 11.9292 128.002 11.8397C127.791 11.7501 127.563 11.7055 127.333 11.7087C127.106 11.7046 126.88 11.7488 126.671 11.8385C126.462 11.9283 126.274 12.0614 126.121 12.229C125.778 12.622 125.603 13.1341 125.634 13.6548C125.603 14.1711 125.767 14.6802 126.095 15.0806C126.244 15.2449 126.428 15.3744 126.633 15.4603C126.838 15.5461 127.059 15.5861 127.281 15.5775H127.286Z" fill="white"/>
<path d="M131.264 11.3105V12.0702C131.413 11.7962 131.639 11.5708 131.913 11.4209C132.186 11.271 132.498 11.2029 132.809 11.2247C133.158 11.2179 133.502 11.308 133.803 11.4848C134.101 11.6658 134.331 11.9403 134.456 12.2654C134.602 11.9425 134.841 11.6706 135.143 11.4848C135.458 11.3017 135.819 11.2115 136.184 11.2247C136.424 11.2195 136.664 11.2629 136.887 11.3523C137.111 11.4417 137.314 11.5753 137.485 11.745C137.667 11.9408 137.807 12.1717 137.896 12.4236C137.986 12.6755 138.023 12.9431 138.005 13.2098V15.9677H137.399V13.3061C137.429 12.8838 137.297 12.4659 137.029 12.1379C136.754 11.8804 136.391 11.7371 136.013 11.7371C135.636 11.7371 135.273 11.8804 134.997 12.1379C134.73 12.4659 134.598 12.8838 134.628 13.3061V15.9677H134.037V13.3061C134.068 12.8838 133.935 12.4659 133.668 12.1379C133.392 11.8804 133.029 11.7371 132.652 11.7371C132.275 11.7371 131.911 11.8804 131.636 12.1379C131.368 12.4657 131.234 12.8835 131.264 13.3061V15.9677H130.668V11.3105H131.264Z" fill="white"/>
<path d="M17.9103 0L15.998 3.10131H19.4506L21.3447 0H17.9103Z" fill="white"/>
<path d="M11.2139 10.8681L14.9318 4.83203H18.3843L12.9492 13.6572L11.2139 10.8681Z" fill="white"/>
<path d="M11.9157 15.3504L4.13123 2.94H13.0345L15.1966 0H1.46962C1.20685 6.80929e-05 0.948894 0.0705722 0.722618 0.204173C0.496341 0.337773 0.310013 0.529585 0.183031 0.759641C0.0560489 0.989696 -0.00694497 1.24958 0.000607404 1.51225C0.00815978 1.77491 0.0859823 2.03075 0.225973 2.25313L10.1621 18.189L11.9157 15.3504Z" fill="white"/>
<path d="M15.2434 0L9.87855 8.70032L8.07812 5.81236L11.8663 0H15.2434Z" fill="white"/>
</svg>
