<svg width="24" height="24" viewBox="0 0 24 24" fill="none" xmlns="http://www.w3.org/2000/svg">
<mask id="mask0_2062_9597" style="mask-type:alpha" maskUnits="userSpaceOnUse" x="0" y="0" width="24" height="24">
<rect width="24" height="24" fill="#D9D9D9"/>
</mask>
<g mask="url(#mask0_2062_9597)">
<path d="M6.47606 21.2495C5.92973 21.2495 5.46515 21.058 5.08231 20.675C4.69931 20.2921 4.50781 19.8244 4.50781 19.2717V7.76048C4.50781 7.18564 4.71148 6.69356 5.11881 6.28423C5.52598 5.87473 6.01923 5.66998 6.59856 5.66998H8.77956V3.68523C8.77956 3.11039 8.98323 2.61823 9.39056 2.20873C9.79773 1.79939 10.291 1.59473 10.8703 1.59473H13.1348C13.7096 1.59473 14.2018 1.79939 14.6113 2.20873C15.0206 2.61823 15.2253 3.11039 15.2253 3.68523V5.66998H17.4066C17.9814 5.66998 18.4736 5.87473 18.8831 6.28423C19.2924 6.69356 19.4971 7.18564 19.4971 7.76048V19.2717C19.4971 19.8244 19.3041 20.2921 18.9181 20.675C18.5321 21.058 18.0659 21.2495 17.5196 21.2495C17.5196 21.5673 17.4076 21.8377 17.1836 22.0607C16.9597 22.2839 16.6866 22.3955 16.3641 22.3955C16.0444 22.3955 15.7735 22.2844 15.5513 22.0622C15.3291 21.8401 15.2181 21.5691 15.2181 21.2495H8.78706C8.78706 21.5673 8.6739 21.8377 8.44756 22.0607C8.2214 22.2839 7.94781 22.3955 7.62681 22.3955C7.30581 22.3955 7.03373 22.2844 6.81056 22.0622C6.58756 21.8401 6.47606 21.5691 6.47606 21.2495ZM6.59856 19.1587H17.4066V7.76048H6.59856V19.1587ZM8.77956 17.8255H10.8703V9.09398H8.77956V17.8255ZM13.1348 17.8255H15.2253V9.09398H13.1348V17.8255ZM10.8703 5.66998H13.1348V3.68523H10.8703V5.66998Z" fill="#2A323B"/>
</g>
</svg>
