<svg width="24" height="24" viewBox="0 0 24 24" fill="none" xmlns="http://www.w3.org/2000/svg">
<mask id="mask0_2062_5723" style="mask-type:alpha" maskUnits="userSpaceOnUse" x="0" y="0" width="24" height="24">
<rect width="24" height="24" fill="#D9D9D9"/>
</mask>
<g mask="url(#mask0_2062_5723)">
<path d="M12.0003 21C11.3003 21 10.7087 20.7583 10.2253 20.275C9.74201 19.7917 9.50034 19.2 9.50034 18.5C9.50034 17.8 9.74201 17.2083 10.2253 16.725C10.7087 16.2417 11.3003 16 12.0003 16C12.7003 16 13.292 16.2417 13.7753 16.725C14.2587 17.2083 14.5003 17.8 14.5003 18.5C14.5003 19.2 14.2587 19.7917 13.7753 20.275C13.292 20.7583 12.7003 21 12.0003 21ZM12.0003 10C13.2503 10 14.4378 10.2 15.5628 10.6C16.6878 11 17.7087 11.55 18.6253 12.25C18.9587 12.5 19.1295 12.8292 19.1378 13.2375C19.1462 13.6458 19.0003 14 18.7003 14.3C18.417 14.5833 18.067 14.7292 17.6503 14.7375C17.2337 14.7458 16.8587 14.6333 16.5253 14.4C15.892 13.9667 15.192 13.625 14.4253 13.375C13.6587 13.125 12.8503 13 12.0003 13C11.1503 13 10.342 13.125 9.57534 13.375C8.80867 13.625 8.10867 13.9667 7.47534 14.4C7.14201 14.6333 6.76701 14.7417 6.35034 14.725C5.93367 14.7083 5.58367 14.5583 5.30034 14.275C5.01701 13.975 4.87534 13.6208 4.87534 13.2125C4.87534 12.8042 5.04201 12.475 5.37534 12.225C6.29201 11.525 7.31284 10.9792 8.43784 10.5875C9.56284 10.1958 10.7503 10 12.0003 10ZM12.0003 4C14.0837 4 16.0462 4.34167 17.8878 5.025C19.7295 5.70833 21.3837 6.675 22.8503 7.925C23.1837 8.20833 23.3587 8.55833 23.3753 8.975C23.392 9.39167 23.2503 9.75 22.9503 10.05C22.667 10.3333 22.317 10.4792 21.9003 10.4875C21.4837 10.4958 21.1087 10.3667 20.7753 10.1C19.5753 9.11667 18.2295 8.35417 16.7378 7.8125C15.2462 7.27083 13.667 7 12.0003 7C10.3337 7 8.75451 7.27083 7.26284 7.8125C5.77117 8.35417 4.42534 9.11667 3.22534 10.1C2.89201 10.3667 2.51701 10.4958 2.10034 10.4875C1.68367 10.4792 1.33367 10.3333 1.05034 10.05C0.750339 9.75 0.608673 9.39167 0.625339 8.975C0.642006 8.55833 0.817006 8.20833 1.15034 7.925C2.61701 6.675 4.27117 5.70833 6.11284 5.025C7.95451 4.34167 9.91701 4 12.0003 4Z" fill="#E19C25"/>
</g>
</svg>
