<svg width="24" height="24" viewBox="0 0 24 24" fill="none" xmlns="http://www.w3.org/2000/svg">
<mask id="mask0_1961_17955" style="mask-type:alpha" maskUnits="userSpaceOnUse" x="0" y="0" width="24" height="24">
<rect width="24" height="24" fill="#D9D9D9"/>
</mask>
<g mask="url(#mask0_1961_17955)">
<path d="M4 18.4871V13.3442C4 12.9585 4.07792 12.6085 4.23375 12.2942C4.38958 11.9799 4.595 11.7013 4.85 11.4585V9.05849C4.85 8.3442 5.09792 7.73706 5.59375 7.23706C6.08958 6.73706 6.69167 6.48706 7.4 6.48706H10.8C11.1258 6.48706 11.4304 6.54777 11.7137 6.6692C11.9971 6.79063 12.2592 6.95849 12.5 7.17277C12.7408 6.95849 13.0029 6.79063 13.2863 6.6692C13.5696 6.54777 13.8742 6.48706 14.2 6.48706H17.6C18.3083 6.48706 18.9104 6.73706 19.4062 7.23706C19.9021 7.73706 20.15 8.3442 20.15 9.05849V11.4585C20.405 11.7013 20.6104 11.9799 20.7663 12.2942C20.9221 12.6085 21 12.9585 21 13.3442V18.4871H19.3V16.7728H5.7V18.4871H4ZM13.35 10.7728H18.45V9.05849C18.45 8.81563 18.3685 8.61206 18.2056 8.44778C18.0427 8.28349 17.8408 8.20135 17.6 8.20135H14.2C13.9592 8.20135 13.7573 8.28349 13.5944 8.44778C13.4315 8.61206 13.35 8.81563 13.35 9.05849V10.7728ZM6.55 10.7728H11.65V9.05849C11.65 8.81563 11.5685 8.61206 11.4056 8.44778C11.2427 8.28349 11.0408 8.20135 10.8 8.20135H7.4C7.15917 8.20135 6.95729 8.28349 6.79438 8.44778C6.63146 8.61206 6.55 8.81563 6.55 9.05849V10.7728ZM5.7 15.0585H19.3V13.3442C19.3 13.1013 19.2185 12.8978 19.0556 12.7335C18.8927 12.5692 18.6908 12.4871 18.45 12.4871H6.55C6.30917 12.4871 6.10729 12.5692 5.94438 12.7335C5.78146 12.8978 5.7 13.1013 5.7 13.3442V15.0585Z" fill="#7535AD"/>
</g>
</svg>
