<svg width="25" height="25" viewBox="0 0 25 25" fill="none" xmlns="http://www.w3.org/2000/svg">
<g clip-path="url(#clip0_2062_5683)">
<path d="M16.0155 22.6562H14.0624V16.9341C17.4057 16.1582 19.8266 13.0322 19.5018 9.40674L18.723 0.710449C18.6869 0.308105 18.3544 0 17.9559 0H7.04384C6.64589 0 6.31288 0.308105 6.27724 0.710449L5.49794 9.40723C5.17323 13.0327 7.59413 16.1587 10.9374 16.9346V22.6562H8.98427C7.90565 22.6562 7.03114 23.5308 7.03114 24.6094C7.03114 24.8252 7.20595 25 7.42177 25H17.578C17.7938 25 17.9686 24.8252 17.9686 24.6094C17.9686 23.5308 17.0941 22.6562 16.0155 22.6562ZM8.48378 2.34375H16.516L16.8661 6.25H8.13368L8.48378 2.34375Z" fill="#E19C25"/>
</g>
<defs>
<clipPath id="clip0_2062_5683">
<rect width="25" height="25" fill="white"/>
</clipPath>
</defs>
</svg>
