<svg width="96" height="36" viewBox="0 0 96 36" fill="none" xmlns="http://www.w3.org/2000/svg">
<path fill-rule="evenodd" clip-rule="evenodd" d="M13.0143 30.4283C12.8788 29.5249 12.5175 29.3216 11.7947 28.9828C12.3368 28.6666 12.6756 28.1923 12.6756 27.5373C12.6756 26.2499 11.614 25.7305 10.4622 25.7305H7.23242V32.5965H10.4396C11.7947 32.5965 13.2402 31.9867 13.0143 30.4283ZM8.6779 27.0404H10.3492C11.3882 27.0404 11.4333 28.5085 10.417 28.5085H8.6779V27.0404ZM10.5525 31.2865H8.6779V29.7281H10.5525C11.9302 29.7281 11.8399 31.2865 10.5525 31.2865Z" fill="black"/>
<path fill-rule="evenodd" clip-rule="evenodd" d="M12.5853 13.533L14.0985 11.4551L14.5051 11.7487C14.3244 12.1326 14.347 12.4714 14.6858 12.7199L17.509 14.7752C18.8189 15.7238 18.8867 17.3725 18.0059 18.5922L16.583 20.5571L16.1764 20.2635C16.4023 19.9021 16.3571 19.5633 15.8828 19.202L13.0822 17.1918C12.0658 16.4465 11.84 14.5945 12.5853 13.533Z" fill="black"/>
<path fill-rule="evenodd" clip-rule="evenodd" d="M19.4069 30.4283C19.2714 29.5249 18.91 29.3216 18.1873 28.9828C18.7294 28.6666 19.0681 28.1923 19.0681 27.5373C19.0681 26.2499 18.0066 25.7305 16.8547 25.7305H13.625V32.5965H16.8322C18.1873 32.5965 19.6328 31.9867 19.4069 30.4283ZM15.0931 27.0404H16.7644C17.8033 27.0404 17.8485 28.5085 16.8322 28.5085H15.0931V27.0404ZM16.9677 31.2865H15.0931V29.7281H16.9677C18.3228 29.7281 18.2551 31.2865 16.9677 31.2865Z" fill="black"/>
<path fill-rule="evenodd" clip-rule="evenodd" d="M14.1669 5.51601L16.5159 2.26367L16.8772 2.51211C16.4029 3.18968 16.674 3.91242 17.2612 4.31897L21.3943 7.32286C23.269 8.67801 23.3367 11.185 22.1397 12.8564L19.4746 16.6056L19.1358 16.3571C19.7004 15.6118 19.6101 14.1437 18.8196 13.5565L14.9574 10.7107C13.4668 9.64919 13.0603 7.02925 14.1669 5.51601Z" fill="black"/>
<path fill-rule="evenodd" clip-rule="evenodd" d="M13.444 22.659H10.3271L10.7337 21.2812H22.3653L22.7718 22.659H19.655L19.0904 24.5562H14.0086L13.444 22.659Z" fill="black"/>
<path fill-rule="evenodd" clip-rule="evenodd" d="M25.7984 30.4272C25.6629 29.5238 25.3015 29.3205 24.5788 29.0043C25.1208 28.6881 25.4596 28.2138 25.4596 27.5588C25.4596 26.2714 24.3981 25.752 23.2462 25.752H20.0391V32.618H23.2462C24.6014 32.5954 26.0468 31.9856 25.7984 30.4272ZM21.5071 27.0393H23.1785C24.2174 27.0393 24.2626 28.5074 23.2462 28.5074H21.5071V27.0393ZM23.3591 31.2854H21.4845V29.727H23.3591C24.7369 29.727 24.6465 31.2854 23.3591 31.2854Z" fill="black"/>
<path fill-rule="evenodd" clip-rule="evenodd" d="M28.5764 31.0591C28.8248 30.9913 29.0055 30.8558 29.0055 30.5848C29.0055 30.4718 28.9604 30.3589 28.87 30.2686C28.7345 30.1556 28.5764 30.0879 28.3957 30.0879H27.6504V31.7141H27.8988V31.1042H28.3054L28.7797 31.7141H29.0733L28.5764 31.0591ZM27.8988 30.8784V30.3137H28.3731C28.599 30.3137 28.7345 30.4267 28.7345 30.5848C28.7345 30.7655 28.5764 30.8784 28.3505 30.8784H27.8988Z" fill="black"/>
<path fill-rule="evenodd" clip-rule="evenodd" d="M28.2831 29.3652C27.4249 29.3652 26.7021 30.088 26.7021 30.9462V30.9688C26.7021 31.8271 27.4249 32.5498 28.2831 32.5498C29.1414 32.5498 29.8641 31.8271 29.8641 30.9688V30.9462C29.8641 30.0654 29.1414 29.3652 28.2831 29.3652ZM29.706 30.9462C29.706 31.7367 29.0511 32.3917 28.2606 32.3917C27.4701 32.3917 26.8377 31.7367 26.8151 30.9688V30.9462C26.8151 30.1557 27.4701 29.5007 28.2606 29.5007C29.0736 29.5007 29.706 30.1331 29.706 30.9462Z" fill="black"/>
<path fill-rule="evenodd" clip-rule="evenodd" d="M40.0797 12.6364L39.2831 14.8409H40.8762L40.0797 12.6364ZM40.0797 12.6364L39.2831 14.8409H40.8762L40.0797 12.6364ZM40.0797 12.6364L39.2831 14.8409H40.8762L40.0797 12.6364ZM40.0797 12.6364L39.2831 14.8409H40.8762L40.0797 12.6364ZM40.0797 12.6364L39.2831 14.8409H40.8762L40.0797 12.6364ZM56.2162 12.5227H55.0782V13.9091H56.2162C56.6714 13.9091 56.99 13.6591 56.99 13.2273C56.99 12.7727 56.6487 12.5227 56.2162 12.5227ZM56.2162 12.5227H55.0782V13.9091H56.2162C56.6714 13.9091 56.99 13.6591 56.99 13.2273C56.99 12.7727 56.6487 12.5227 56.2162 12.5227ZM40.0797 12.6364L39.2831 14.8409H40.8762L40.0797 12.6364ZM40.0797 12.6364L39.2831 14.8409H40.8762L40.0797 12.6364ZM56.2162 12.5227H55.0782V13.9091H56.2162C56.6714 13.9091 56.99 13.6591 56.99 13.2273C56.99 12.7727 56.6487 12.5227 56.2162 12.5227ZM65.5477 12.5227H64.6145V15.7273H65.5477C66.5491 15.7273 67.1408 15 67.1408 14.1364C67.1636 13.2045 66.6174 12.5227 65.5477 12.5227ZM56.2162 12.5227H55.0782V13.9091H56.2162C56.6714 13.9091 56.99 13.6591 56.99 13.2273C56.99 12.7727 56.6487 12.5227 56.2162 12.5227ZM40.0797 12.6364L39.2831 14.8409H40.8762L40.0797 12.6364ZM65.5477 12.5227H64.6145V15.7273H65.5477C66.5491 15.7273 67.1408 15 67.1408 14.1364C67.1636 13.2045 66.6174 12.5227 65.5477 12.5227ZM40.0797 12.6364L39.2831 14.8409H40.8762L40.0797 12.6364ZM56.2162 12.5227H55.0782V13.9091H56.2162C56.6714 13.9091 56.99 13.6591 56.99 13.2273C56.99 12.7727 56.6487 12.5227 56.2162 12.5227ZM65.5477 12.5227H64.6145V15.7273H65.5477C66.5491 15.7273 67.1408 15 67.1408 14.1364C67.1636 13.2045 66.6174 12.5227 65.5477 12.5227ZM56.2162 12.5227H55.0782V13.9091H56.2162C56.6714 13.9091 56.99 13.6591 56.99 13.2273C56.99 12.7727 56.6487 12.5227 56.2162 12.5227ZM40.0797 12.6364L39.2831 14.8409H40.8762L40.0797 12.6364ZM65.5477 12.5227H64.6145V15.7273H65.5477C66.5491 15.7273 67.1408 15 67.1408 14.1364C67.1636 13.2045 66.6174 12.5227 65.5477 12.5227ZM40.0797 12.6364L39.2831 14.8409H40.8762L40.0797 12.6364ZM56.2162 12.5227H55.0782V13.9091H56.2162C56.6714 13.9091 56.99 13.6591 56.99 13.2273C56.99 12.7727 56.6487 12.5227 56.2162 12.5227ZM65.5477 12.5227H64.6145V15.7273H65.5477C66.5491 15.7273 67.1408 15 67.1408 14.1364C67.1636 13.2045 66.6174 12.5227 65.5477 12.5227ZM82.3898 12.5227H81.4566V15.7273H82.3898C83.3912 15.7273 84.0057 15 84.0057 14.1364C84.0057 13.2045 83.4367 12.5227 82.3898 12.5227ZM82.3898 12.5227H81.4566V15.7273H82.3898C83.3912 15.7273 84.0057 15 84.0057 14.1364C84.0057 13.2045 83.4367 12.5227 82.3898 12.5227ZM56.2162 12.5227H55.0782V13.9091H56.2162C56.6714 13.9091 56.99 13.6591 56.99 13.2273C56.99 12.7727 56.6487 12.5227 56.2162 12.5227ZM40.0797 12.6364L39.2831 14.8409H40.8762L40.0797 12.6364ZM65.5477 12.5227H64.6145V15.7273H65.5477C66.5491 15.7273 67.1408 15 67.1408 14.1364C67.1636 13.2045 66.6174 12.5227 65.5477 12.5227ZM40.0797 12.6364L39.2831 14.8409H40.8762L40.0797 12.6364ZM56.2162 12.5227H55.0782V13.9091H56.2162C56.6714 13.9091 56.99 13.6591 56.99 13.2273C56.99 12.7727 56.6487 12.5227 56.2162 12.5227ZM65.5477 12.5227H64.6145V15.7273H65.5477C66.5491 15.7273 67.1408 15 67.1408 14.1364C67.1636 13.2045 66.6174 12.5227 65.5477 12.5227ZM82.3898 12.5227H81.4566V15.7273H82.3898C83.3912 15.7273 84.0057 15 84.0057 14.1364C84.0057 13.2045 83.4367 12.5227 82.3898 12.5227ZM82.3898 12.5227H81.4566V15.7273H82.3898C83.3912 15.7273 84.0057 15 84.0057 14.1364C84.0057 13.2045 83.4367 12.5227 82.3898 12.5227ZM56.2162 12.5227H55.0782V13.9091H56.2162C56.6714 13.9091 56.99 13.6591 56.99 13.2273C56.99 12.7727 56.6487 12.5227 56.2162 12.5227ZM40.0797 12.6364L39.2831 14.8409H40.8762L40.0797 12.6364ZM65.5477 12.5227H64.6145V15.7273H65.5477C66.5491 15.7273 67.1408 15 67.1408 14.1364C67.1636 13.2045 66.6174 12.5227 65.5477 12.5227ZM40.0797 12.6364L39.2831 14.8409H40.8762L40.0797 12.6364ZM56.2162 12.5227H55.0782V13.9091H56.2162C56.6714 13.9091 56.99 13.6591 56.99 13.2273C56.99 12.7727 56.6487 12.5227 56.2162 12.5227ZM65.5477 12.5227H64.6145V15.7273H65.5477C66.5491 15.7273 67.1408 15 67.1408 14.1364C67.1636 13.2045 66.6174 12.5227 65.5477 12.5227ZM82.3898 12.5227H81.4566V15.7273H82.3898C83.3912 15.7273 84.0057 15 84.0057 14.1364C84.0057 13.2045 83.4367 12.5227 82.3898 12.5227ZM82.3898 12.5227H81.4566V15.7273H82.3898C83.3912 15.7273 84.0057 15 84.0057 14.1364C84.0057 13.2045 83.4367 12.5227 82.3898 12.5227ZM56.2162 12.5227H55.0782V13.9091H56.2162C56.6714 13.9091 56.99 13.6591 56.99 13.2273C56.99 12.7727 56.6487 12.5227 56.2162 12.5227ZM40.0797 12.6364L39.2831 14.8409H40.8762L40.0797 12.6364ZM65.5477 12.5227H64.6145V15.7273H65.5477C66.5491 15.7273 67.1408 15 67.1408 14.1364C67.1636 13.2045 66.6174 12.5227 65.5477 12.5227ZM40.0797 12.6364L39.2831 14.8409H40.8762L40.0797 12.6364ZM56.2162 12.5227H55.0782V13.9091H56.2162C56.6714 13.9091 56.99 13.6591 56.99 13.2273C56.99 12.7727 56.6487 12.5227 56.2162 12.5227ZM65.5477 12.5227H64.6145V15.7273H65.5477C66.5491 15.7273 67.1408 15 67.1408 14.1364C67.1636 13.2045 66.6174 12.5227 65.5477 12.5227ZM82.3898 12.5227H81.4566V15.7273H82.3898C83.3912 15.7273 84.0057 15 84.0057 14.1364C84.0057 13.2045 83.4367 12.5227 82.3898 12.5227ZM82.3898 12.5227H81.4566V15.7273H82.3898C83.3912 15.7273 84.0057 15 84.0057 14.1364C84.0057 13.2045 83.4367 12.5227 82.3898 12.5227ZM56.2162 12.5227H55.0782V13.9091H56.2162C56.6714 13.9091 56.99 13.6591 56.99 13.2273C56.99 12.7727 56.6487 12.5227 56.2162 12.5227ZM40.0797 12.6364L39.2831 14.8409H40.8762L40.0797 12.6364ZM65.5477 12.5227H64.6145V15.7273H65.5477C66.5491 15.7273 67.1408 15 67.1408 14.1364C67.1636 13.2045 66.6174 12.5227 65.5477 12.5227ZM91.266 0H4.734C2.1394 0 0 2.13636 0 4.72727V31.2727C0 33.8636 2.1394 36 4.734 36H91.266C93.8606 36 96 33.8636 96 31.2727V4.72727C96 2.13636 93.8606 0 91.266 0ZM69.1209 11.5455H70.2134V16.6818H69.1209V11.5455ZM63.522 11.5455H65.5477C67.1636 11.5455 68.2788 12.5682 68.2788 14.1136C68.2788 15.6591 67.1636 16.6818 65.5477 16.6818H63.522V11.5455ZM58.9929 11.5455H62.6344V12.5H60.0854V13.5909H62.5661V14.5455H60.0854V15.7045H62.6344V16.6591H58.9929V11.5455ZM32.5462 35.2727H4.734C2.54908 35.2727 0.751067 33.4773 0.728307 31.2727V4.72727C0.728307 2.54546 2.52632 0.750001 4.734 0.727274H32.5462V35.2727ZM40.7397 25.5H37.963V20.3636H40.6714C41.6501 20.3636 42.1508 20.9773 42.1508 21.6591C42.1508 22.2955 41.7411 22.7273 41.2632 22.8409C41.8094 22.9318 42.2418 23.4545 42.2418 24.0909C42.2418 24.8864 41.7184 25.5 40.7397 25.5ZM41.4908 16.6818L41.1721 15.8182H38.9644L38.6458 16.6818H37.394L39.3741 11.5455H40.7397L42.7198 16.6818H41.4908ZM47.7724 23.4318C47.7724 24.7045 47.0213 25.5682 45.4509 25.5682C43.8805 25.5682 43.1067 24.6818 43.1067 23.4318V20.3409H44.2219V23.3864C44.2219 24.0909 44.6316 24.5909 45.4282 24.5909C46.2248 24.5909 46.6344 24.0909 46.6344 23.3864V20.3409H47.7496V23.4318H47.7724ZM45.7696 16.7727C44.2447 16.7727 43.0384 15.7045 43.0384 14.1136C43.0384 12.5227 44.2219 11.4545 45.7696 11.4545C46.6572 11.4318 47.4993 11.9091 47.909 12.7045L46.9758 13.1591C46.7482 12.7045 46.2703 12.4091 45.7696 12.4091C44.8364 12.4091 44.1536 13.1136 44.1536 14.0909C44.1536 15.0455 44.8364 15.7727 45.7696 15.7727C46.2703 15.7727 46.7482 15.4773 46.9758 15.0227L47.909 15.5C47.5448 16.1591 46.9075 16.7727 45.7696 16.7727ZM50.6401 25.5909C49.6615 25.5909 48.9559 25.25 48.478 24.7727L49.0697 23.9318C49.5021 24.3864 50.0939 24.6364 50.7084 24.6136C51.3001 24.6136 51.596 24.3409 51.596 24.0455C51.596 23.6591 51.1181 23.5682 50.5491 23.4318C49.707 23.25 48.6373 23.0227 48.6373 21.8409C48.6373 21 49.3883 20.2727 50.5946 20.2727C51.4139 20.2727 52.0967 20.5227 52.5974 20.9773L51.9829 21.7727C51.5733 21.4091 51.0498 21.2045 50.4808 21.2045C50.0028 21.2045 49.7525 21.4091 49.7525 21.7273C49.7525 22.0682 50.2304 22.1591 50.7767 22.2955C51.6188 22.5 52.7112 22.75 52.7112 23.9091C52.7112 24.8864 52.0285 25.5909 50.6401 25.5909ZM51.1181 15.7955C51.6188 15.7955 52.0967 15.5 52.3243 15.0455L53.2575 15.5C52.8933 16.1364 52.2333 16.75 51.1181 16.75C49.5704 16.7727 48.3869 15.6818 48.3869 14.1136C48.3869 12.5455 49.5704 11.4545 51.1181 11.4545C52.0057 11.4318 52.8478 11.9091 53.2575 12.7045L52.3243 13.1591C52.0967 12.7045 51.6188 12.4091 51.1181 12.4091C50.1849 12.4091 49.5021 13.1136 49.5021 14.0909C49.5021 15.0682 50.1849 15.7955 51.1181 15.7955ZM54.6003 25.5H53.5078V20.3636H54.6003V25.5ZM55.0782 16.6818H53.9858V11.5455H56.3983C57.468 11.5455 58.128 12.25 58.128 13.2045C58.128 14.1136 57.559 14.6136 57.0128 14.7273L58.1735 16.6818H56.9218L55.9203 14.8636H55.1238V16.6818H55.0782ZM60.2447 25.5H59.1977L56.7397 22.1591V25.5H55.6472V20.3636H56.7625L59.1522 23.5909V20.3636H60.2447V25.5ZM64.9787 21.3182H62.4296V22.4091H64.9104V23.3636H62.4296V24.5227H64.9787V25.4773H61.3371V20.3409H64.9787V21.3182ZM67.7098 25.5909C66.7312 25.5909 66.0256 25.25 65.5249 24.7727L66.1166 23.9318C66.5491 24.3864 67.1408 24.6364 67.7553 24.6136C68.3471 24.6136 68.643 24.3409 68.643 24.0455C68.643 23.6591 68.165 23.5682 67.596 23.4318C66.7539 23.25 65.6842 23.0227 65.6842 21.8409C65.6842 21 66.4125 20.2727 67.6415 20.2727C68.4609 20.2727 69.1437 20.5227 69.6444 20.9773L69.0299 21.7727C68.6202 21.4091 68.074 21.2045 67.5277 21.2045C67.0498 21.2045 66.7994 21.4091 66.7994 21.7273C66.7994 22.0682 67.2774 22.1591 67.8236 22.2955C68.6657 22.5 69.7582 22.75 69.7582 23.9091C69.7582 24.8864 69.0982 25.5909 67.7098 25.5909ZM72.3755 25.5909C71.3969 25.5909 70.6913 25.25 70.2134 24.7727L70.8051 23.9318C71.2376 24.3864 71.8293 24.6364 72.4438 24.6136C73.0356 24.6136 73.3314 24.3409 73.3314 24.0455C73.3314 23.6591 72.8535 23.5682 72.2845 23.4318C71.4424 23.25 70.3727 23.0227 70.3727 21.8409C70.3727 21 71.101 20.2727 72.33 20.2727C73.1494 20.2727 73.8321 20.5227 74.3329 20.9773L73.7184 21.7727C73.3087 21.4091 72.7852 21.2045 72.2162 21.2045C71.7383 21.2045 71.4879 21.4091 71.4879 21.7273C71.4879 22.0682 71.9659 22.1591 72.5121 22.2955C73.3542 22.5 74.4467 22.75 74.4467 23.9091C74.4239 24.8864 73.7639 25.5909 72.3755 25.5909ZM75.0612 12.5227H73.559V16.6818H72.4666V12.5227H70.9644V11.5682H75.0612V12.5227ZM79.4538 12.5227H76.9047V13.6136H79.3855V14.5682H76.9047V15.7273H79.4538V16.6818H75.8122V11.5455H79.4538V12.5227ZM82.3898 16.6818H80.3642V11.5455H82.3898C84.0057 11.5455 85.1209 12.5682 85.1209 14.1136C85.0982 15.6591 83.9829 16.6818 82.3898 16.6818ZM82.3898 12.5227H81.4566V15.7273H82.3898C83.3912 15.7273 84.0057 15 84.0057 14.1364C84.0057 13.2045 83.4367 12.5227 82.3898 12.5227ZM67.1636 14.1136C67.1636 13.2045 66.6174 12.5 65.5704 12.5H64.6373V15.7045H65.5704C66.5718 15.7273 67.1636 15 67.1636 14.1136ZM56.99 13.2045C56.99 12.7727 56.6714 12.5227 56.2162 12.5227H55.0782V13.9091H56.2162C56.6487 13.9091 56.99 13.6364 56.99 13.2045ZM41.0356 21.8636C41.0356 21.5455 40.7852 21.2955 40.4666 21.2955H39.0555V22.4091H40.4211C40.7852 22.4091 41.0356 22.1818 41.0356 21.8636ZM40.4666 23.3636H39.0555V24.5455H40.4666C40.8762 24.5455 41.1266 24.3182 41.1266 23.9545C41.1266 23.6364 40.899 23.3636 40.4666 23.3636ZM39.2831 14.8409H40.8762L40.0797 12.6364L39.2831 14.8409ZM65.5477 12.5227H64.6145V15.7273H65.5477C66.5491 15.7273 67.1408 15 67.1408 14.1364C67.1636 13.2045 66.6174 12.5227 65.5477 12.5227ZM40.0797 12.6364L39.2831 14.8409H40.8762L40.0797 12.6364ZM56.2162 12.5227H55.0782V13.9091H56.2162C56.6714 13.9091 56.99 13.6591 56.99 13.2273C56.99 12.7727 56.6487 12.5227 56.2162 12.5227ZM82.3898 12.5227H81.4566V15.7273H82.3898C83.3912 15.7273 84.0057 15 84.0057 14.1364C84.0057 13.2045 83.4367 12.5227 82.3898 12.5227ZM82.3898 12.5227H81.4566V15.7273H82.3898C83.3912 15.7273 84.0057 15 84.0057 14.1364C84.0057 13.2045 83.4367 12.5227 82.3898 12.5227ZM65.5477 12.5227H64.6145V15.7273H65.5477C66.5491 15.7273 67.1408 15 67.1408 14.1364C67.1636 13.2045 66.6174 12.5227 65.5477 12.5227ZM56.2162 12.5227H55.0782V13.9091H56.2162C56.6714 13.9091 56.99 13.6591 56.99 13.2273C56.99 12.7727 56.6487 12.5227 56.2162 12.5227ZM40.0797 12.6364L39.2831 14.8409H40.8762L40.0797 12.6364ZM65.5477 12.5227H64.6145V15.7273H65.5477C66.5491 15.7273 67.1408 15 67.1408 14.1364C67.1636 13.2045 66.6174 12.5227 65.5477 12.5227ZM40.0797 12.6364L39.2831 14.8409H40.8762L40.0797 12.6364ZM56.2162 12.5227H55.0782V13.9091H56.2162C56.6714 13.9091 56.99 13.6591 56.99 13.2273C56.99 12.7727 56.6487 12.5227 56.2162 12.5227ZM82.3898 12.5227H81.4566V15.7273H82.3898C83.3912 15.7273 84.0057 15 84.0057 14.1364C84.0057 13.2045 83.4367 12.5227 82.3898 12.5227ZM82.3898 12.5227H81.4566V15.7273H82.3898C83.3912 15.7273 84.0057 15 84.0057 14.1364C84.0057 13.2045 83.4367 12.5227 82.3898 12.5227ZM65.5477 12.5227H64.6145V15.7273H65.5477C66.5491 15.7273 67.1408 15 67.1408 14.1364C67.1636 13.2045 66.6174 12.5227 65.5477 12.5227ZM56.2162 12.5227H55.0782V13.9091H56.2162C56.6714 13.9091 56.99 13.6591 56.99 13.2273C56.99 12.7727 56.6487 12.5227 56.2162 12.5227ZM40.0797 12.6364L39.2831 14.8409H40.8762L40.0797 12.6364ZM65.5477 12.5227H64.6145V15.7273H65.5477C66.5491 15.7273 67.1408 15 67.1408 14.1364C67.1636 13.2045 66.6174 12.5227 65.5477 12.5227ZM40.0797 12.6364L39.2831 14.8409H40.8762L40.0797 12.6364ZM56.2162 12.5227H55.0782V13.9091H56.2162C56.6714 13.9091 56.99 13.6591 56.99 13.2273C56.99 12.7727 56.6487 12.5227 56.2162 12.5227ZM82.3898 12.5227H81.4566V15.7273H82.3898C83.3912 15.7273 84.0057 15 84.0057 14.1364C84.0057 13.2045 83.4367 12.5227 82.3898 12.5227ZM82.3898 12.5227H81.4566V15.7273H82.3898C83.3912 15.7273 84.0057 15 84.0057 14.1364C84.0057 13.2045 83.4367 12.5227 82.3898 12.5227ZM65.5477 12.5227H64.6145V15.7273H65.5477C66.5491 15.7273 67.1408 15 67.1408 14.1364C67.1636 13.2045 66.6174 12.5227 65.5477 12.5227ZM56.2162 12.5227H55.0782V13.9091H56.2162C56.6714 13.9091 56.99 13.6591 56.99 13.2273C56.99 12.7727 56.6487 12.5227 56.2162 12.5227ZM40.0797 12.6364L39.2831 14.8409H40.8762L40.0797 12.6364ZM65.5477 12.5227H64.6145V15.7273H65.5477C66.5491 15.7273 67.1408 15 67.1408 14.1364C67.1636 13.2045 66.6174 12.5227 65.5477 12.5227ZM40.0797 12.6364L39.2831 14.8409H40.8762L40.0797 12.6364ZM56.2162 12.5227H55.0782V13.9091H56.2162C56.6714 13.9091 56.99 13.6591 56.99 13.2273C56.99 12.7727 56.6487 12.5227 56.2162 12.5227ZM82.3898 12.5227H81.4566V15.7273H82.3898C83.3912 15.7273 84.0057 15 84.0057 14.1364C84.0057 13.2045 83.4367 12.5227 82.3898 12.5227ZM82.3898 12.5227H81.4566V15.7273H82.3898C83.3912 15.7273 84.0057 15 84.0057 14.1364C84.0057 13.2045 83.4367 12.5227 82.3898 12.5227ZM65.5477 12.5227H64.6145V15.7273H65.5477C66.5491 15.7273 67.1408 15 67.1408 14.1364C67.1636 13.2045 66.6174 12.5227 65.5477 12.5227ZM56.2162 12.5227H55.0782V13.9091H56.2162C56.6714 13.9091 56.99 13.6591 56.99 13.2273C56.99 12.7727 56.6487 12.5227 56.2162 12.5227ZM40.0797 12.6364L39.2831 14.8409H40.8762L40.0797 12.6364ZM65.5477 12.5227H64.6145V15.7273H65.5477C66.5491 15.7273 67.1408 15 67.1408 14.1364C67.1636 13.2045 66.6174 12.5227 65.5477 12.5227ZM40.0797 12.6364L39.2831 14.8409H40.8762L40.0797 12.6364ZM56.2162 12.5227H55.0782V13.9091H56.2162C56.6714 13.9091 56.99 13.6591 56.99 13.2273C56.99 12.7727 56.6487 12.5227 56.2162 12.5227ZM65.5477 12.5227H64.6145V15.7273H65.5477C66.5491 15.7273 67.1408 15 67.1408 14.1364C67.1636 13.2045 66.6174 12.5227 65.5477 12.5227ZM56.2162 12.5227H55.0782V13.9091H56.2162C56.6714 13.9091 56.99 13.6591 56.99 13.2273C56.99 12.7727 56.6487 12.5227 56.2162 12.5227ZM40.0797 12.6364L39.2831 14.8409H40.8762L40.0797 12.6364ZM65.5477 12.5227H64.6145V15.7273H65.5477C66.5491 15.7273 67.1408 15 67.1408 14.1364C67.1636 13.2045 66.6174 12.5227 65.5477 12.5227ZM40.0797 12.6364L39.2831 14.8409H40.8762L40.0797 12.6364ZM56.2162 12.5227H55.0782V13.9091H56.2162C56.6714 13.9091 56.99 13.6591 56.99 13.2273C56.99 12.7727 56.6487 12.5227 56.2162 12.5227ZM65.5477 12.5227H64.6145V15.7273H65.5477C66.5491 15.7273 67.1408 15 67.1408 14.1364C67.1636 13.2045 66.6174 12.5227 65.5477 12.5227ZM56.2162 12.5227H55.0782V13.9091H56.2162C56.6714 13.9091 56.99 13.6591 56.99 13.2273C56.99 12.7727 56.6487 12.5227 56.2162 12.5227ZM40.0797 12.6364L39.2831 14.8409H40.8762L40.0797 12.6364ZM40.0797 12.6364L39.2831 14.8409H40.8762L40.0797 12.6364ZM56.2162 12.5227H55.0782V13.9091H56.2162C56.6714 13.9091 56.99 13.6591 56.99 13.2273C56.99 12.7727 56.6487 12.5227 56.2162 12.5227ZM56.2162 12.5227H55.0782V13.9091H56.2162C56.6714 13.9091 56.99 13.6591 56.99 13.2273C56.99 12.7727 56.6487 12.5227 56.2162 12.5227ZM40.0797 12.6364L39.2831 14.8409H40.8762L40.0797 12.6364ZM40.0797 12.6364L39.2831 14.8409H40.8762L40.0797 12.6364ZM40.0797 12.6364L39.2831 14.8409H40.8762L40.0797 12.6364Z" fill="black"/>
<path fill-rule="evenodd" clip-rule="evenodd" d="M28.5758 31.0593C28.8243 30.9916 29.005 30.856 29.005 30.585C29.005 30.4721 28.9598 30.3592 28.8695 30.2688C28.7339 30.1559 28.5758 30.0881 28.3952 30.0881H27.6498V31.7143H27.8983V31.1045H28.3048L28.7791 31.7143H29.0727L28.5758 31.0593ZM27.8983 30.8786V30.314H28.3726C28.5984 30.314 28.7339 30.4269 28.7339 30.585C28.7339 30.7657 28.5758 30.8786 28.35 30.8786H27.8983ZM28.5758 31.0593C28.8243 30.9916 29.005 30.856 29.005 30.585C29.005 30.4721 28.9598 30.3592 28.8695 30.2688C28.7339 30.1559 28.5758 30.0881 28.3952 30.0881H27.6498V31.7143H27.8983V31.1045H28.3048L28.7791 31.7143H29.0727L28.5758 31.0593ZM27.8983 30.8786V30.314H28.3726C28.5984 30.314 28.7339 30.4269 28.7339 30.585C28.7339 30.7657 28.5758 30.8786 28.35 30.8786H27.8983ZM28.5758 31.0593C28.8243 30.9916 29.005 30.856 29.005 30.585C29.005 30.4721 28.9598 30.3592 28.8695 30.2688C28.7339 30.1559 28.5758 30.0881 28.3952 30.0881H27.6498V31.7143H27.8983V31.1045H28.3048L28.7791 31.7143H29.0727L28.5758 31.0593ZM27.8983 30.8786V30.314H28.3726C28.5984 30.314 28.7339 30.4269 28.7339 30.585C28.7339 30.7657 28.5758 30.8786 28.35 30.8786H27.8983ZM28.5758 31.0593C28.8243 30.9916 29.005 30.856 29.005 30.585C29.005 30.4721 28.9598 30.3592 28.8695 30.2688C28.7339 30.1559 28.5758 30.0881 28.3952 30.0881H27.6498V31.7143H27.8983V31.1045H28.3048L28.7791 31.7143H29.0727L28.5758 31.0593ZM27.8983 30.8786V30.314H28.3726C28.5984 30.314 28.7339 30.4269 28.7339 30.585C28.7339 30.7657 28.5758 30.8786 28.35 30.8786H27.8983ZM28.5758 31.0593C28.8243 30.9916 29.005 30.856 29.005 30.585C29.005 30.4721 28.9598 30.3592 28.8695 30.2688C28.7339 30.1559 28.5758 30.0881 28.3952 30.0881H27.6498V31.7143H27.8983V31.1045H28.3048L28.7791 31.7143H29.0727L28.5758 31.0593ZM27.8983 30.8786V30.314H28.3726C28.5984 30.314 28.7339 30.4269 28.7339 30.585C28.7339 30.7657 28.5758 30.8786 28.35 30.8786H27.8983ZM28.5758 31.0593C28.8243 30.9916 29.005 30.856 29.005 30.585C29.005 30.4721 28.9598 30.3592 28.8695 30.2688C28.7339 30.1559 28.5758 30.0881 28.3952 30.0881H27.6498V31.7143H27.8983V31.1045H28.3048L28.7791 31.7143H29.0727L28.5758 31.0593ZM27.8983 30.8786V30.314H28.3726C28.5984 30.314 28.7339 30.4269 28.7339 30.585C28.7339 30.7657 28.5758 30.8786 28.35 30.8786H27.8983ZM28.5758 31.0593C28.8243 30.9916 29.005 30.856 29.005 30.585C29.005 30.4721 28.9598 30.3592 28.8695 30.2688C28.7339 30.1559 28.5758 30.0881 28.3952 30.0881H27.6498V31.7143H27.8983V31.1045H28.3048L28.7791 31.7143H29.0727L28.5758 31.0593ZM27.8983 30.8786V30.314H28.3726C28.5984 30.314 28.7339 30.4269 28.7339 30.585C28.7339 30.7657 28.5758 30.8786 28.35 30.8786H27.8983ZM28.5758 31.0593C28.8243 30.9916 29.005 30.856 29.005 30.585C29.005 30.4721 28.9598 30.3592 28.8695 30.2688C28.7339 30.1559 28.5758 30.0881 28.3952 30.0881H27.6498V31.7143H27.8983V31.1045H28.3048L28.7791 31.7143H29.0727L28.5758 31.0593ZM27.8983 30.8786V30.314H28.3726C28.5984 30.314 28.7339 30.4269 28.7339 30.585C28.7339 30.7657 28.5758 30.8786 28.35 30.8786H27.8983ZM28.5758 31.0593C28.8243 30.9916 29.005 30.856 29.005 30.585C29.005 30.4721 28.9598 30.3592 28.8695 30.2688C28.7339 30.1559 28.5758 30.0881 28.3952 30.0881H27.6498V31.7143H27.8983V31.1045H28.3048L28.7791 31.7143H29.0727L28.5758 31.0593ZM27.8983 30.8786V30.314H28.3726C28.5984 30.314 28.7339 30.4269 28.7339 30.585C28.7339 30.7657 28.5758 30.8786 28.35 30.8786H27.8983ZM28.5758 31.0593C28.8243 30.9916 29.005 30.856 29.005 30.585C29.005 30.4721 28.9598 30.3592 28.8695 30.2688C28.7339 30.1559 28.5758 30.0881 28.3952 30.0881H27.6498V31.7143H27.8983V31.1045H28.3048L28.7791 31.7143H29.0727L28.5758 31.0593ZM27.8983 30.8786V30.314H28.3726C28.5984 30.314 28.7339 30.4269 28.7339 30.585C28.7339 30.7657 28.5758 30.8786 28.35 30.8786H27.8983ZM28.5758 31.0593C28.8243 30.9916 29.005 30.856 29.005 30.585C29.005 30.4721 28.9598 30.3592 28.8695 30.2688C28.7339 30.1559 28.5758 30.0881 28.3952 30.0881H27.6498V31.7143H27.8983V31.1045H28.3048L28.7791 31.7143H29.0727L28.5758 31.0593ZM27.8983 30.8786V30.314H28.3726C28.5984 30.314 28.7339 30.4269 28.7339 30.585C28.7339 30.7657 28.5758 30.8786 28.35 30.8786H27.8983ZM28.5758 31.0593C28.8243 30.9916 29.005 30.856 29.005 30.585C29.005 30.4721 28.9598 30.3592 28.8695 30.2688C28.7339 30.1559 28.5758 30.0881 28.3952 30.0881H27.6498V31.7143H27.8983V31.1045H28.3048L28.7791 31.7143H29.0727L28.5758 31.0593ZM27.8983 30.8786V30.314H28.3726C28.5984 30.314 28.7339 30.4269 28.7339 30.585C28.7339 30.7657 28.5758 30.8786 28.35 30.8786H27.8983ZM28.5758 31.0593C28.8243 30.9916 29.005 30.856 29.005 30.585C29.005 30.4721 28.9598 30.3592 28.8695 30.2688C28.7339 30.1559 28.5758 30.0881 28.3952 30.0881H27.6498V31.7143H27.8983V31.1045H28.3048L28.7791 31.7143H29.0727L28.5758 31.0593ZM27.8983 30.8786V30.314H28.3726C28.5984 30.314 28.7339 30.4269 28.7339 30.585C28.7339 30.7657 28.5758 30.8786 28.35 30.8786H27.8983ZM28.5758 31.0593C28.8243 30.9916 29.005 30.856 29.005 30.585C29.005 30.4721 28.9598 30.3592 28.8695 30.2688C28.7339 30.1559 28.5758 30.0881 28.3952 30.0881H27.6498V31.7143H27.8983V31.1045H28.3048L28.7791 31.7143H29.0727L28.5758 31.0593ZM27.8983 30.8786V30.314H28.3726C28.5984 30.314 28.7339 30.4269 28.7339 30.585C28.7339 30.7657 28.5758 30.8786 28.35 30.8786H27.8983ZM28.5758 31.0593C28.8243 30.9916 29.005 30.856 29.005 30.585C29.005 30.4721 28.9598 30.3592 28.8695 30.2688C28.7339 30.1559 28.5758 30.0881 28.3952 30.0881H27.6498V31.7143H27.8983V31.1045H28.3048L28.7791 31.7143H29.0727L28.5758 31.0593ZM27.8983 30.8786V30.314H28.3726C28.5984 30.314 28.7339 30.4269 28.7339 30.585C28.7339 30.7657 28.5758 30.8786 28.35 30.8786H27.8983ZM28.5758 31.0593C28.8243 30.9916 29.005 30.856 29.005 30.585C29.005 30.4721 28.9598 30.3592 28.8695 30.2688C28.7339 30.1559 28.5758 30.0881 28.3952 30.0881H27.6498V31.7143H27.8983V31.1045H28.3048L28.7791 31.7143H29.0727L28.5758 31.0593ZM27.8983 30.8786V30.314H28.3726C28.5984 30.314 28.7339 30.4269 28.7339 30.585C28.7339 30.7657 28.5758 30.8786 28.35 30.8786H27.8983ZM28.5758 31.0593C28.8243 30.9916 29.005 30.856 29.005 30.585C29.005 30.4721 28.9598 30.3592 28.8695 30.2688C28.7339 30.1559 28.5758 30.0881 28.3952 30.0881H27.6498V31.7143H27.8983V31.1045H28.3048L28.7791 31.7143H29.0727L28.5758 31.0593ZM27.8983 30.8786V30.314H28.3726C28.5984 30.314 28.7339 30.4269 28.7339 30.585C28.7339 30.7657 28.5758 30.8786 28.35 30.8786H27.8983ZM28.5758 31.0593C28.8243 30.9916 29.005 30.856 29.005 30.585C29.005 30.4721 28.9598 30.3592 28.8695 30.2688C28.7339 30.1559 28.5758 30.0881 28.3952 30.0881H27.6498V31.7143H27.8983V31.1045H28.3048L28.7791 31.7143H29.0727L28.5758 31.0593ZM27.8983 30.8786V30.314H28.3726C28.5984 30.314 28.7339 30.4269 28.7339 30.585C28.7339 30.7657 28.5758 30.8786 28.35 30.8786H27.8983ZM28.5758 31.0593C28.8243 30.9916 29.005 30.856 29.005 30.585C29.005 30.4721 28.9598 30.3592 28.8695 30.2688C28.7339 30.1559 28.5758 30.0881 28.3952 30.0881H27.6498V31.7143H27.8983V31.1045H28.3048L28.7791 31.7143H29.0727L28.5758 31.0593ZM27.8983 30.8786V30.314H28.3726C28.5984 30.314 28.7339 30.4269 28.7339 30.585C28.7339 30.7657 28.5758 30.8786 28.35 30.8786H27.8983ZM28.5758 31.0593C28.8243 30.9916 29.005 30.856 29.005 30.585C29.005 30.4721 28.9598 30.3592 28.8695 30.2688C28.7339 30.1559 28.5758 30.0881 28.3952 30.0881H27.6498V31.7143H27.8983V31.1045H28.3048L28.7791 31.7143H29.0727L28.5758 31.0593ZM27.8983 30.8786V30.314H28.3726C28.5984 30.314 28.7339 30.4269 28.7339 30.585C28.7339 30.7657 28.5758 30.8786 28.35 30.8786H27.8983ZM28.2822 29.3654C27.424 29.3654 26.7012 30.0881 26.7012 30.9464V30.969C26.7012 31.8272 27.424 32.55 28.2822 32.55C29.1405 32.55 29.8632 31.8272 29.8632 30.969V30.9464C29.8632 30.0655 29.1405 29.3654 28.2822 29.3654ZM29.7051 30.9464C29.7051 31.7369 29.0501 32.3919 28.2596 32.3919C27.4691 32.3919 26.8367 31.7369 26.8142 30.969V30.9464C26.8142 30.1559 27.4691 29.5009 28.2596 29.5009C29.0727 29.5009 29.7051 30.1333 29.7051 30.9464ZM29.005 30.585C29.005 30.4495 28.9598 30.3366 28.8695 30.2688C28.7339 30.1559 28.5758 30.0881 28.3952 30.0881H27.6498V31.7143H27.8983V31.1045H28.3048L28.7791 31.7143H29.0727L28.5758 31.0593C28.8243 30.9916 29.005 30.8335 29.005 30.585ZM27.8983 30.8786V30.314H28.3726C28.5984 30.314 28.7339 30.4269 28.7339 30.585C28.7339 30.7657 28.5758 30.8786 28.35 30.8786H27.8983ZM28.5758 31.0593C28.8243 30.9916 29.005 30.856 29.005 30.585C29.005 30.4721 28.9598 30.3592 28.8695 30.2688C28.7339 30.1559 28.5758 30.0881 28.3952 30.0881H27.6498V31.7143H27.8983V31.1045H28.3048L28.7791 31.7143H29.0727L28.5758 31.0593ZM27.8983 30.8786V30.314H28.3726C28.5984 30.314 28.7339 30.4269 28.7339 30.585C28.7339 30.7657 28.5758 30.8786 28.35 30.8786H27.8983ZM28.5758 31.0593C28.8243 30.9916 29.005 30.856 29.005 30.585C29.005 30.4721 28.9598 30.3592 28.8695 30.2688C28.7339 30.1559 28.5758 30.0881 28.3952 30.0881H27.6498V31.7143H27.8983V31.1045H28.3048L28.7791 31.7143H29.0727L28.5758 31.0593ZM27.8983 30.8786V30.314H28.3726C28.5984 30.314 28.7339 30.4269 28.7339 30.585C28.7339 30.7657 28.5758 30.8786 28.35 30.8786H27.8983ZM28.5758 31.0593C28.8243 30.9916 29.005 30.856 29.005 30.585C29.005 30.4721 28.9598 30.3592 28.8695 30.2688C28.7339 30.1559 28.5758 30.0881 28.3952 30.0881H27.6498V31.7143H27.8983V31.1045H28.3048L28.7791 31.7143H29.0727L28.5758 31.0593ZM27.8983 30.8786V30.314H28.3726C28.5984 30.314 28.7339 30.4269 28.7339 30.585C28.7339 30.7657 28.5758 30.8786 28.35 30.8786H27.8983ZM28.5758 31.0593C28.8243 30.9916 29.005 30.856 29.005 30.585C29.005 30.4721 28.9598 30.3592 28.8695 30.2688C28.7339 30.1559 28.5758 30.0881 28.3952 30.0881H27.6498V31.7143H27.8983V31.1045H28.3048L28.7791 31.7143H29.0727L28.5758 31.0593ZM27.8983 30.8786V30.314H28.3726C28.5984 30.314 28.7339 30.4269 28.7339 30.585C28.7339 30.7657 28.5758 30.8786 28.35 30.8786H27.8983ZM28.5758 31.0593C28.8243 30.9916 29.005 30.856 29.005 30.585C29.005 30.4721 28.9598 30.3592 28.8695 30.2688C28.7339 30.1559 28.5758 30.0881 28.3952 30.0881H27.6498V31.7143H27.8983V31.1045H28.3048L28.7791 31.7143H29.0727L28.5758 31.0593ZM27.8983 30.8786V30.314H28.3726C28.5984 30.314 28.7339 30.4269 28.7339 30.585C28.7339 30.7657 28.5758 30.8786 28.35 30.8786H27.8983ZM28.5758 31.0593C28.8243 30.9916 29.005 30.856 29.005 30.585C29.005 30.4721 28.9598 30.3592 28.8695 30.2688C28.7339 30.1559 28.5758 30.0881 28.3952 30.0881H27.6498V31.7143H27.8983V31.1045H28.3048L28.7791 31.7143H29.0727L28.5758 31.0593ZM27.8983 30.8786V30.314H28.3726C28.5984 30.314 28.7339 30.4269 28.7339 30.585C28.7339 30.7657 28.5758 30.8786 28.35 30.8786H27.8983ZM28.5758 31.0593C28.8243 30.9916 29.005 30.856 29.005 30.585C29.005 30.4721 28.9598 30.3592 28.8695 30.2688C28.7339 30.1559 28.5758 30.0881 28.3952 30.0881H27.6498V31.7143H27.8983V31.1045H28.3048L28.7791 31.7143H29.0727L28.5758 31.0593ZM27.8983 30.8786V30.314H28.3726C28.5984 30.314 28.7339 30.4269 28.7339 30.585C28.7339 30.7657 28.5758 30.8786 28.35 30.8786H27.8983ZM28.5758 31.0593C28.8243 30.9916 29.005 30.856 29.005 30.585C29.005 30.4721 28.9598 30.3592 28.8695 30.2688C28.7339 30.1559 28.5758 30.0881 28.3952 30.0881H27.6498V31.7143H27.8983V31.1045H28.3048L28.7791 31.7143H29.0727L28.5758 31.0593ZM27.8983 30.8786V30.314H28.3726C28.5984 30.314 28.7339 30.4269 28.7339 30.585C28.7339 30.7657 28.5758 30.8786 28.35 30.8786H27.8983ZM28.5758 31.0593C28.8243 30.9916 29.005 30.856 29.005 30.585C29.005 30.4721 28.9598 30.3592 28.8695 30.2688C28.7339 30.1559 28.5758 30.0881 28.3952 30.0881H27.6498V31.7143H27.8983V31.1045H28.3048L28.7791 31.7143H29.0727L28.5758 31.0593ZM27.8983 30.8786V30.314H28.3726C28.5984 30.314 28.7339 30.4269 28.7339 30.585C28.7339 30.7657 28.5758 30.8786 28.35 30.8786H27.8983ZM28.5758 31.0593C28.8243 30.9916 29.005 30.856 29.005 30.585C29.005 30.4721 28.9598 30.3592 28.8695 30.2688C28.7339 30.1559 28.5758 30.0881 28.3952 30.0881H27.6498V31.7143H27.8983V31.1045H28.3048L28.7791 31.7143H29.0727L28.5758 31.0593ZM27.8983 30.8786V30.314H28.3726C28.5984 30.314 28.7339 30.4269 28.7339 30.585C28.7339 30.7657 28.5758 30.8786 28.35 30.8786H27.8983ZM28.5758 31.0593C28.8243 30.9916 29.005 30.856 29.005 30.585C29.005 30.4721 28.9598 30.3592 28.8695 30.2688C28.7339 30.1559 28.5758 30.0881 28.3952 30.0881H27.6498V31.7143H27.8983V31.1045H28.3048L28.7791 31.7143H29.0727L28.5758 31.0593ZM27.8983 30.8786V30.314H28.3726C28.5984 30.314 28.7339 30.4269 28.7339 30.585C28.7339 30.7657 28.5758 30.8786 28.35 30.8786H27.8983ZM28.5758 31.0593C28.8243 30.9916 29.005 30.856 29.005 30.585C29.005 30.4721 28.9598 30.3592 28.8695 30.2688C28.7339 30.1559 28.5758 30.0881 28.3952 30.0881H27.6498V31.7143H27.8983V31.1045H28.3048L28.7791 31.7143H29.0727L28.5758 31.0593ZM27.8983 30.8786V30.314H28.3726C28.5984 30.314 28.7339 30.4269 28.7339 30.585C28.7339 30.7657 28.5758 30.8786 28.35 30.8786H27.8983ZM28.5758 31.0593C28.8243 30.9916 29.005 30.856 29.005 30.585C29.005 30.4721 28.9598 30.3592 28.8695 30.2688C28.7339 30.1559 28.5758 30.0881 28.3952 30.0881H27.6498V31.7143H27.8983V31.1045H28.3048L28.7791 31.7143H29.0727L28.5758 31.0593ZM27.8983 30.8786V30.314H28.3726C28.5984 30.314 28.7339 30.4269 28.7339 30.585C28.7339 30.7657 28.5758 30.8786 28.35 30.8786H27.8983ZM28.5758 31.0593C28.8243 30.9916 29.005 30.856 29.005 30.585C29.005 30.4721 28.9598 30.3592 28.8695 30.2688C28.7339 30.1559 28.5758 30.0881 28.3952 30.0881H27.6498V31.7143H27.8983V31.1045H28.3048L28.7791 31.7143H29.0727L28.5758 31.0593ZM27.8983 30.8786V30.314H28.3726C28.5984 30.314 28.7339 30.4269 28.7339 30.585C28.7339 30.7657 28.5758 30.8786 28.35 30.8786H27.8983ZM28.5758 31.0593C28.8243 30.9916 29.005 30.856 29.005 30.585C29.005 30.4721 28.9598 30.3592 28.8695 30.2688C28.7339 30.1559 28.5758 30.0881 28.3952 30.0881H27.6498V31.7143H27.8983V31.1045H28.3048L28.7791 31.7143H29.0727L28.5758 31.0593ZM27.8983 30.8786V30.314H28.3726C28.5984 30.314 28.7339 30.4269 28.7339 30.585C28.7339 30.7657 28.5758 30.8786 28.35 30.8786H27.8983ZM28.5758 31.0593C28.8243 30.9916 29.005 30.856 29.005 30.585C29.005 30.4721 28.9598 30.3592 28.8695 30.2688C28.7339 30.1559 28.5758 30.0881 28.3952 30.0881H27.6498V31.7143H27.8983V31.1045H28.3048L28.7791 31.7143H29.0727L28.5758 31.0593ZM27.8983 30.8786V30.314H28.3726C28.5984 30.314 28.7339 30.4269 28.7339 30.585C28.7339 30.7657 28.5758 30.8786 28.35 30.8786H27.8983ZM28.5758 31.0593C28.8243 30.9916 29.005 30.856 29.005 30.585C29.005 30.4721 28.9598 30.3592 28.8695 30.2688C28.7339 30.1559 28.5758 30.0881 28.3952 30.0881H27.6498V31.7143H27.8983V31.1045H28.3048L28.7791 31.7143H29.0727L28.5758 31.0593ZM27.8983 30.8786V30.314H28.3726C28.5984 30.314 28.7339 30.4269 28.7339 30.585C28.7339 30.7657 28.5758 30.8786 28.35 30.8786H27.8983ZM28.5758 31.0593C28.8243 30.9916 29.005 30.856 29.005 30.585C29.005 30.4721 28.9598 30.3592 28.8695 30.2688C28.7339 30.1559 28.5758 30.0881 28.3952 30.0881H27.6498V31.7143H27.8983V31.1045H28.3048L28.7791 31.7143H29.0727L28.5758 31.0593ZM27.8983 30.8786V30.314H28.3726C28.5984 30.314 28.7339 30.4269 28.7339 30.585C28.7339 30.7657 28.5758 30.8786 28.35 30.8786H27.8983ZM25.7978 30.4269C25.6623 29.5235 25.3009 29.3202 24.5782 29.004C25.1202 28.6878 25.459 28.2135 25.459 27.5585C25.459 26.2712 24.3975 25.7517 23.2456 25.7517H20.0385V32.6177H23.2456C24.6008 32.5951 26.0463 31.9853 25.7978 30.4269ZM21.5065 27.0391H23.1779C24.2168 27.0391 24.262 28.5071 23.2456 28.5071H21.5065V27.0391ZM23.3586 31.2852H21.484V29.7268H23.3586C24.7363 29.7268 24.6459 31.2852 23.3586 31.2852ZM22.3648 21.2797H10.7332L10.3267 22.6574H13.4435L14.0081 24.5546H19.1125L19.6771 22.6574H22.7939L22.3648 21.2797ZM21.3936 7.34435L17.2604 4.34045C16.6732 3.93391 16.3796 3.21117 16.8765 2.5336L16.5151 2.28516L14.1662 5.5375C13.0595 7.07332 13.4661 9.67068 14.9793 10.7774L18.8414 13.6006C19.6319 14.1652 19.7223 15.6333 19.1576 16.4012L19.4964 16.6497L22.1615 12.9004C23.3586 11.1839 23.2908 8.69949 21.3936 7.34435ZM19.4061 30.4269C19.2706 29.5235 18.9092 29.3202 18.1865 28.9814C18.7285 28.6652 19.0673 28.1909 19.0673 27.536C19.0673 26.2486 18.0058 25.7291 16.8539 25.7291H13.6242V32.5951H16.8313C18.1865 32.5951 19.6319 31.9853 19.4061 30.4269ZM15.0922 27.0391H16.7636C17.8025 27.0391 17.8477 28.5071 16.8313 28.5071H15.0922V27.0391ZM16.9668 31.2852H15.0922V29.7268H16.9668C18.322 29.7268 18.2542 31.2852 16.9668 31.2852ZM17.5089 14.7976L14.6857 12.7423C14.3469 12.4939 14.3017 12.1551 14.505 11.7711L14.0985 11.4549L12.5852 13.5328C11.8399 14.5718 12.0657 16.4238 13.1047 17.1691L15.9053 19.1792C16.3796 19.518 16.4248 19.8794 16.1989 20.2408L16.6055 20.5344L18.0284 18.5694C18.8866 17.395 18.8188 15.7236 17.5089 14.7976ZM13.0143 30.4269C12.8788 29.5235 12.5175 29.3202 11.7947 28.9814C12.3368 28.6652 12.6756 28.1909 12.6756 27.536C12.6756 26.2486 11.614 25.7291 10.4622 25.7291H7.23242V32.5951H10.4396C11.7947 32.5951 13.2402 31.9853 13.0143 30.4269ZM8.6779 27.0391H10.3492C11.3882 27.0391 11.4333 28.5071 10.417 28.5071H8.6779V27.0391ZM10.5525 31.2852H8.6779V29.7268H10.5525C11.9302 29.7268 11.8399 31.2852 10.5525 31.2852Z" fill="white"/>
<path fill-rule="evenodd" clip-rule="evenodd" d="M21.3936 7.34435L17.2604 4.34045C16.6732 3.93391 16.3796 3.21117 16.8765 2.5336L16.5151 2.28516L14.1662 5.5375C13.0595 7.07332 13.4661 9.67068 14.9793 10.7774L18.8414 13.6006C19.6319 14.1652 19.7223 15.6333 19.1576 16.4012L19.4964 16.6497L22.1615 12.9004C23.3586 11.1839 23.2908 8.69949 21.3936 7.34435ZM17.5089 14.7976L14.6857 12.7423C14.3469 12.4939 14.3017 12.1551 14.505 11.7711L14.0985 11.4549L12.5852 13.5328C11.8399 14.5718 12.0657 16.4238 13.1047 17.1691L15.9053 19.1792C16.3796 19.518 16.4248 19.8794 16.1989 20.2408L16.6055 20.5344L18.0284 18.5694C18.8866 17.395 18.8188 15.7236 17.5089 14.7976ZM22.3648 21.2797H10.7332L10.3267 22.6574H13.4435L14.0081 24.5546H19.1125L19.6771 22.6574H22.7939L22.3648 21.2797ZM28.5758 31.0593C28.8243 30.9916 29.005 30.856 29.005 30.585C29.005 30.4721 28.9598 30.3592 28.8695 30.2688C28.7339 30.1559 28.5758 30.0881 28.3952 30.0881H27.6498V31.7143H27.8983V31.1045H28.3048L28.7791 31.7143H29.0727L28.5758 31.0593ZM27.8983 30.8786V30.314H28.3726C28.5984 30.314 28.7339 30.4269 28.7339 30.585C28.7339 30.7657 28.5758 30.8786 28.35 30.8786H27.8983ZM28.5758 31.0593C28.8243 30.9916 29.005 30.856 29.005 30.585C29.005 30.4721 28.9598 30.3592 28.8695 30.2688C28.7339 30.1559 28.5758 30.0881 28.3952 30.0881H27.6498V31.7143H27.8983V31.1045H28.3048L28.7791 31.7143H29.0727L28.5758 31.0593ZM27.8983 30.8786V30.314H28.3726C28.5984 30.314 28.7339 30.4269 28.7339 30.585C28.7339 30.7657 28.5758 30.8786 28.35 30.8786H27.8983ZM28.5758 31.0593C28.8243 30.9916 29.005 30.856 29.005 30.585C29.005 30.4721 28.9598 30.3592 28.8695 30.2688C28.7339 30.1559 28.5758 30.0881 28.3952 30.0881H27.6498V31.7143H27.8983V31.1045H28.3048L28.7791 31.7143H29.0727L28.5758 31.0593ZM27.8983 30.8786V30.314H28.3726C28.5984 30.314 28.7339 30.4269 28.7339 30.585C28.7339 30.7657 28.5758 30.8786 28.35 30.8786H27.8983ZM28.5758 31.0593C28.8243 30.9916 29.005 30.856 29.005 30.585C29.005 30.4721 28.9598 30.3592 28.8695 30.2688C28.7339 30.1559 28.5758 30.0881 28.3952 30.0881H27.6498V31.7143H27.8983V31.1045H28.3048L28.7791 31.7143H29.0727L28.5758 31.0593ZM27.8983 30.8786V30.314H28.3726C28.5984 30.314 28.7339 30.4269 28.7339 30.585C28.7339 30.7657 28.5758 30.8786 28.35 30.8786H27.8983ZM28.5758 31.0593C28.8243 30.9916 29.005 30.856 29.005 30.585C29.005 30.4721 28.9598 30.3592 28.8695 30.2688C28.7339 30.1559 28.5758 30.0881 28.3952 30.0881H27.6498V31.7143H27.8983V31.1045H28.3048L28.7791 31.7143H29.0727L28.5758 31.0593ZM27.8983 30.8786V30.314H28.3726C28.5984 30.314 28.7339 30.4269 28.7339 30.585C28.7339 30.7657 28.5758 30.8786 28.35 30.8786H27.8983ZM28.5758 31.0593C28.8243 30.9916 29.005 30.856 29.005 30.585C29.005 30.4721 28.9598 30.3592 28.8695 30.2688C28.7339 30.1559 28.5758 30.0881 28.3952 30.0881H27.6498V31.7143H27.8983V31.1045H28.3048L28.7791 31.7143H29.0727L28.5758 31.0593ZM27.8983 30.8786V30.314H28.3726C28.5984 30.314 28.7339 30.4269 28.7339 30.585C28.7339 30.7657 28.5758 30.8786 28.35 30.8786H27.8983ZM28.5758 31.0593C28.8243 30.9916 29.005 30.856 29.005 30.585C29.005 30.4721 28.9598 30.3592 28.8695 30.2688C28.7339 30.1559 28.5758 30.0881 28.3952 30.0881H27.6498V31.7143H27.8983V31.1045H28.3048L28.7791 31.7143H29.0727L28.5758 31.0593ZM27.8983 30.8786V30.314H28.3726C28.5984 30.314 28.7339 30.4269 28.7339 30.585C28.7339 30.7657 28.5758 30.8786 28.35 30.8786H27.8983ZM28.5758 31.0593C28.8243 30.9916 29.005 30.856 29.005 30.585C29.005 30.4721 28.9598 30.3592 28.8695 30.2688C28.7339 30.1559 28.5758 30.0881 28.3952 30.0881H27.6498V31.7143H27.8983V31.1045H28.3048L28.7791 31.7143H29.0727L28.5758 31.0593ZM27.8983 30.8786V30.314H28.3726C28.5984 30.314 28.7339 30.4269 28.7339 30.585C28.7339 30.7657 28.5758 30.8786 28.35 30.8786H27.8983ZM28.5758 31.0593C28.8243 30.9916 29.005 30.856 29.005 30.585C29.005 30.4721 28.9598 30.3592 28.8695 30.2688C28.7339 30.1559 28.5758 30.0881 28.3952 30.0881H27.6498V31.7143H27.8983V31.1045H28.3048L28.7791 31.7143H29.0727L28.5758 31.0593ZM27.8983 30.8786V30.314H28.3726C28.5984 30.314 28.7339 30.4269 28.7339 30.585C28.7339 30.7657 28.5758 30.8786 28.35 30.8786H27.8983ZM28.5758 31.0593C28.8243 30.9916 29.005 30.856 29.005 30.585C29.005 30.4721 28.9598 30.3592 28.8695 30.2688C28.7339 30.1559 28.5758 30.0881 28.3952 30.0881H27.6498V31.7143H27.8983V31.1045H28.3048L28.7791 31.7143H29.0727L28.5758 31.0593ZM27.8983 30.8786V30.314H28.3726C28.5984 30.314 28.7339 30.4269 28.7339 30.585C28.7339 30.7657 28.5758 30.8786 28.35 30.8786H27.8983ZM28.5758 31.0593C28.8243 30.9916 29.005 30.856 29.005 30.585C29.005 30.4721 28.9598 30.3592 28.8695 30.2688C28.7339 30.1559 28.5758 30.0881 28.3952 30.0881H27.6498V31.7143H27.8983V31.1045H28.3048L28.7791 31.7143H29.0727L28.5758 31.0593ZM27.8983 30.8786V30.314H28.3726C28.5984 30.314 28.7339 30.4269 28.7339 30.585C28.7339 30.7657 28.5758 30.8786 28.35 30.8786H27.8983ZM28.5758 31.0593C28.8243 30.9916 29.005 30.856 29.005 30.585C29.005 30.4721 28.9598 30.3592 28.8695 30.2688C28.7339 30.1559 28.5758 30.0881 28.3952 30.0881H27.6498V31.7143H27.8983V31.1045H28.3048L28.7791 31.7143H29.0727L28.5758 31.0593ZM27.8983 30.8786V30.314H28.3726C28.5984 30.314 28.7339 30.4269 28.7339 30.585C28.7339 30.7657 28.5758 30.8786 28.35 30.8786H27.8983ZM28.5758 31.0593C28.8243 30.9916 29.005 30.856 29.005 30.585C29.005 30.4721 28.9598 30.3592 28.8695 30.2688C28.7339 30.1559 28.5758 30.0881 28.3952 30.0881H27.6498V31.7143H27.8983V31.1045H28.3048L28.7791 31.7143H29.0727L28.5758 31.0593ZM27.8983 30.8786V30.314H28.3726C28.5984 30.314 28.7339 30.4269 28.7339 30.585C28.7339 30.7657 28.5758 30.8786 28.35 30.8786H27.8983ZM28.5758 31.0593C28.8243 30.9916 29.005 30.856 29.005 30.585C29.005 30.4721 28.9598 30.3592 28.8695 30.2688C28.7339 30.1559 28.5758 30.0881 28.3952 30.0881H27.6498V31.7143H27.8983V31.1045H28.3048L28.7791 31.7143H29.0727L28.5758 31.0593ZM27.8983 30.8786V30.314H28.3726C28.5984 30.314 28.7339 30.4269 28.7339 30.585C28.7339 30.7657 28.5758 30.8786 28.35 30.8786H27.8983ZM28.5758 31.0593C28.8243 30.9916 29.005 30.856 29.005 30.585C29.005 30.4721 28.9598 30.3592 28.8695 30.2688C28.7339 30.1559 28.5758 30.0881 28.3952 30.0881H27.6498V31.7143H27.8983V31.1045H28.3048L28.7791 31.7143H29.0727L28.5758 31.0593ZM27.8983 30.8786V30.314H28.3726C28.5984 30.314 28.7339 30.4269 28.7339 30.585C28.7339 30.7657 28.5758 30.8786 28.35 30.8786H27.8983ZM28.5758 31.0593C28.8243 30.9916 29.005 30.856 29.005 30.585C29.005 30.4721 28.9598 30.3592 28.8695 30.2688C28.7339 30.1559 28.5758 30.0881 28.3952 30.0881H27.6498V31.7143H27.8983V31.1045H28.3048L28.7791 31.7143H29.0727L28.5758 31.0593ZM27.8983 30.8786V30.314H28.3726C28.5984 30.314 28.7339 30.4269 28.7339 30.585C28.7339 30.7657 28.5758 30.8786 28.35 30.8786H27.8983ZM28.5758 31.0593C28.8243 30.9916 29.005 30.856 29.005 30.585C29.005 30.4721 28.9598 30.3592 28.8695 30.2688C28.7339 30.1559 28.5758 30.0881 28.3952 30.0881H27.6498V31.7143H27.8983V31.1045H28.3048L28.7791 31.7143H29.0727L28.5758 31.0593ZM27.8983 30.8786V30.314H28.3726C28.5984 30.314 28.7339 30.4269 28.7339 30.585C28.7339 30.7657 28.5758 30.8786 28.35 30.8786H27.8983ZM28.5758 31.0593C28.8243 30.9916 29.005 30.856 29.005 30.585C29.005 30.4721 28.9598 30.3592 28.8695 30.2688C28.7339 30.1559 28.5758 30.0881 28.3952 30.0881H27.6498V31.7143H27.8983V31.1045H28.3048L28.7791 31.7143H29.0727L28.5758 31.0593ZM27.8983 30.8786V30.314H28.3726C28.5984 30.314 28.7339 30.4269 28.7339 30.585C28.7339 30.7657 28.5758 30.8786 28.35 30.8786H27.8983ZM28.5758 31.0593C28.8243 30.9916 29.005 30.856 29.005 30.585C29.005 30.4721 28.9598 30.3592 28.8695 30.2688C28.7339 30.1559 28.5758 30.0881 28.3952 30.0881H27.6498V31.7143H27.8983V31.1045H28.3048L28.7791 31.7143H29.0727L28.5758 31.0593ZM27.8983 30.8786V30.314H28.3726C28.5984 30.314 28.7339 30.4269 28.7339 30.585C28.7339 30.7657 28.5758 30.8786 28.35 30.8786H27.8983ZM28.5758 31.0593C28.8243 30.9916 29.005 30.856 29.005 30.585C29.005 30.4721 28.9598 30.3592 28.8695 30.2688C28.7339 30.1559 28.5758 30.0881 28.3952 30.0881H27.6498V31.7143H27.8983V31.1045H28.3048L28.7791 31.7143H29.0727L28.5758 31.0593ZM27.8983 30.8786V30.314H28.3726C28.5984 30.314 28.7339 30.4269 28.7339 30.585C28.7339 30.7657 28.5758 30.8786 28.35 30.8786H27.8983ZM28.5758 31.0593C28.8243 30.9916 29.005 30.856 29.005 30.585C29.005 30.4721 28.9598 30.3592 28.8695 30.2688C28.7339 30.1559 28.5758 30.0881 28.3952 30.0881H27.6498V31.7143H27.8983V31.1045H28.3048L28.7791 31.7143H29.0727L28.5758 31.0593ZM27.8983 30.8786V30.314H28.3726C28.5984 30.314 28.7339 30.4269 28.7339 30.585C28.7339 30.7657 28.5758 30.8786 28.35 30.8786H27.8983ZM28.5758 31.0593C28.8243 30.9916 29.005 30.856 29.005 30.585C29.005 30.4721 28.9598 30.3592 28.8695 30.2688C28.7339 30.1559 28.5758 30.0881 28.3952 30.0881H27.6498V31.7143H27.8983V31.1045H28.3048L28.7791 31.7143H29.0727L28.5758 31.0593ZM27.8983 30.8786V30.314H28.3726C28.5984 30.314 28.7339 30.4269 28.7339 30.585C28.7339 30.7657 28.5758 30.8786 28.35 30.8786H27.8983ZM28.5758 31.0593C28.8243 30.9916 29.005 30.856 29.005 30.585C29.005 30.4721 28.9598 30.3592 28.8695 30.2688C28.7339 30.1559 28.5758 30.0881 28.3952 30.0881H27.6498V31.7143H27.8983V31.1045H28.3048L28.7791 31.7143H29.0727L28.5758 31.0593ZM27.8983 30.8786V30.314H28.3726C28.5984 30.314 28.7339 30.4269 28.7339 30.585C28.7339 30.7657 28.5758 30.8786 28.35 30.8786H27.8983ZM28.5758 31.0593C28.8243 30.9916 29.005 30.856 29.005 30.585C29.005 30.4721 28.9598 30.3592 28.8695 30.2688C28.7339 30.1559 28.5758 30.0881 28.3952 30.0881H27.6498V31.7143H27.8983V31.1045H28.3048L28.7791 31.7143H29.0727L28.5758 31.0593ZM27.8983 30.8786V30.314H28.3726C28.5984 30.314 28.7339 30.4269 28.7339 30.585C28.7339 30.7657 28.5758 30.8786 28.35 30.8786H27.8983ZM28.5758 31.0593C28.8243 30.9916 29.005 30.856 29.005 30.585C29.005 30.4721 28.9598 30.3592 28.8695 30.2688C28.7339 30.1559 28.5758 30.0881 28.3952 30.0881H27.6498V31.7143H27.8983V31.1045H28.3048L28.7791 31.7143H29.0727L28.5758 31.0593ZM27.8983 30.8786V30.314H28.3726C28.5984 30.314 28.7339 30.4269 28.7339 30.585C28.7339 30.7657 28.5758 30.8786 28.35 30.8786H27.8983ZM28.5758 31.0593C28.8243 30.9916 29.005 30.856 29.005 30.585C29.005 30.4721 28.9598 30.3592 28.8695 30.2688C28.7339 30.1559 28.5758 30.0881 28.3952 30.0881H27.6498V31.7143H27.8983V31.1045H28.3048L28.7791 31.7143H29.0727L28.5758 31.0593ZM27.8983 30.8786V30.314H28.3726C28.5984 30.314 28.7339 30.4269 28.7339 30.585C28.7339 30.7657 28.5758 30.8786 28.35 30.8786H27.8983ZM28.5758 31.0593C28.8243 30.9916 29.005 30.856 29.005 30.585C29.005 30.4721 28.9598 30.3592 28.8695 30.2688C28.7339 30.1559 28.5758 30.0881 28.3952 30.0881H27.6498V31.7143H27.8983V31.1045H28.3048L28.7791 31.7143H29.0727L28.5758 31.0593ZM27.8983 30.8786V30.314H28.3726C28.5984 30.314 28.7339 30.4269 28.7339 30.585C28.7339 30.7657 28.5758 30.8786 28.35 30.8786H27.8983ZM28.5758 31.0593C28.8243 30.9916 29.005 30.856 29.005 30.585C29.005 30.4721 28.9598 30.3592 28.8695 30.2688C28.7339 30.1559 28.5758 30.0881 28.3952 30.0881H27.6498V31.7143H27.8983V31.1045H28.3048L28.7791 31.7143H29.0727L28.5758 31.0593ZM27.8983 30.8786V30.314H28.3726C28.5984 30.314 28.7339 30.4269 28.7339 30.585C28.7339 30.7657 28.5758 30.8786 28.35 30.8786H27.8983ZM28.2822 29.3654C27.424 29.3654 26.7012 30.0881 26.7012 30.9464V30.969C26.7012 31.8272 27.424 32.55 28.2822 32.55C29.1405 32.55 29.8632 31.8272 29.8632 30.969V30.9464C29.8632 30.0655 29.1405 29.3654 28.2822 29.3654ZM29.7051 30.9464C29.7051 31.7369 29.0501 32.3919 28.2596 32.3919C27.4691 32.3919 26.8367 31.7369 26.8142 30.969V30.9464C26.8142 30.1559 27.4691 29.5009 28.2596 29.5009C29.0727 29.5009 29.7051 30.1333 29.7051 30.9464ZM29.005 30.585C29.005 30.4495 28.9598 30.3366 28.8695 30.2688C28.7339 30.1559 28.5758 30.0881 28.3952 30.0881H27.6498V31.7143H27.8983V31.1045H28.3048L28.7791 31.7143H29.0727L28.5758 31.0593C28.8243 30.9916 29.005 30.8335 29.005 30.585ZM27.8983 30.8786V30.314H28.3726C28.5984 30.314 28.7339 30.4269 28.7339 30.585C28.7339 30.7657 28.5758 30.8786 28.35 30.8786H27.8983ZM28.5758 31.0593C28.8243 30.9916 29.005 30.856 29.005 30.585C29.005 30.4721 28.9598 30.3592 28.8695 30.2688C28.7339 30.1559 28.5758 30.0881 28.3952 30.0881H27.6498V31.7143H27.8983V31.1045H28.3048L28.7791 31.7143H29.0727L28.5758 31.0593ZM27.8983 30.8786V30.314H28.3726C28.5984 30.314 28.7339 30.4269 28.7339 30.585C28.7339 30.7657 28.5758 30.8786 28.35 30.8786H27.8983ZM28.5758 31.0593C28.8243 30.9916 29.005 30.856 29.005 30.585C29.005 30.4721 28.9598 30.3592 28.8695 30.2688C28.7339 30.1559 28.5758 30.0881 28.3952 30.0881H27.6498V31.7143H27.8983V31.1045H28.3048L28.7791 31.7143H29.0727L28.5758 31.0593ZM27.8983 30.8786V30.314H28.3726C28.5984 30.314 28.7339 30.4269 28.7339 30.585C28.7339 30.7657 28.5758 30.8786 28.35 30.8786H27.8983ZM28.5758 31.0593C28.8243 30.9916 29.005 30.856 29.005 30.585C29.005 30.4721 28.9598 30.3592 28.8695 30.2688C28.7339 30.1559 28.5758 30.0881 28.3952 30.0881H27.6498V31.7143H27.8983V31.1045H28.3048L28.7791 31.7143H29.0727L28.5758 31.0593ZM27.8983 30.8786V30.314H28.3726C28.5984 30.314 28.7339 30.4269 28.7339 30.585C28.7339 30.7657 28.5758 30.8786 28.35 30.8786H27.8983ZM28.5758 31.0593C28.8243 30.9916 29.005 30.856 29.005 30.585C29.005 30.4721 28.9598 30.3592 28.8695 30.2688C28.7339 30.1559 28.5758 30.0881 28.3952 30.0881H27.6498V31.7143H27.8983V31.1045H28.3048L28.7791 31.7143H29.0727L28.5758 31.0593ZM27.8983 30.8786V30.314H28.3726C28.5984 30.314 28.7339 30.4269 28.7339 30.585C28.7339 30.7657 28.5758 30.8786 28.35 30.8786H27.8983ZM28.5758 31.0593C28.8243 30.9916 29.005 30.856 29.005 30.585C29.005 30.4721 28.9598 30.3592 28.8695 30.2688C28.7339 30.1559 28.5758 30.0881 28.3952 30.0881H27.6498V31.7143H27.8983V31.1045H28.3048L28.7791 31.7143H29.0727L28.5758 31.0593ZM27.8983 30.8786V30.314H28.3726C28.5984 30.314 28.7339 30.4269 28.7339 30.585C28.7339 30.7657 28.5758 30.8786 28.35 30.8786H27.8983ZM28.5758 31.0593C28.8243 30.9916 29.005 30.856 29.005 30.585C29.005 30.4721 28.9598 30.3592 28.8695 30.2688C28.7339 30.1559 28.5758 30.0881 28.3952 30.0881H27.6498V31.7143H27.8983V31.1045H28.3048L28.7791 31.7143H29.0727L28.5758 31.0593ZM27.8983 30.8786V30.314H28.3726C28.5984 30.314 28.7339 30.4269 28.7339 30.585C28.7339 30.7657 28.5758 30.8786 28.35 30.8786H27.8983ZM28.5758 31.0593C28.8243 30.9916 29.005 30.856 29.005 30.585C29.005 30.4721 28.9598 30.3592 28.8695 30.2688C28.7339 30.1559 28.5758 30.0881 28.3952 30.0881H27.6498V31.7143H27.8983V31.1045H28.3048L28.7791 31.7143H29.0727L28.5758 31.0593ZM27.8983 30.8786V30.314H28.3726C28.5984 30.314 28.7339 30.4269 28.7339 30.585C28.7339 30.7657 28.5758 30.8786 28.35 30.8786H27.8983ZM28.5758 31.0593C28.8243 30.9916 29.005 30.856 29.005 30.585C29.005 30.4721 28.9598 30.3592 28.8695 30.2688C28.7339 30.1559 28.5758 30.0881 28.3952 30.0881H27.6498V31.7143H27.8983V31.1045H28.3048L28.7791 31.7143H29.0727L28.5758 31.0593ZM27.8983 30.8786V30.314H28.3726C28.5984 30.314 28.7339 30.4269 28.7339 30.585C28.7339 30.7657 28.5758 30.8786 28.35 30.8786H27.8983ZM28.5758 31.0593C28.8243 30.9916 29.005 30.856 29.005 30.585C29.005 30.4721 28.9598 30.3592 28.8695 30.2688C28.7339 30.1559 28.5758 30.0881 28.3952 30.0881H27.6498V31.7143H27.8983V31.1045H28.3048L28.7791 31.7143H29.0727L28.5758 31.0593ZM27.8983 30.8786V30.314H28.3726C28.5984 30.314 28.7339 30.4269 28.7339 30.585C28.7339 30.7657 28.5758 30.8786 28.35 30.8786H27.8983ZM28.5758 31.0593C28.8243 30.9916 29.005 30.856 29.005 30.585C29.005 30.4721 28.9598 30.3592 28.8695 30.2688C28.7339 30.1559 28.5758 30.0881 28.3952 30.0881H27.6498V31.7143H27.8983V31.1045H28.3048L28.7791 31.7143H29.0727L28.5758 31.0593ZM27.8983 30.8786V30.314H28.3726C28.5984 30.314 28.7339 30.4269 28.7339 30.585C28.7339 30.7657 28.5758 30.8786 28.35 30.8786H27.8983ZM28.5758 31.0593C28.8243 30.9916 29.005 30.856 29.005 30.585C29.005 30.4721 28.9598 30.3592 28.8695 30.2688C28.7339 30.1559 28.5758 30.0881 28.3952 30.0881H27.6498V31.7143H27.8983V31.1045H28.3048L28.7791 31.7143H29.0727L28.5758 31.0593ZM27.8983 30.8786V30.314H28.3726C28.5984 30.314 28.7339 30.4269 28.7339 30.585C28.7339 30.7657 28.5758 30.8786 28.35 30.8786H27.8983ZM28.5758 31.0593C28.8243 30.9916 29.005 30.856 29.005 30.585C29.005 30.4721 28.9598 30.3592 28.8695 30.2688C28.7339 30.1559 28.5758 30.0881 28.3952 30.0881H27.6498V31.7143H27.8983V31.1045H28.3048L28.7791 31.7143H29.0727L28.5758 31.0593ZM27.8983 30.8786V30.314H28.3726C28.5984 30.314 28.7339 30.4269 28.7339 30.585C28.7339 30.7657 28.5758 30.8786 28.35 30.8786H27.8983ZM28.5758 31.0593C28.8243 30.9916 29.005 30.856 29.005 30.585C29.005 30.4721 28.9598 30.3592 28.8695 30.2688C28.7339 30.1559 28.5758 30.0881 28.3952 30.0881H27.6498V31.7143H27.8983V31.1045H28.3048L28.7791 31.7143H29.0727L28.5758 31.0593ZM27.8983 30.8786V30.314H28.3726C28.5984 30.314 28.7339 30.4269 28.7339 30.585C28.7339 30.7657 28.5758 30.8786 28.35 30.8786H27.8983ZM28.5758 31.0593C28.8243 30.9916 29.005 30.856 29.005 30.585C29.005 30.4721 28.9598 30.3592 28.8695 30.2688C28.7339 30.1559 28.5758 30.0881 28.3952 30.0881H27.6498V31.7143H27.8983V31.1045H28.3048L28.7791 31.7143H29.0727L28.5758 31.0593ZM27.8983 30.8786V30.314H28.3726C28.5984 30.314 28.7339 30.4269 28.7339 30.585C28.7339 30.7657 28.5758 30.8786 28.35 30.8786H27.8983ZM28.5758 31.0593C28.8243 30.9916 29.005 30.856 29.005 30.585C29.005 30.4721 28.9598 30.3592 28.8695 30.2688C28.7339 30.1559 28.5758 30.0881 28.3952 30.0881H27.6498V31.7143H27.8983V31.1045H28.3048L28.7791 31.7143H29.0727L28.5758 31.0593ZM27.8983 30.8786V30.314H28.3726C28.5984 30.314 28.7339 30.4269 28.7339 30.585C28.7339 30.7657 28.5758 30.8786 28.35 30.8786H27.8983ZM28.5758 31.0593C28.8243 30.9916 29.005 30.856 29.005 30.585C29.005 30.4721 28.9598 30.3592 28.8695 30.2688C28.7339 30.1559 28.5758 30.0881 28.3952 30.0881H27.6498V31.7143H27.8983V31.1045H28.3048L28.7791 31.7143H29.0727L28.5758 31.0593ZM27.8983 30.8786V30.314H28.3726C28.5984 30.314 28.7339 30.4269 28.7339 30.585C28.7339 30.7657 28.5758 30.8786 28.35 30.8786H27.8983ZM28.5758 31.0593C28.8243 30.9916 29.005 30.856 29.005 30.585C29.005 30.4721 28.9598 30.3592 28.8695 30.2688C28.7339 30.1559 28.5758 30.0881 28.3952 30.0881H27.6498V31.7143H27.8983V31.1045H28.3048L28.7791 31.7143H29.0727L28.5758 31.0593ZM27.8983 30.8786V30.314H28.3726C28.5984 30.314 28.7339 30.4269 28.7339 30.585C28.7339 30.7657 28.5758 30.8786 28.35 30.8786H27.8983ZM28.5758 31.0593C28.8243 30.9916 29.005 30.856 29.005 30.585C29.005 30.4721 28.9598 30.3592 28.8695 30.2688C28.7339 30.1559 28.5758 30.0881 28.3952 30.0881H27.6498V31.7143H27.8983V31.1045H28.3048L28.7791 31.7143H29.0727L28.5758 31.0593ZM27.8983 30.8786V30.314H28.3726C28.5984 30.314 28.7339 30.4269 28.7339 30.585C28.7339 30.7657 28.5758 30.8786 28.35 30.8786H27.8983ZM28.5758 31.0593C28.8243 30.9916 29.005 30.856 29.005 30.585C29.005 30.4721 28.9598 30.3592 28.8695 30.2688C28.7339 30.1559 28.5758 30.0881 28.3952 30.0881H27.6498V31.7143H27.8983V31.1045H28.3048L28.7791 31.7143H29.0727L28.5758 31.0593ZM27.8983 30.8786V30.314H28.3726C28.5984 30.314 28.7339 30.4269 28.7339 30.585C28.7339 30.7657 28.5758 30.8786 28.35 30.8786H27.8983ZM28.5758 31.0593C28.8243 30.9916 29.005 30.856 29.005 30.585C29.005 30.4721 28.9598 30.3592 28.8695 30.2688C28.7339 30.1559 28.5758 30.0881 28.3952 30.0881H27.6498V31.7143H27.8983V31.1045H28.3048L28.7791 31.7143H29.0727L28.5758 31.0593ZM27.8983 30.8786V30.314H28.3726C28.5984 30.314 28.7339 30.4269 28.7339 30.585C28.7339 30.7657 28.5758 30.8786 28.35 30.8786H27.8983ZM28.5758 31.0593C28.8243 30.9916 29.005 30.856 29.005 30.585C29.005 30.4721 28.9598 30.3592 28.8695 30.2688C28.7339 30.1559 28.5758 30.0881 28.3952 30.0881H27.6498V31.7143H27.8983V31.1045H28.3048L28.7791 31.7143H29.0727L28.5758 31.0593ZM27.8983 30.8786V30.314H28.3726C28.5984 30.314 28.7339 30.4269 28.7339 30.585C28.7339 30.7657 28.5758 30.8786 28.35 30.8786H27.8983ZM28.5758 31.0593C28.8243 30.9916 29.005 30.856 29.005 30.585C29.005 30.4721 28.9598 30.3592 28.8695 30.2688C28.7339 30.1559 28.5758 30.0881 28.3952 30.0881H27.6498V31.7143H27.8983V31.1045H28.3048L28.7791 31.7143H29.0727L28.5758 31.0593ZM27.8983 30.8786V30.314H28.3726C28.5984 30.314 28.7339 30.4269 28.7339 30.585C28.7339 30.7657 28.5758 30.8786 28.35 30.8786H27.8983ZM28.5758 31.0593C28.8243 30.9916 29.005 30.856 29.005 30.585C29.005 30.4721 28.9598 30.3592 28.8695 30.2688C28.7339 30.1559 28.5758 30.0881 28.3952 30.0881H27.6498V31.7143H27.8983V31.1045H28.3048L28.7791 31.7143H29.0727L28.5758 31.0593ZM27.8983 30.8786V30.314H28.3726C28.5984 30.314 28.7339 30.4269 28.7339 30.585C28.7339 30.7657 28.5758 30.8786 28.35 30.8786H27.8983ZM28.5758 31.0593C28.8243 30.9916 29.005 30.856 29.005 30.585C29.005 30.4721 28.9598 30.3592 28.8695 30.2688C28.7339 30.1559 28.5758 30.0881 28.3952 30.0881H27.6498V31.7143H27.8983V31.1045H28.3048L28.7791 31.7143H29.0727L28.5758 31.0593ZM27.8983 30.8786V30.314H28.3726C28.5984 30.314 28.7339 30.4269 28.7339 30.585C28.7339 30.7657 28.5758 30.8786 28.35 30.8786H27.8983ZM28.5758 31.0593C28.8243 30.9916 29.005 30.856 29.005 30.585C29.005 30.4721 28.9598 30.3592 28.8695 30.2688C28.7339 30.1559 28.5758 30.0881 28.3952 30.0881H27.6498V31.7143H27.8983V31.1045H28.3048L28.7791 31.7143H29.0727L28.5758 31.0593ZM27.8983 30.8786V30.314H28.3726C28.5984 30.314 28.7339 30.4269 28.7339 30.585C28.7339 30.7657 28.5758 30.8786 28.35 30.8786H27.8983ZM28.5758 31.0593C28.8243 30.9916 29.005 30.856 29.005 30.585C29.005 30.4721 28.9598 30.3592 28.8695 30.2688C28.7339 30.1559 28.5758 30.0881 28.3952 30.0881H27.6498V31.7143H27.8983V31.1045H28.3048L28.7791 31.7143H29.0727L28.5758 31.0593ZM27.8983 30.8786V30.314H28.3726C28.5984 30.314 28.7339 30.4269 28.7339 30.585C28.7339 30.7657 28.5758 30.8786 28.35 30.8786H27.8983ZM25.7978 30.4269C25.6623 29.5235 25.3009 29.3202 24.5782 29.004C25.1202 28.6878 25.459 28.2135 25.459 27.5585C25.459 26.2712 24.3975 25.7517 23.2456 25.7517H20.0385V32.6177H23.2456C24.6008 32.5951 26.0463 31.9853 25.7978 30.4269ZM21.5065 27.0391H23.1779C24.2168 27.0391 24.262 28.5071 23.2456 28.5071H21.5065V27.0391ZM23.3586 31.2852H21.484V29.7268H23.3586C24.7363 29.7268 24.6459 31.2852 23.3586 31.2852ZM19.4061 30.4269C19.2706 29.5235 18.9092 29.3202 18.1865 28.9814C18.7285 28.6652 19.0673 28.1909 19.0673 27.536C19.0673 26.2486 18.0058 25.7291 16.8539 25.7291H13.6242V32.5951H16.8313C18.1865 32.5951 19.6319 31.9853 19.4061 30.4269ZM15.0922 27.0391H16.7636C17.8025 27.0391 17.8477 28.5071 16.8313 28.5071H15.0922V27.0391ZM16.9668 31.2852H15.0922V29.7268H16.9668C18.322 29.7268 18.2542 31.2852 16.9668 31.2852ZM13.0143 30.4269C12.8788 29.5235 12.5175 29.3202 11.7947 28.9814C12.3368 28.6652 12.6756 28.1909 12.6756 27.536C12.6756 26.2486 11.614 25.7291 10.4622 25.7291H7.23242V32.5951H10.4396C11.7947 32.5951 13.2402 31.9853 13.0143 30.4269ZM8.6779 27.0391H10.3492C11.3882 27.0391 11.4333 28.5071 10.417 28.5071H8.6779V27.0391ZM10.5525 31.2852H8.6779V29.7268H10.5525C11.9302 29.7268 11.8399 31.2852 10.5525 31.2852Z" fill="black"/>
</svg>
