<svg width="34" height="30" viewBox="0 0 34 30" fill="none" xmlns="http://www.w3.org/2000/svg">
<g opacity="0.34">
<path d="M14.2409 29.7122C9.4839 24.7987 4.7504 19.9093 0 15.0024L3.6488 12.0307L11.8747 18.58C18.0139 11.3291 25.0174 5.0767 33.0743 0C33.1075 0.065 33.1364 0.114603 33.159 0.167103C33.4006 0.732003 33.6374 1.2989 33.8862 1.8605C33.9449 1.9929 33.9304 2.068 33.825 2.1729C32.5777 3.4236 31.3125 4.658 30.0993 5.942C28.0516 8.1081 26.1651 10.4132 24.3658 12.7887C21.4576 16.6266 18.806 20.6325 16.5215 24.8752C15.6822 26.4335 14.906 28.0216 14.2409 29.7122Z" fill="black"/>
</g>
</svg>
