<svg width="110" height="22" viewBox="0 0 110 22" fill="none" xmlns="http://www.w3.org/2000/svg">
<g clip-path="url(#clip0_2062_5880)">
<path d="M34.9035 9.2056V7.73264H32.61V16.4931H34.9035V11.2404C34.9035 10.2892 35.524 9.82163 36.4902 9.82163H37.7463V7.73264H36.6742C35.8342 7.73264 35.1044 8.16377 34.9035 9.2056ZM39.8957 4.26758C39.1108 4.26758 38.509 4.87738 38.509 5.64987C38.509 6.40457 39.1108 7.01438 39.8957 7.01438C40.6807 7.01438 41.2825 6.40457 41.2825 5.64987C41.2825 4.87738 40.6807 4.26758 39.8957 4.26758ZM38.7508 16.494H41.0407V7.73264H38.7517L38.7508 16.494ZM51.9461 12.1133C51.9461 14.6139 49.8855 16.6415 47.3432 16.6415C46.3174 16.6415 45.3876 16.3109 44.6417 15.7526V19.0657H42.3527V7.73264H44.6417V8.47401C45.3884 7.91576 46.3183 7.58507 47.3441 7.58507C49.8855 7.58507 51.9461 9.61184 51.9461 12.1133ZM49.642 12.1133C49.642 10.755 48.5219 9.65362 47.1423 9.65362C45.7618 9.65362 44.6417 10.7559 44.6417 12.1133C44.6417 13.4707 45.7618 14.573 47.1423 14.573C48.5219 14.573 49.642 13.4725 49.642 12.1133ZM91.7356 11.3444L90.4004 10.9844C89.5213 10.7586 89.1799 10.4937 89.1799 10.0368C89.1799 9.59228 89.6608 9.28027 90.3489 9.28027C91.0049 9.28027 91.5187 9.70251 91.5187 10.243V10.2928H93.629V10.243C93.629 8.65268 92.3116 7.58507 90.3489 7.58507C88.4066 7.58507 86.9949 8.65179 86.9949 10.123C86.9949 11.2671 87.7656 12.1302 89.1106 12.4876L90.3898 12.8316C91.3614 13.0965 91.7232 13.3898 91.7232 13.9161C91.7232 14.4717 91.2005 14.845 90.4235 14.845C89.6137 14.845 89.0688 14.3401 89.0688 13.5916V13.541H86.8287V13.5907C86.8287 15.3882 88.299 16.6442 90.4058 16.6442C92.4343 16.6442 93.9073 15.4175 93.9073 13.7285C93.9073 12.9 93.5304 11.8155 91.7356 11.3444ZM60.0674 7.73264H62.3564V16.4931H60.0674V15.7517C59.2873 16.3343 58.3386 16.6467 57.365 16.6415C54.8236 16.6415 52.763 14.6148 52.763 12.1133C52.763 9.61184 54.8236 7.58507 57.3659 7.58507C58.3909 7.58507 59.3216 7.91576 60.0674 8.47401V7.73264ZM60.0674 12.1133C60.0674 10.7533 58.9473 9.65362 57.5668 9.65362C56.1872 9.65362 55.0671 10.7559 55.0671 12.1133C55.0671 13.4707 56.1872 14.573 57.5668 14.573C58.9482 14.573 60.0674 13.4725 60.0674 12.1133ZM70.6226 4.61515H72.9125V16.4949H70.6226V15.7535C69.8776 16.3118 68.9469 16.6424 67.9211 16.6424C65.3796 16.6424 63.3191 14.6157 63.3191 12.1142C63.3191 9.61362 65.3796 7.58596 67.9211 7.58596C68.9469 7.58596 69.8768 7.91665 70.6235 8.4749L70.6226 4.61515ZM70.6226 12.1133C70.6226 10.755 69.5025 9.65362 68.1229 9.65362C66.7424 9.65362 65.6232 10.7559 65.6232 12.1133C65.6232 13.4707 66.7415 14.573 68.1229 14.573C69.5034 14.573 70.6226 13.4725 70.6226 12.1133ZM83.5414 16.494H85.8304V7.73264H83.5414V16.494ZM84.6864 4.26758C83.9014 4.26758 83.2996 4.87738 83.2996 5.64987C83.2996 6.40457 83.9014 7.01438 84.6864 7.01438C85.4713 7.01438 86.0731 6.40457 86.0731 5.64987C86.0731 4.87738 85.4713 4.26758 84.6864 4.26758ZM103.803 12.1133C103.803 14.6139 101.743 16.6415 99.2009 16.6415C96.6585 16.6415 94.598 14.6148 94.598 12.1133C94.598 9.61184 96.6585 7.58507 99.2009 7.58507C101.743 7.58507 103.803 9.61184 103.803 12.1133ZM101.701 12.1133C101.701 10.755 100.581 9.65362 99.2009 9.65362C97.8204 9.65362 96.7003 10.7559 96.7003 12.1133C96.7003 13.4707 97.8195 14.573 99.2009 14.573C100.581 14.573 101.701 13.4725 101.701 12.1133ZM33.7319 4.61426H24.9492V6.62325H28.2009V16.4922H30.4819V6.62414H33.7328V4.61515L33.7319 4.61426ZM78.1429 14.093L76.1073 7.73175H73.7027L76.7571 16.4931H79.5128L82.5849 7.73175H80.1813L78.1447 14.093H78.1429ZM107.157 9.20382V7.73175H104.863V16.4922H107.157V11.2395C107.157 10.2883 107.778 9.82074 108.744 9.82074H110V7.73175H108.927C108.087 7.73175 107.359 8.16199 107.157 9.20382Z" fill="#222222"/>
<path d="M10.6672 21.3344C16.5582 21.3344 21.3344 16.5582 21.3344 10.6672C21.3344 4.77624 16.5582 0 10.6672 0C4.77624 0 0 4.77624 0 10.6672C0 16.5582 4.77624 21.3344 10.6672 21.3344Z" fill="#34E0A1"/>
<path d="M17.8065 8.30172L19.2012 6.78965H16.1077C14.5036 5.69783 12.607 5.11623 10.6666 5.12112C8.64602 5.12112 6.78104 5.73626 5.23519 6.78965H2.13281L3.52844 8.30172C3.08983 8.69888 2.73934 9.18355 2.49957 9.72449C2.2598 10.2655 2.13607 10.8507 2.13637 11.4424C2.13637 13.7892 4.04579 15.6915 6.40058 15.6915C7.47482 15.693 8.50997 15.2885 9.2985 14.559L10.6666 16.0417L12.0328 14.5599C12.7938 15.263 13.8107 15.6915 14.9299 15.6915C17.2847 15.6915 19.1968 13.7892 19.1968 11.4424C19.1979 10.8507 19.0747 10.2654 18.8352 9.72434C18.5957 9.18332 18.2452 8.69865 17.8065 8.30172ZM6.40235 14.3181C6.02405 14.3188 5.64932 14.2449 5.29956 14.1008C4.9498 13.9566 4.63186 13.745 4.36391 13.478C4.09596 13.2109 3.88324 12.8937 3.7379 12.5444C3.59257 12.1952 3.51746 11.8207 3.51688 11.4424C3.51746 11.0641 3.59257 10.6896 3.7379 10.3403C3.88324 9.991 4.09596 9.67378 4.36391 9.40674C4.63186 9.13969 4.9498 8.92805 5.29956 8.7839C5.64932 8.63975 6.02405 8.56592 6.40235 8.56662C6.78066 8.56592 7.15539 8.63975 7.50515 8.7839C7.85491 8.92805 8.17285 9.13969 8.4408 9.40674C8.70875 9.67378 8.92147 9.991 9.06681 10.3403C9.21214 10.6896 9.28725 11.0641 9.28783 11.4424C9.28725 11.8207 9.21214 12.1952 9.06681 12.5444C8.92147 12.8937 8.70875 13.2109 8.4408 13.478C8.17285 13.745 7.85491 13.9566 7.50515 14.1008C7.15539 14.2449 6.78066 14.3188 6.40235 14.3181ZM10.6674 11.3588C10.6674 9.46711 9.28694 7.84214 7.46463 7.14878C8.47912 6.72589 9.56747 6.50864 10.6666 6.50963C11.8017 6.50963 12.8836 6.73809 13.8694 7.14878C12.048 7.84392 10.6674 9.46711 10.6674 11.3588ZM14.9308 14.319C14.5524 14.3197 14.1776 14.2458 13.8278 14.1016C13.4779 13.9574 13.16 13.7457 12.892 13.4785C12.624 13.2114 12.4113 12.8941 12.2661 12.5447C12.1208 12.1953 12.0458 11.8207 12.0453 11.4424C12.0459 11.0641 12.121 10.6896 12.2663 10.3403C12.4116 9.991 12.6244 9.67378 12.8923 9.40674C13.1603 9.13969 13.4782 8.92805 13.828 8.7839C14.1777 8.63975 14.5525 8.56592 14.9308 8.56662C15.3091 8.56592 15.6838 8.63975 16.0336 8.7839C16.3833 8.92805 16.7013 9.13969 16.9692 9.40674C17.2372 9.67378 17.4499 9.991 17.5952 10.3403C17.7406 10.6896 17.8157 11.0641 17.8162 11.4424C17.8157 11.8207 17.7406 12.1952 17.5952 12.5444C17.4499 12.8937 17.2372 13.2109 16.9692 13.478C16.7013 13.745 16.3833 13.9566 16.0336 14.1008C15.6838 14.2449 15.3091 14.3197 14.9308 14.319ZM14.9308 9.9338C14.0952 9.9338 13.4187 10.6086 13.4187 11.4415C13.4187 12.2744 14.0952 12.9491 14.9308 12.9491C15.3312 12.9496 15.7155 12.7911 15.9992 12.5084C16.2829 12.2257 16.4428 11.842 16.4437 11.4415C16.4428 11.041 16.2829 10.6573 15.9992 10.3746C15.7155 10.0919 15.3312 9.93333 14.9308 9.9338ZM7.91532 11.4424C7.91532 12.2753 7.23795 12.95 6.40235 12.95C5.56676 12.95 4.89028 12.2753 4.89028 11.4424C4.89028 10.6103 5.56676 9.93558 6.40235 9.93558C6.60068 9.93499 6.79717 9.97352 6.98059 10.049C7.16401 10.1244 7.33076 10.2353 7.47128 10.3753C7.61181 10.5152 7.72336 10.6815 7.79955 10.8646C7.87575 11.0477 7.91509 11.244 7.91532 11.4424Z" fill="#222222"/>
</g>
<defs>
<clipPath id="clip0_2062_5880">
<rect width="110" height="22" fill="white"/>
</clipPath>
</defs>
</svg>
