<svg width="20" height="20" viewBox="0 0 20 20" fill="none" xmlns="http://www.w3.org/2000/svg">
<mask id="mask0_2062_9621" style="mask-type:alpha" maskUnits="userSpaceOnUse" x="0" y="0" width="20" height="20">
<rect width="20" height="20" fill="#D9D9D9"/>
</mask>
<g mask="url(#mask0_2062_9621)">
<path d="M8.83333 13.3747L14.7083 7.49967L13.5417 6.33301L8.83333 11.0413L6.45833 8.66634L5.29167 9.83301L8.83333 13.3747ZM4.16667 17.4997C3.70833 17.4997 3.31597 17.3365 2.98958 17.0101C2.66319 16.6837 2.5 16.2913 2.5 15.833V4.16634C2.5 3.70801 2.66319 3.31565 2.98958 2.98926C3.31597 2.66287 3.70833 2.49967 4.16667 2.49967H7.66667C7.84722 1.99967 8.14931 1.5969 8.57292 1.29134C8.99653 0.985786 9.47222 0.833008 10 0.833008C10.5278 0.833008 11.0035 0.985786 11.4271 1.29134C11.8507 1.5969 12.1528 1.99967 12.3333 2.49967H15.8333C16.2917 2.49967 16.684 2.66287 17.0104 2.98926C17.3368 3.31565 17.5 3.70801 17.5 4.16634V15.833C17.5 16.2913 17.3368 16.6837 17.0104 17.0101C16.684 17.3365 16.2917 17.4997 15.8333 17.4997H4.16667ZM4.16667 15.833H15.8333V4.16634H4.16667V15.833ZM10 3.54134C10.1806 3.54134 10.3299 3.48231 10.4479 3.36426C10.566 3.2462 10.625 3.0969 10.625 2.91634C10.625 2.73579 10.566 2.58648 10.4479 2.46842C10.3299 2.35037 10.1806 2.29134 10 2.29134C9.81944 2.29134 9.67014 2.35037 9.55208 2.46842C9.43403 2.58648 9.375 2.73579 9.375 2.91634C9.375 3.0969 9.43403 3.2462 9.55208 3.36426C9.67014 3.48231 9.81944 3.54134 10 3.54134Z" fill="#2A323B"/>
</g>
</svg>
