<svg width="20" height="20" viewBox="0 0 20 20" fill="none" xmlns="http://www.w3.org/2000/svg">
<mask id="mask0_2062_9639" style="mask-type:alpha" maskUnits="userSpaceOnUse" x="0" y="0" width="20" height="20">
<rect width="20" height="20" fill="#D9D9D9"/>
</mask>
<g mask="url(#mask0_2062_9639)">
<path d="M10.0846 18.3337C8.91797 18.3337 7.82422 18.1114 6.80339 17.667C5.78255 17.2225 4.89366 16.6219 4.13672 15.8649C3.37977 15.108 2.77908 14.2191 2.33464 13.1982C1.89019 12.1774 1.66797 11.0837 1.66797 9.91699C1.66797 7.88921 2.3138 6.10102 3.60547 4.55241C4.89714 3.0038 6.54297 2.04199 8.54297 1.66699C8.29297 3.04199 8.36936 4.38574 8.77214 5.69824C9.17491 7.01074 9.86936 8.16005 10.8555 9.14616C11.8416 10.1323 12.9909 10.8267 14.3034 11.2295C15.6159 11.6323 16.9596 11.7087 18.3346 11.4587C17.9735 13.4587 17.0152 15.1045 15.4596 16.3962C13.9041 17.6878 12.1124 18.3337 10.0846 18.3337ZM10.0846 16.667C11.3069 16.667 12.4388 16.3614 13.4805 15.7503C14.5221 15.1392 15.3416 14.2989 15.9388 13.2295C14.7444 13.1184 13.6124 12.8163 12.543 12.3232C11.4735 11.8302 10.5152 11.16 9.66797 10.3128C8.82075 9.4656 8.14714 8.50727 7.64714 7.43783C7.14714 6.36838 6.84852 5.23644 6.7513 4.04199C5.68186 4.63921 4.84505 5.46213 4.24089 6.51074C3.63672 7.55935 3.33464 8.69477 3.33464 9.91699C3.33464 11.792 3.99089 13.3857 5.30339 14.6982C6.61589 16.0107 8.20964 16.667 10.0846 16.667Z" fill="#2A323B"/>
</g>
</svg>
