<svg width="20" height="20" viewBox="0 0 20 20" fill="none" xmlns="http://www.w3.org/2000/svg">
<mask id="mask0_2062_9663" style="mask-type:alpha" maskUnits="userSpaceOnUse" x="0" y="0" width="20" height="20">
<rect width="20" height="20" fill="#D9D9D9"/>
</mask>
<g mask="url(#mask0_2062_9663)">
<path d="M3.33464 6.66634H16.668V4.99967H3.33464V6.66634ZM1.66797 4.99967C1.66797 4.54134 1.83116 4.14898 2.15755 3.82259C2.48394 3.4962 2.8763 3.33301 3.33464 3.33301H16.668C17.1263 3.33301 17.5187 3.4962 17.8451 3.82259C18.1714 4.14898 18.3346 4.54134 18.3346 4.99967V9.99967H3.33464V14.9997H6.7513V16.6663H3.33464C2.8763 16.6663 2.48394 16.5031 2.15755 16.1768C1.83116 15.8504 1.66797 15.458 1.66797 14.9997V4.99967ZM12.4596 18.333L8.91797 14.7913L10.0846 13.6247L12.4596 15.958L17.168 11.2497L18.3346 12.458L12.4596 18.333ZM3.33464 4.99967V14.9997V11.2497V13.6038V4.99967Z" fill="#2A323B"/>
</g>
</svg>
