<svg width="96" height="36" viewBox="0 0 96 36" fill="none" xmlns="http://www.w3.org/2000/svg">
<path fill-rule="evenodd" clip-rule="evenodd" d="M13.0148 30.4276C12.8793 29.5241 12.5179 29.3209 11.7952 28.9821C12.3373 28.6659 12.676 28.1916 12.676 27.5366C12.676 26.2492 11.6145 25.7297 10.4627 25.7297H7.23291V32.5958H10.4401C11.7952 32.5958 13.2407 31.986 13.0148 30.4276ZM8.67839 27.0397H10.3497C11.3887 27.0397 11.4338 28.5078 10.4175 28.5078H8.67839V27.0397ZM10.553 31.2858H8.67839V29.7274H10.553C11.9307 29.7274 11.8404 31.2858 10.553 31.2858Z" fill="black"/>
<path fill-rule="evenodd" clip-rule="evenodd" d="M12.5858 13.5334L14.099 11.4556L14.5056 11.7492C14.3249 12.1331 14.3475 12.4719 14.6863 12.7204L17.5095 14.7757C18.8194 15.7243 18.8872 17.373 18.0063 18.5926L16.5834 20.5576L16.1769 20.264C16.4028 19.9026 16.3576 19.5638 15.8833 19.2025L13.0827 17.1923C12.0663 16.447 11.8405 14.595 12.5858 13.5334Z" fill="black"/>
<path fill-rule="evenodd" clip-rule="evenodd" d="M19.4064 30.4276C19.2709 29.5241 18.9095 29.3209 18.1868 28.9821C18.7289 28.6659 19.0676 28.1916 19.0676 27.5366C19.0676 26.2492 18.0061 25.7297 16.8543 25.7297H13.6245V32.5958H16.8317C18.1868 32.5958 19.6323 31.986 19.4064 30.4276ZM15.0926 27.0397H16.7639C17.8029 27.0397 17.848 28.5078 16.8317 28.5078H15.0926V27.0397ZM16.9672 31.2858H15.0926V29.7274H16.9672C18.3223 29.7274 18.2546 31.2858 16.9672 31.2858Z" fill="black"/>
<path fill-rule="evenodd" clip-rule="evenodd" d="M14.1665 5.51552L16.5154 2.26318L16.8767 2.51163C16.4024 3.1892 16.6735 3.91194 17.2607 4.31848L21.3939 7.32238C23.2685 8.67752 23.3362 11.1845 22.1392 12.8559L19.4741 16.6051L19.1353 16.3567C19.6999 15.6113 19.6096 14.1433 18.8191 13.556L14.957 10.7102C13.4663 9.6487 13.0598 7.02876 14.1665 5.51552Z" fill="black"/>
<path fill-rule="evenodd" clip-rule="evenodd" d="M13.444 22.658H10.3271L10.7337 21.2803H22.3653L22.7718 22.658H19.655L19.0904 24.5552H14.0086L13.444 22.658Z" fill="black"/>
<path fill-rule="evenodd" clip-rule="evenodd" d="M25.7984 30.4274C25.6629 29.524 25.3015 29.3207 24.5788 29.0045C25.1208 28.6883 25.4596 28.214 25.4596 27.5591C25.4596 26.2717 24.3981 25.7522 23.2462 25.7522H20.0391V32.6182H23.2462C24.6014 32.5957 26.0468 31.9858 25.7984 30.4274ZM21.5071 27.0396H23.1785C24.2174 27.0396 24.2626 28.5077 23.2462 28.5077H21.5071V27.0396ZM23.3591 31.2857H21.4845V29.7273H23.3591C24.7369 29.7273 24.6465 31.2857 23.3591 31.2857Z" fill="black"/>
<path fill-rule="evenodd" clip-rule="evenodd" d="M28.5764 31.0598C28.8248 30.9921 29.0055 30.8565 29.0055 30.5855C29.0055 30.4726 28.9604 30.3597 28.87 30.2693C28.7345 30.1564 28.5764 30.0886 28.3957 30.0886H27.6504V31.7148H27.8988V31.105H28.3054L28.7797 31.7148H29.0733L28.5764 31.0598ZM27.8988 30.8791V30.3145H28.3731C28.599 30.3145 28.7345 30.4274 28.7345 30.5855C28.7345 30.7662 28.5764 30.8791 28.3505 30.8791H27.8988Z" fill="black"/>
<path fill-rule="evenodd" clip-rule="evenodd" d="M28.2827 29.366C27.4244 29.366 26.7017 30.0887 26.7017 30.947V30.9695C26.7017 31.8278 27.4244 32.5505 28.2827 32.5505C29.1409 32.5505 29.8636 31.8278 29.8636 30.9695V30.947C29.8636 30.0661 29.1409 29.366 28.2827 29.366ZM29.7055 30.947C29.7055 31.7375 29.0506 32.3924 28.2601 32.3924C27.4696 32.3924 26.8372 31.7375 26.8146 30.9695V30.947C26.8146 30.1565 27.4696 29.5015 28.2601 29.5015C29.0731 29.5015 29.7055 30.1339 29.7055 30.947Z" fill="black"/>
<path fill-rule="evenodd" clip-rule="evenodd" d="M40.0797 12.6364L39.2831 14.8409H40.8762L40.0797 12.6364ZM40.0797 12.6364L39.2831 14.8409H40.8762L40.0797 12.6364ZM40.0797 12.6364L39.2831 14.8409H40.8762L40.0797 12.6364ZM40.0797 12.6364L39.2831 14.8409H40.8762L40.0797 12.6364ZM40.0797 12.6364L39.2831 14.8409H40.8762L40.0797 12.6364ZM56.2162 12.5227H55.0782V13.9091H56.2162C56.6714 13.9091 56.99 13.6591 56.99 13.2273C56.99 12.7727 56.6487 12.5227 56.2162 12.5227ZM56.2162 12.5227H55.0782V13.9091H56.2162C56.6714 13.9091 56.99 13.6591 56.99 13.2273C56.99 12.7727 56.6487 12.5227 56.2162 12.5227ZM40.0797 12.6364L39.2831 14.8409H40.8762L40.0797 12.6364ZM40.0797 12.6364L39.2831 14.8409H40.8762L40.0797 12.6364ZM56.2162 12.5227H55.0782V13.9091H56.2162C56.6714 13.9091 56.99 13.6591 56.99 13.2273C56.99 12.7727 56.6487 12.5227 56.2162 12.5227ZM65.5477 12.5227H64.6145V15.7273H65.5477C66.5491 15.7273 67.1408 15 67.1408 14.1364C67.1636 13.2045 66.6174 12.5227 65.5477 12.5227ZM56.2162 12.5227H55.0782V13.9091H56.2162C56.6714 13.9091 56.99 13.6591 56.99 13.2273C56.99 12.7727 56.6487 12.5227 56.2162 12.5227ZM40.0797 12.6364L39.2831 14.8409H40.8762L40.0797 12.6364ZM65.5477 12.5227H64.6145V15.7273H65.5477C66.5491 15.7273 67.1408 15 67.1408 14.1364C67.1636 13.2045 66.6174 12.5227 65.5477 12.5227ZM40.0797 12.6364L39.2831 14.8409H40.8762L40.0797 12.6364ZM56.2162 12.5227H55.0782V13.9091H56.2162C56.6714 13.9091 56.99 13.6591 56.99 13.2273C56.99 12.7727 56.6487 12.5227 56.2162 12.5227ZM65.5477 12.5227H64.6145V15.7273H65.5477C66.5491 15.7273 67.1408 15 67.1408 14.1364C67.1636 13.2045 66.6174 12.5227 65.5477 12.5227ZM56.2162 12.5227H55.0782V13.9091H56.2162C56.6714 13.9091 56.99 13.6591 56.99 13.2273C56.99 12.7727 56.6487 12.5227 56.2162 12.5227ZM40.0797 12.6364L39.2831 14.8409H40.8762L40.0797 12.6364ZM65.5477 12.5227H64.6145V15.7273H65.5477C66.5491 15.7273 67.1408 15 67.1408 14.1364C67.1636 13.2045 66.6174 12.5227 65.5477 12.5227ZM40.0797 12.6364L39.2831 14.8409H40.8762L40.0797 12.6364ZM56.2162 12.5227H55.0782V13.9091H56.2162C56.6714 13.9091 56.99 13.6591 56.99 13.2273C56.99 12.7727 56.6487 12.5227 56.2162 12.5227ZM65.5477 12.5227H64.6145V15.7273H65.5477C66.5491 15.7273 67.1408 15 67.1408 14.1364C67.1636 13.2045 66.6174 12.5227 65.5477 12.5227ZM82.3898 12.5227H81.4566V15.7273H82.3898C83.3912 15.7273 84.0057 15 84.0057 14.1364C84.0057 13.2045 83.4367 12.5227 82.3898 12.5227ZM82.3898 12.5227H81.4566V15.7273H82.3898C83.3912 15.7273 84.0057 15 84.0057 14.1364C84.0057 13.2045 83.4367 12.5227 82.3898 12.5227ZM56.2162 12.5227H55.0782V13.9091H56.2162C56.6714 13.9091 56.99 13.6591 56.99 13.2273C56.99 12.7727 56.6487 12.5227 56.2162 12.5227ZM40.0797 12.6364L39.2831 14.8409H40.8762L40.0797 12.6364ZM65.5477 12.5227H64.6145V15.7273H65.5477C66.5491 15.7273 67.1408 15 67.1408 14.1364C67.1636 13.2045 66.6174 12.5227 65.5477 12.5227ZM40.0797 12.6364L39.2831 14.8409H40.8762L40.0797 12.6364ZM56.2162 12.5227H55.0782V13.9091H56.2162C56.6714 13.9091 56.99 13.6591 56.99 13.2273C56.99 12.7727 56.6487 12.5227 56.2162 12.5227ZM65.5477 12.5227H64.6145V15.7273H65.5477C66.5491 15.7273 67.1408 15 67.1408 14.1364C67.1636 13.2045 66.6174 12.5227 65.5477 12.5227ZM82.3898 12.5227H81.4566V15.7273H82.3898C83.3912 15.7273 84.0057 15 84.0057 14.1364C84.0057 13.2045 83.4367 12.5227 82.3898 12.5227ZM82.3898 12.5227H81.4566V15.7273H82.3898C83.3912 15.7273 84.0057 15 84.0057 14.1364C84.0057 13.2045 83.4367 12.5227 82.3898 12.5227ZM56.2162 12.5227H55.0782V13.9091H56.2162C56.6714 13.9091 56.99 13.6591 56.99 13.2273C56.99 12.7727 56.6487 12.5227 56.2162 12.5227ZM40.0797 12.6364L39.2831 14.8409H40.8762L40.0797 12.6364ZM65.5477 12.5227H64.6145V15.7273H65.5477C66.5491 15.7273 67.1408 15 67.1408 14.1364C67.1636 13.2045 66.6174 12.5227 65.5477 12.5227ZM40.0797 12.6364L39.2831 14.8409H40.8762L40.0797 12.6364ZM56.2162 12.5227H55.0782V13.9091H56.2162C56.6714 13.9091 56.99 13.6591 56.99 13.2273C56.99 12.7727 56.6487 12.5227 56.2162 12.5227ZM65.5477 12.5227H64.6145V15.7273H65.5477C66.5491 15.7273 67.1408 15 67.1408 14.1364C67.1636 13.2045 66.6174 12.5227 65.5477 12.5227ZM82.3898 12.5227H81.4566V15.7273H82.3898C83.3912 15.7273 84.0057 15 84.0057 14.1364C84.0057 13.2045 83.4367 12.5227 82.3898 12.5227ZM82.3898 12.5227H81.4566V15.7273H82.3898C83.3912 15.7273 84.0057 15 84.0057 14.1364C84.0057 13.2045 83.4367 12.5227 82.3898 12.5227ZM56.2162 12.5227H55.0782V13.9091H56.2162C56.6714 13.9091 56.99 13.6591 56.99 13.2273C56.99 12.7727 56.6487 12.5227 56.2162 12.5227ZM40.0797 12.6364L39.2831 14.8409H40.8762L40.0797 12.6364ZM65.5477 12.5227H64.6145V15.7273H65.5477C66.5491 15.7273 67.1408 15 67.1408 14.1364C67.1636 13.2045 66.6174 12.5227 65.5477 12.5227ZM40.0797 12.6364L39.2831 14.8409H40.8762L40.0797 12.6364ZM56.2162 12.5227H55.0782V13.9091H56.2162C56.6714 13.9091 56.99 13.6591 56.99 13.2273C56.99 12.7727 56.6487 12.5227 56.2162 12.5227ZM65.5477 12.5227H64.6145V15.7273H65.5477C66.5491 15.7273 67.1408 15 67.1408 14.1364C67.1636 13.2045 66.6174 12.5227 65.5477 12.5227ZM82.3898 12.5227H81.4566V15.7273H82.3898C83.3912 15.7273 84.0057 15 84.0057 14.1364C84.0057 13.2045 83.4367 12.5227 82.3898 12.5227ZM82.3898 12.5227H81.4566V15.7273H82.3898C83.3912 15.7273 84.0057 15 84.0057 14.1364C84.0057 13.2045 83.4367 12.5227 82.3898 12.5227ZM56.2162 12.5227H55.0782V13.9091H56.2162C56.6714 13.9091 56.99 13.6591 56.99 13.2273C56.99 12.7727 56.6487 12.5227 56.2162 12.5227ZM40.0797 12.6364L39.2831 14.8409H40.8762L40.0797 12.6364ZM65.5477 12.5227H64.6145V15.7273H65.5477C66.5491 15.7273 67.1408 15 67.1408 14.1364C67.1636 13.2045 66.6174 12.5227 65.5477 12.5227ZM91.266 0H4.734C2.1394 0 0 2.13636 0 4.72727V31.2727C0 33.8636 2.1394 36 4.734 36H91.266C93.8606 36 96 33.8636 96 31.2727V4.72727C96 2.13636 93.8606 0 91.266 0ZM69.1209 11.5455H70.2134V16.6818H69.1209V11.5455ZM63.522 11.5455H65.5477C67.1636 11.5455 68.2788 12.5682 68.2788 14.1136C68.2788 15.6591 67.1636 16.6818 65.5477 16.6818H63.522V11.5455ZM58.9929 11.5455H62.6344V12.5H60.0854V13.5909H62.5661V14.5455H60.0854V15.7045H62.6344V16.6591H58.9929V11.5455ZM32.5462 35.2727H4.734C2.54908 35.2727 0.751067 33.4773 0.728307 31.2727V4.72727C0.728307 2.54546 2.52632 0.750001 4.734 0.727274H32.5462V35.2727ZM40.7397 25.5H37.963V20.3636H40.6714C41.6501 20.3636 42.1508 20.9773 42.1508 21.6591C42.1508 22.2955 41.7411 22.7273 41.2632 22.8409C41.8094 22.9318 42.2418 23.4545 42.2418 24.0909C42.2418 24.8864 41.7184 25.5 40.7397 25.5ZM41.4908 16.6818L41.1721 15.8182H38.9644L38.6458 16.6818H37.394L39.3741 11.5455H40.7397L42.7198 16.6818H41.4908ZM47.7724 23.4318C47.7724 24.7045 47.0213 25.5682 45.4509 25.5682C43.8805 25.5682 43.1067 24.6818 43.1067 23.4318V20.3409H44.2219V23.3864C44.2219 24.0909 44.6316 24.5909 45.4282 24.5909C46.2248 24.5909 46.6344 24.0909 46.6344 23.3864V20.3409H47.7496V23.4318H47.7724ZM45.7696 16.7727C44.2447 16.7727 43.0384 15.7045 43.0384 14.1136C43.0384 12.5227 44.2219 11.4545 45.7696 11.4545C46.6572 11.4318 47.4993 11.9091 47.909 12.7045L46.9758 13.1591C46.7482 12.7045 46.2703 12.4091 45.7696 12.4091C44.8364 12.4091 44.1536 13.1136 44.1536 14.0909C44.1536 15.0455 44.8364 15.7727 45.7696 15.7727C46.2703 15.7727 46.7482 15.4773 46.9758 15.0227L47.909 15.5C47.5448 16.1591 46.9075 16.7727 45.7696 16.7727ZM50.6401 25.5909C49.6615 25.5909 48.9559 25.25 48.478 24.7727L49.0697 23.9318C49.5021 24.3864 50.0939 24.6364 50.7084 24.6136C51.3001 24.6136 51.596 24.3409 51.596 24.0455C51.596 23.6591 51.1181 23.5682 50.5491 23.4318C49.707 23.25 48.6373 23.0227 48.6373 21.8409C48.6373 21 49.3883 20.2727 50.5946 20.2727C51.4139 20.2727 52.0967 20.5227 52.5974 20.9773L51.9829 21.7727C51.5733 21.4091 51.0498 21.2045 50.4808 21.2045C50.0028 21.2045 49.7525 21.4091 49.7525 21.7273C49.7525 22.0682 50.2304 22.1591 50.7767 22.2955C51.6188 22.5 52.7112 22.75 52.7112 23.9091C52.7112 24.8864 52.0285 25.5909 50.6401 25.5909ZM51.1181 15.7955C51.6188 15.7955 52.0967 15.5 52.3243 15.0455L53.2575 15.5C52.8933 16.1364 52.2333 16.75 51.1181 16.75C49.5704 16.7727 48.3869 15.6818 48.3869 14.1136C48.3869 12.5455 49.5704 11.4545 51.1181 11.4545C52.0057 11.4318 52.8478 11.9091 53.2575 12.7045L52.3243 13.1591C52.0967 12.7045 51.6188 12.4091 51.1181 12.4091C50.1849 12.4091 49.5021 13.1136 49.5021 14.0909C49.5021 15.0682 50.1849 15.7955 51.1181 15.7955ZM54.6003 25.5H53.5078V20.3636H54.6003V25.5ZM55.0782 16.6818H53.9858V11.5455H56.3983C57.468 11.5455 58.128 12.25 58.128 13.2045C58.128 14.1136 57.559 14.6136 57.0128 14.7273L58.1735 16.6818H56.9218L55.9203 14.8636H55.1238V16.6818H55.0782ZM60.2447 25.5H59.1977L56.7397 22.1591V25.5H55.6472V20.3636H56.7625L59.1522 23.5909V20.3636H60.2447V25.5ZM64.9787 21.3182H62.4296V22.4091H64.9104V23.3636H62.4296V24.5227H64.9787V25.4773H61.3371V20.3409H64.9787V21.3182ZM67.7098 25.5909C66.7312 25.5909 66.0256 25.25 65.5249 24.7727L66.1166 23.9318C66.5491 24.3864 67.1408 24.6364 67.7553 24.6136C68.3471 24.6136 68.643 24.3409 68.643 24.0455C68.643 23.6591 68.165 23.5682 67.596 23.4318C66.7539 23.25 65.6842 23.0227 65.6842 21.8409C65.6842 21 66.4125 20.2727 67.6415 20.2727C68.4609 20.2727 69.1437 20.5227 69.6444 20.9773L69.0299 21.7727C68.6202 21.4091 68.074 21.2045 67.5277 21.2045C67.0498 21.2045 66.7994 21.4091 66.7994 21.7273C66.7994 22.0682 67.2774 22.1591 67.8236 22.2955C68.6657 22.5 69.7582 22.75 69.7582 23.9091C69.7582 24.8864 69.0982 25.5909 67.7098 25.5909ZM72.3755 25.5909C71.3969 25.5909 70.6913 25.25 70.2134 24.7727L70.8051 23.9318C71.2375 24.3864 71.8293 24.6364 72.4438 24.6136C73.0356 24.6136 73.3314 24.3409 73.3314 24.0455C73.3314 23.6591 72.8535 23.5682 72.2845 23.4318C71.4424 23.25 70.3727 23.0227 70.3727 21.8409C70.3727 21 71.101 20.2727 72.33 20.2727C73.1494 20.2727 73.8321 20.5227 74.3329 20.9773L73.7184 21.7727C73.3087 21.4091 72.7852 21.2045 72.2162 21.2045C71.7383 21.2045 71.4879 21.4091 71.4879 21.7273C71.4879 22.0682 71.9659 22.1591 72.5121 22.2955C73.3542 22.5 74.4467 22.75 74.4467 23.9091C74.4239 24.8864 73.7639 25.5909 72.3755 25.5909ZM75.0612 12.5227H73.559V16.6818H72.4666V12.5227H70.9644V11.5682H75.0612V12.5227ZM79.4538 12.5227H76.9047V13.6136H79.3855V14.5682H76.9047V15.7273H79.4538V16.6818H75.8122V11.5455H79.4538V12.5227ZM82.3898 16.6818H80.3642V11.5455H82.3898C84.0057 11.5455 85.1209 12.5682 85.1209 14.1136C85.0982 15.6591 83.9829 16.6818 82.3898 16.6818ZM82.3898 12.5227H81.4566V15.7273H82.3898C83.3912 15.7273 84.0057 15 84.0057 14.1364C84.0057 13.2045 83.4367 12.5227 82.3898 12.5227ZM67.1636 14.1136C67.1636 13.2045 66.6174 12.5 65.5704 12.5H64.6373V15.7045H65.5704C66.5718 15.7273 67.1636 15 67.1636 14.1136ZM56.99 13.2045C56.99 12.7727 56.6714 12.5227 56.2162 12.5227H55.0782V13.9091H56.2162C56.6487 13.9091 56.99 13.6364 56.99 13.2045ZM41.0356 21.8636C41.0356 21.5455 40.7852 21.2955 40.4666 21.2955H39.0555V22.4091H40.4211C40.7852 22.4091 41.0356 22.1818 41.0356 21.8636ZM40.4666 23.3636H39.0555V24.5455H40.4666C40.8762 24.5455 41.1266 24.3182 41.1266 23.9545C41.1266 23.6364 40.899 23.3636 40.4666 23.3636ZM39.2831 14.8409H40.8762L40.0797 12.6364L39.2831 14.8409ZM65.5477 12.5227H64.6145V15.7273H65.5477C66.5491 15.7273 67.1408 15 67.1408 14.1364C67.1636 13.2045 66.6174 12.5227 65.5477 12.5227ZM40.0797 12.6364L39.2831 14.8409H40.8762L40.0797 12.6364ZM56.2162 12.5227H55.0782V13.9091H56.2162C56.6714 13.9091 56.99 13.6591 56.99 13.2273C56.99 12.7727 56.6487 12.5227 56.2162 12.5227ZM82.3898 12.5227H81.4566V15.7273H82.3898C83.3912 15.7273 84.0057 15 84.0057 14.1364C84.0057 13.2045 83.4367 12.5227 82.3898 12.5227ZM82.3898 12.5227H81.4566V15.7273H82.3898C83.3912 15.7273 84.0057 15 84.0057 14.1364C84.0057 13.2045 83.4367 12.5227 82.3898 12.5227ZM65.5477 12.5227H64.6145V15.7273H65.5477C66.5491 15.7273 67.1408 15 67.1408 14.1364C67.1636 13.2045 66.6174 12.5227 65.5477 12.5227ZM56.2162 12.5227H55.0782V13.9091H56.2162C56.6714 13.9091 56.99 13.6591 56.99 13.2273C56.99 12.7727 56.6487 12.5227 56.2162 12.5227ZM40.0797 12.6364L39.2831 14.8409H40.8762L40.0797 12.6364ZM65.5477 12.5227H64.6145V15.7273H65.5477C66.5491 15.7273 67.1408 15 67.1408 14.1364C67.1636 13.2045 66.6174 12.5227 65.5477 12.5227ZM40.0797 12.6364L39.2831 14.8409H40.8762L40.0797 12.6364ZM56.2162 12.5227H55.0782V13.9091H56.2162C56.6714 13.9091 56.99 13.6591 56.99 13.2273C56.99 12.7727 56.6487 12.5227 56.2162 12.5227ZM82.3898 12.5227H81.4566V15.7273H82.3898C83.3912 15.7273 84.0057 15 84.0057 14.1364C84.0057 13.2045 83.4367 12.5227 82.3898 12.5227ZM82.3898 12.5227H81.4566V15.7273H82.3898C83.3912 15.7273 84.0057 15 84.0057 14.1364C84.0057 13.2045 83.4367 12.5227 82.3898 12.5227ZM65.5477 12.5227H64.6145V15.7273H65.5477C66.5491 15.7273 67.1408 15 67.1408 14.1364C67.1636 13.2045 66.6174 12.5227 65.5477 12.5227ZM56.2162 12.5227H55.0782V13.9091H56.2162C56.6714 13.9091 56.99 13.6591 56.99 13.2273C56.99 12.7727 56.6487 12.5227 56.2162 12.5227ZM40.0797 12.6364L39.2831 14.8409H40.8762L40.0797 12.6364ZM65.5477 12.5227H64.6145V15.7273H65.5477C66.5491 15.7273 67.1408 15 67.1408 14.1364C67.1636 13.2045 66.6174 12.5227 65.5477 12.5227ZM40.0797 12.6364L39.2831 14.8409H40.8762L40.0797 12.6364ZM56.2162 12.5227H55.0782V13.9091H56.2162C56.6714 13.9091 56.99 13.6591 56.99 13.2273C56.99 12.7727 56.6487 12.5227 56.2162 12.5227ZM82.3898 12.5227H81.4566V15.7273H82.3898C83.3912 15.7273 84.0057 15 84.0057 14.1364C84.0057 13.2045 83.4367 12.5227 82.3898 12.5227ZM82.3898 12.5227H81.4566V15.7273H82.3898C83.3912 15.7273 84.0057 15 84.0057 14.1364C84.0057 13.2045 83.4367 12.5227 82.3898 12.5227ZM65.5477 12.5227H64.6145V15.7273H65.5477C66.5491 15.7273 67.1408 15 67.1408 14.1364C67.1636 13.2045 66.6174 12.5227 65.5477 12.5227ZM56.2162 12.5227H55.0782V13.9091H56.2162C56.6714 13.9091 56.99 13.6591 56.99 13.2273C56.99 12.7727 56.6487 12.5227 56.2162 12.5227ZM40.0797 12.6364L39.2831 14.8409H40.8762L40.0797 12.6364ZM65.5477 12.5227H64.6145V15.7273H65.5477C66.5491 15.7273 67.1408 15 67.1408 14.1364C67.1636 13.2045 66.6174 12.5227 65.5477 12.5227ZM40.0797 12.6364L39.2831 14.8409H40.8762L40.0797 12.6364ZM56.2162 12.5227H55.0782V13.9091H56.2162C56.6714 13.9091 56.99 13.6591 56.99 13.2273C56.99 12.7727 56.6487 12.5227 56.2162 12.5227ZM82.3898 12.5227H81.4566V15.7273H82.3898C83.3912 15.7273 84.0057 15 84.0057 14.1364C84.0057 13.2045 83.4367 12.5227 82.3898 12.5227ZM82.3898 12.5227H81.4566V15.7273H82.3898C83.3912 15.7273 84.0057 15 84.0057 14.1364C84.0057 13.2045 83.4367 12.5227 82.3898 12.5227ZM65.5477 12.5227H64.6145V15.7273H65.5477C66.5491 15.7273 67.1408 15 67.1408 14.1364C67.1636 13.2045 66.6174 12.5227 65.5477 12.5227ZM56.2162 12.5227H55.0782V13.9091H56.2162C56.6714 13.9091 56.99 13.6591 56.99 13.2273C56.99 12.7727 56.6487 12.5227 56.2162 12.5227ZM40.0797 12.6364L39.2831 14.8409H40.8762L40.0797 12.6364ZM65.5477 12.5227H64.6145V15.7273H65.5477C66.5491 15.7273 67.1408 15 67.1408 14.1364C67.1636 13.2045 66.6174 12.5227 65.5477 12.5227ZM40.0797 12.6364L39.2831 14.8409H40.8762L40.0797 12.6364ZM56.2162 12.5227H55.0782V13.9091H56.2162C56.6714 13.9091 56.99 13.6591 56.99 13.2273C56.99 12.7727 56.6487 12.5227 56.2162 12.5227ZM65.5477 12.5227H64.6145V15.7273H65.5477C66.5491 15.7273 67.1408 15 67.1408 14.1364C67.1636 13.2045 66.6174 12.5227 65.5477 12.5227ZM56.2162 12.5227H55.0782V13.9091H56.2162C56.6714 13.9091 56.99 13.6591 56.99 13.2273C56.99 12.7727 56.6487 12.5227 56.2162 12.5227ZM40.0797 12.6364L39.2831 14.8409H40.8762L40.0797 12.6364ZM65.5477 12.5227H64.6145V15.7273H65.5477C66.5491 15.7273 67.1408 15 67.1408 14.1364C67.1636 13.2045 66.6174 12.5227 65.5477 12.5227ZM40.0797 12.6364L39.2831 14.8409H40.8762L40.0797 12.6364ZM56.2162 12.5227H55.0782V13.9091H56.2162C56.6714 13.9091 56.99 13.6591 56.99 13.2273C56.99 12.7727 56.6487 12.5227 56.2162 12.5227ZM65.5477 12.5227H64.6145V15.7273H65.5477C66.5491 15.7273 67.1408 15 67.1408 14.1364C67.1636 13.2045 66.6174 12.5227 65.5477 12.5227ZM56.2162 12.5227H55.0782V13.9091H56.2162C56.6714 13.9091 56.99 13.6591 56.99 13.2273C56.99 12.7727 56.6487 12.5227 56.2162 12.5227ZM40.0797 12.6364L39.2831 14.8409H40.8762L40.0797 12.6364ZM40.0797 12.6364L39.2831 14.8409H40.8762L40.0797 12.6364ZM56.2162 12.5227H55.0782V13.9091H56.2162C56.6714 13.9091 56.99 13.6591 56.99 13.2273C56.99 12.7727 56.6487 12.5227 56.2162 12.5227ZM56.2162 12.5227H55.0782V13.9091H56.2162C56.6714 13.9091 56.99 13.6591 56.99 13.2273C56.99 12.7727 56.6487 12.5227 56.2162 12.5227ZM40.0797 12.6364L39.2831 14.8409H40.8762L40.0797 12.6364ZM40.0797 12.6364L39.2831 14.8409H40.8762L40.0797 12.6364ZM40.0797 12.6364L39.2831 14.8409H40.8762L40.0797 12.6364Z" fill="black"/>
<path fill-rule="evenodd" clip-rule="evenodd" d="M28.5763 31.0598C28.8248 30.9921 29.0055 30.8565 29.0055 30.5855C29.0055 30.4726 28.9603 30.3597 28.8699 30.2693C28.7344 30.1564 28.5763 30.0886 28.3956 30.0886H27.6503V31.7148H27.8988V31.105H28.3053L28.7796 31.7148H29.0732L28.5763 31.0598ZM27.8988 30.8791V30.3145H28.3731C28.5989 30.3145 28.7344 30.4274 28.7344 30.5855C28.7344 30.7662 28.5763 30.8791 28.3505 30.8791H27.8988ZM28.5763 31.0598C28.8248 30.9921 29.0055 30.8565 29.0055 30.5855C29.0055 30.4726 28.9603 30.3597 28.8699 30.2693C28.7344 30.1564 28.5763 30.0886 28.3956 30.0886H27.6503V31.7148H27.8988V31.105H28.3053L28.7796 31.7148H29.0732L28.5763 31.0598ZM27.8988 30.8791V30.3145H28.3731C28.5989 30.3145 28.7344 30.4274 28.7344 30.5855C28.7344 30.7662 28.5763 30.8791 28.3505 30.8791H27.8988ZM28.5763 31.0598C28.8248 30.9921 29.0055 30.8565 29.0055 30.5855C29.0055 30.4726 28.9603 30.3597 28.8699 30.2693C28.7344 30.1564 28.5763 30.0886 28.3956 30.0886H27.6503V31.7148H27.8988V31.105H28.3053L28.7796 31.7148H29.0732L28.5763 31.0598ZM27.8988 30.8791V30.3145H28.3731C28.5989 30.3145 28.7344 30.4274 28.7344 30.5855C28.7344 30.7662 28.5763 30.8791 28.3505 30.8791H27.8988ZM28.5763 31.0598C28.8248 30.9921 29.0055 30.8565 29.0055 30.5855C29.0055 30.4726 28.9603 30.3597 28.8699 30.2693C28.7344 30.1564 28.5763 30.0886 28.3956 30.0886H27.6503V31.7148H27.8988V31.105H28.3053L28.7796 31.7148H29.0732L28.5763 31.0598ZM27.8988 30.8791V30.3145H28.3731C28.5989 30.3145 28.7344 30.4274 28.7344 30.5855C28.7344 30.7662 28.5763 30.8791 28.3505 30.8791H27.8988ZM28.5763 31.0598C28.8248 30.9921 29.0055 30.8565 29.0055 30.5855C29.0055 30.4726 28.9603 30.3597 28.8699 30.2693C28.7344 30.1564 28.5763 30.0886 28.3956 30.0886H27.6503V31.7148H27.8988V31.105H28.3053L28.7796 31.7148H29.0732L28.5763 31.0598ZM27.8988 30.8791V30.3145H28.3731C28.5989 30.3145 28.7344 30.4274 28.7344 30.5855C28.7344 30.7662 28.5763 30.8791 28.3505 30.8791H27.8988ZM28.5763 31.0598C28.8248 30.9921 29.0055 30.8565 29.0055 30.5855C29.0055 30.4726 28.9603 30.3597 28.8699 30.2693C28.7344 30.1564 28.5763 30.0886 28.3956 30.0886H27.6503V31.7148H27.8988V31.105H28.3053L28.7796 31.7148H29.0732L28.5763 31.0598ZM27.8988 30.8791V30.3145H28.3731C28.5989 30.3145 28.7344 30.4274 28.7344 30.5855C28.7344 30.7662 28.5763 30.8791 28.3505 30.8791H27.8988ZM28.5763 31.0598C28.8248 30.9921 29.0055 30.8565 29.0055 30.5855C29.0055 30.4726 28.9603 30.3597 28.8699 30.2693C28.7344 30.1564 28.5763 30.0886 28.3956 30.0886H27.6503V31.7148H27.8988V31.105H28.3053L28.7796 31.7148H29.0732L28.5763 31.0598ZM27.8988 30.8791V30.3145H28.3731C28.5989 30.3145 28.7344 30.4274 28.7344 30.5855C28.7344 30.7662 28.5763 30.8791 28.3505 30.8791H27.8988ZM28.5763 31.0598C28.8248 30.9921 29.0055 30.8565 29.0055 30.5855C29.0055 30.4726 28.9603 30.3597 28.8699 30.2693C28.7344 30.1564 28.5763 30.0886 28.3956 30.0886H27.6503V31.7148H27.8988V31.105H28.3053L28.7796 31.7148H29.0732L28.5763 31.0598ZM27.8988 30.8791V30.3145H28.3731C28.5989 30.3145 28.7344 30.4274 28.7344 30.5855C28.7344 30.7662 28.5763 30.8791 28.3505 30.8791H27.8988ZM28.5763 31.0598C28.8248 30.9921 29.0055 30.8565 29.0055 30.5855C29.0055 30.4726 28.9603 30.3597 28.8699 30.2693C28.7344 30.1564 28.5763 30.0886 28.3956 30.0886H27.6503V31.7148H27.8988V31.105H28.3053L28.7796 31.7148H29.0732L28.5763 31.0598ZM27.8988 30.8791V30.3145H28.3731C28.5989 30.3145 28.7344 30.4274 28.7344 30.5855C28.7344 30.7662 28.5763 30.8791 28.3505 30.8791H27.8988ZM28.5763 31.0598C28.8248 30.9921 29.0055 30.8565 29.0055 30.5855C29.0055 30.4726 28.9603 30.3597 28.8699 30.2693C28.7344 30.1564 28.5763 30.0886 28.3956 30.0886H27.6503V31.7148H27.8988V31.105H28.3053L28.7796 31.7148H29.0732L28.5763 31.0598ZM27.8988 30.8791V30.3145H28.3731C28.5989 30.3145 28.7344 30.4274 28.7344 30.5855C28.7344 30.7662 28.5763 30.8791 28.3505 30.8791H27.8988ZM28.5763 31.0598C28.8248 30.9921 29.0055 30.8565 29.0055 30.5855C29.0055 30.4726 28.9603 30.3597 28.8699 30.2693C28.7344 30.1564 28.5763 30.0886 28.3956 30.0886H27.6503V31.7148H27.8988V31.105H28.3053L28.7796 31.7148H29.0732L28.5763 31.0598ZM27.8988 30.8791V30.3145H28.3731C28.5989 30.3145 28.7344 30.4274 28.7344 30.5855C28.7344 30.7662 28.5763 30.8791 28.3505 30.8791H27.8988ZM28.5763 31.0598C28.8248 30.9921 29.0055 30.8565 29.0055 30.5855C29.0055 30.4726 28.9603 30.3597 28.8699 30.2693C28.7344 30.1564 28.5763 30.0886 28.3956 30.0886H27.6503V31.7148H27.8988V31.105H28.3053L28.7796 31.7148H29.0732L28.5763 31.0598ZM27.8988 30.8791V30.3145H28.3731C28.5989 30.3145 28.7344 30.4274 28.7344 30.5855C28.7344 30.7662 28.5763 30.8791 28.3505 30.8791H27.8988ZM28.5763 31.0598C28.8248 30.9921 29.0055 30.8565 29.0055 30.5855C29.0055 30.4726 28.9603 30.3597 28.8699 30.2693C28.7344 30.1564 28.5763 30.0886 28.3956 30.0886H27.6503V31.7148H27.8988V31.105H28.3053L28.7796 31.7148H29.0732L28.5763 31.0598ZM27.8988 30.8791V30.3145H28.3731C28.5989 30.3145 28.7344 30.4274 28.7344 30.5855C28.7344 30.7662 28.5763 30.8791 28.3505 30.8791H27.8988ZM28.5763 31.0598C28.8248 30.9921 29.0055 30.8565 29.0055 30.5855C29.0055 30.4726 28.9603 30.3597 28.8699 30.2693C28.7344 30.1564 28.5763 30.0886 28.3956 30.0886H27.6503V31.7148H27.8988V31.105H28.3053L28.7796 31.7148H29.0732L28.5763 31.0598ZM27.8988 30.8791V30.3145H28.3731C28.5989 30.3145 28.7344 30.4274 28.7344 30.5855C28.7344 30.7662 28.5763 30.8791 28.3505 30.8791H27.8988ZM28.5763 31.0598C28.8248 30.9921 29.0055 30.8565 29.0055 30.5855C29.0055 30.4726 28.9603 30.3597 28.8699 30.2693C28.7344 30.1564 28.5763 30.0886 28.3956 30.0886H27.6503V31.7148H27.8988V31.105H28.3053L28.7796 31.7148H29.0732L28.5763 31.0598ZM27.8988 30.8791V30.3145H28.3731C28.5989 30.3145 28.7344 30.4274 28.7344 30.5855C28.7344 30.7662 28.5763 30.8791 28.3505 30.8791H27.8988ZM28.5763 31.0598C28.8248 30.9921 29.0055 30.8565 29.0055 30.5855C29.0055 30.4726 28.9603 30.3597 28.8699 30.2693C28.7344 30.1564 28.5763 30.0886 28.3956 30.0886H27.6503V31.7148H27.8988V31.105H28.3053L28.7796 31.7148H29.0732L28.5763 31.0598ZM27.8988 30.8791V30.3145H28.3731C28.5989 30.3145 28.7344 30.4274 28.7344 30.5855C28.7344 30.7662 28.5763 30.8791 28.3505 30.8791H27.8988ZM28.5763 31.0598C28.8248 30.9921 29.0055 30.8565 29.0055 30.5855C29.0055 30.4726 28.9603 30.3597 28.8699 30.2693C28.7344 30.1564 28.5763 30.0886 28.3956 30.0886H27.6503V31.7148H27.8988V31.105H28.3053L28.7796 31.7148H29.0732L28.5763 31.0598ZM27.8988 30.8791V30.3145H28.3731C28.5989 30.3145 28.7344 30.4274 28.7344 30.5855C28.7344 30.7662 28.5763 30.8791 28.3505 30.8791H27.8988ZM28.5763 31.0598C28.8248 30.9921 29.0055 30.8565 29.0055 30.5855C29.0055 30.4726 28.9603 30.3597 28.8699 30.2693C28.7344 30.1564 28.5763 30.0886 28.3956 30.0886H27.6503V31.7148H27.8988V31.105H28.3053L28.7796 31.7148H29.0732L28.5763 31.0598ZM27.8988 30.8791V30.3145H28.3731C28.5989 30.3145 28.7344 30.4274 28.7344 30.5855C28.7344 30.7662 28.5763 30.8791 28.3505 30.8791H27.8988ZM28.5763 31.0598C28.8248 30.9921 29.0055 30.8565 29.0055 30.5855C29.0055 30.4726 28.9603 30.3597 28.8699 30.2693C28.7344 30.1564 28.5763 30.0886 28.3956 30.0886H27.6503V31.7148H27.8988V31.105H28.3053L28.7796 31.7148H29.0732L28.5763 31.0598ZM27.8988 30.8791V30.3145H28.3731C28.5989 30.3145 28.7344 30.4274 28.7344 30.5855C28.7344 30.7662 28.5763 30.8791 28.3505 30.8791H27.8988ZM28.5763 31.0598C28.8248 30.9921 29.0055 30.8565 29.0055 30.5855C29.0055 30.4726 28.9603 30.3597 28.8699 30.2693C28.7344 30.1564 28.5763 30.0886 28.3956 30.0886H27.6503V31.7148H27.8988V31.105H28.3053L28.7796 31.7148H29.0732L28.5763 31.0598ZM27.8988 30.8791V30.3145H28.3731C28.5989 30.3145 28.7344 30.4274 28.7344 30.5855C28.7344 30.7662 28.5763 30.8791 28.3505 30.8791H27.8988ZM28.2827 29.3659C27.4245 29.3659 26.7017 30.0886 26.7017 30.9469V30.9695C26.7017 31.8277 27.4245 32.5505 28.2827 32.5505C29.141 32.5505 29.8637 31.8277 29.8637 30.9695V30.9469C29.8637 30.066 29.141 29.3659 28.2827 29.3659ZM29.7056 30.9469C29.7056 31.7374 29.0506 32.3924 28.2601 32.3924C27.4696 32.3924 26.8372 31.7374 26.8146 30.9695V30.9469C26.8146 30.1564 27.4696 29.5014 28.2601 29.5014C29.0732 29.5014 29.7056 30.1338 29.7056 30.9469ZM29.0055 30.5855C29.0055 30.45 28.9603 30.3371 28.8699 30.2693C28.7344 30.1564 28.5763 30.0886 28.3956 30.0886H27.6503V31.7148H27.8988V31.105H28.3053L28.7796 31.7148H29.0732L28.5763 31.0598C28.8248 30.9921 29.0055 30.834 29.0055 30.5855ZM27.8988 30.8791V30.3145H28.3731C28.5989 30.3145 28.7344 30.4274 28.7344 30.5855C28.7344 30.7662 28.5763 30.8791 28.3505 30.8791H27.8988ZM28.5763 31.0598C28.8248 30.9921 29.0055 30.8565 29.0055 30.5855C29.0055 30.4726 28.9603 30.3597 28.8699 30.2693C28.7344 30.1564 28.5763 30.0886 28.3956 30.0886H27.6503V31.7148H27.8988V31.105H28.3053L28.7796 31.7148H29.0732L28.5763 31.0598ZM27.8988 30.8791V30.3145H28.3731C28.5989 30.3145 28.7344 30.4274 28.7344 30.5855C28.7344 30.7662 28.5763 30.8791 28.3505 30.8791H27.8988ZM28.5763 31.0598C28.8248 30.9921 29.0055 30.8565 29.0055 30.5855C29.0055 30.4726 28.9603 30.3597 28.8699 30.2693C28.7344 30.1564 28.5763 30.0886 28.3956 30.0886H27.6503V31.7148H27.8988V31.105H28.3053L28.7796 31.7148H29.0732L28.5763 31.0598ZM27.8988 30.8791V30.3145H28.3731C28.5989 30.3145 28.7344 30.4274 28.7344 30.5855C28.7344 30.7662 28.5763 30.8791 28.3505 30.8791H27.8988ZM28.5763 31.0598C28.8248 30.9921 29.0055 30.8565 29.0055 30.5855C29.0055 30.4726 28.9603 30.3597 28.8699 30.2693C28.7344 30.1564 28.5763 30.0886 28.3956 30.0886H27.6503V31.7148H27.8988V31.105H28.3053L28.7796 31.7148H29.0732L28.5763 31.0598ZM27.8988 30.8791V30.3145H28.3731C28.5989 30.3145 28.7344 30.4274 28.7344 30.5855C28.7344 30.7662 28.5763 30.8791 28.3505 30.8791H27.8988ZM28.5763 31.0598C28.8248 30.9921 29.0055 30.8565 29.0055 30.5855C29.0055 30.4726 28.9603 30.3597 28.8699 30.2693C28.7344 30.1564 28.5763 30.0886 28.3956 30.0886H27.6503V31.7148H27.8988V31.105H28.3053L28.7796 31.7148H29.0732L28.5763 31.0598ZM27.8988 30.8791V30.3145H28.3731C28.5989 30.3145 28.7344 30.4274 28.7344 30.5855C28.7344 30.7662 28.5763 30.8791 28.3505 30.8791H27.8988ZM28.5763 31.0598C28.8248 30.9921 29.0055 30.8565 29.0055 30.5855C29.0055 30.4726 28.9603 30.3597 28.8699 30.2693C28.7344 30.1564 28.5763 30.0886 28.3956 30.0886H27.6503V31.7148H27.8988V31.105H28.3053L28.7796 31.7148H29.0732L28.5763 31.0598ZM27.8988 30.8791V30.3145H28.3731C28.5989 30.3145 28.7344 30.4274 28.7344 30.5855C28.7344 30.7662 28.5763 30.8791 28.3505 30.8791H27.8988ZM28.5763 31.0598C28.8248 30.9921 29.0055 30.8565 29.0055 30.5855C29.0055 30.4726 28.9603 30.3597 28.8699 30.2693C28.7344 30.1564 28.5763 30.0886 28.3956 30.0886H27.6503V31.7148H27.8988V31.105H28.3053L28.7796 31.7148H29.0732L28.5763 31.0598ZM27.8988 30.8791V30.3145H28.3731C28.5989 30.3145 28.7344 30.4274 28.7344 30.5855C28.7344 30.7662 28.5763 30.8791 28.3505 30.8791H27.8988ZM28.5763 31.0598C28.8248 30.9921 29.0055 30.8565 29.0055 30.5855C29.0055 30.4726 28.9603 30.3597 28.8699 30.2693C28.7344 30.1564 28.5763 30.0886 28.3956 30.0886H27.6503V31.7148H27.8988V31.105H28.3053L28.7796 31.7148H29.0732L28.5763 31.0598ZM27.8988 30.8791V30.3145H28.3731C28.5989 30.3145 28.7344 30.4274 28.7344 30.5855C28.7344 30.7662 28.5763 30.8791 28.3505 30.8791H27.8988ZM28.5763 31.0598C28.8248 30.9921 29.0055 30.8565 29.0055 30.5855C29.0055 30.4726 28.9603 30.3597 28.8699 30.2693C28.7344 30.1564 28.5763 30.0886 28.3956 30.0886H27.6503V31.7148H27.8988V31.105H28.3053L28.7796 31.7148H29.0732L28.5763 31.0598ZM27.8988 30.8791V30.3145H28.3731C28.5989 30.3145 28.7344 30.4274 28.7344 30.5855C28.7344 30.7662 28.5763 30.8791 28.3505 30.8791H27.8988ZM28.5763 31.0598C28.8248 30.9921 29.0055 30.8565 29.0055 30.5855C29.0055 30.4726 28.9603 30.3597 28.8699 30.2693C28.7344 30.1564 28.5763 30.0886 28.3956 30.0886H27.6503V31.7148H27.8988V31.105H28.3053L28.7796 31.7148H29.0732L28.5763 31.0598ZM27.8988 30.8791V30.3145H28.3731C28.5989 30.3145 28.7344 30.4274 28.7344 30.5855C28.7344 30.7662 28.5763 30.8791 28.3505 30.8791H27.8988ZM28.5763 31.0598C28.8248 30.9921 29.0055 30.8565 29.0055 30.5855C29.0055 30.4726 28.9603 30.3597 28.8699 30.2693C28.7344 30.1564 28.5763 30.0886 28.3956 30.0886H27.6503V31.7148H27.8988V31.105H28.3053L28.7796 31.7148H29.0732L28.5763 31.0598ZM27.8988 30.8791V30.3145H28.3731C28.5989 30.3145 28.7344 30.4274 28.7344 30.5855C28.7344 30.7662 28.5763 30.8791 28.3505 30.8791H27.8988ZM28.5763 31.0598C28.8248 30.9921 29.0055 30.8565 29.0055 30.5855C29.0055 30.4726 28.9603 30.3597 28.8699 30.2693C28.7344 30.1564 28.5763 30.0886 28.3956 30.0886H27.6503V31.7148H27.8988V31.105H28.3053L28.7796 31.7148H29.0732L28.5763 31.0598ZM27.8988 30.8791V30.3145H28.3731C28.5989 30.3145 28.7344 30.4274 28.7344 30.5855C28.7344 30.7662 28.5763 30.8791 28.3505 30.8791H27.8988ZM28.5763 31.0598C28.8248 30.9921 29.0055 30.8565 29.0055 30.5855C29.0055 30.4726 28.9603 30.3597 28.8699 30.2693C28.7344 30.1564 28.5763 30.0886 28.3956 30.0886H27.6503V31.7148H27.8988V31.105H28.3053L28.7796 31.7148H29.0732L28.5763 31.0598ZM27.8988 30.8791V30.3145H28.3731C28.5989 30.3145 28.7344 30.4274 28.7344 30.5855C28.7344 30.7662 28.5763 30.8791 28.3505 30.8791H27.8988ZM28.5763 31.0598C28.8248 30.9921 29.0055 30.8565 29.0055 30.5855C29.0055 30.4726 28.9603 30.3597 28.8699 30.2693C28.7344 30.1564 28.5763 30.0886 28.3956 30.0886H27.6503V31.7148H27.8988V31.105H28.3053L28.7796 31.7148H29.0732L28.5763 31.0598ZM27.8988 30.8791V30.3145H28.3731C28.5989 30.3145 28.7344 30.4274 28.7344 30.5855C28.7344 30.7662 28.5763 30.8791 28.3505 30.8791H27.8988ZM28.5763 31.0598C28.8248 30.9921 29.0055 30.8565 29.0055 30.5855C29.0055 30.4726 28.9603 30.3597 28.8699 30.2693C28.7344 30.1564 28.5763 30.0886 28.3956 30.0886H27.6503V31.7148H27.8988V31.105H28.3053L28.7796 31.7148H29.0732L28.5763 31.0598ZM27.8988 30.8791V30.3145H28.3731C28.5989 30.3145 28.7344 30.4274 28.7344 30.5855C28.7344 30.7662 28.5763 30.8791 28.3505 30.8791H27.8988ZM28.5763 31.0598C28.8248 30.9921 29.0055 30.8565 29.0055 30.5855C29.0055 30.4726 28.9603 30.3597 28.8699 30.2693C28.7344 30.1564 28.5763 30.0886 28.3956 30.0886H27.6503V31.7148H27.8988V31.105H28.3053L28.7796 31.7148H29.0732L28.5763 31.0598ZM27.8988 30.8791V30.3145H28.3731C28.5989 30.3145 28.7344 30.4274 28.7344 30.5855C28.7344 30.7662 28.5763 30.8791 28.3505 30.8791H27.8988ZM28.5763 31.0598C28.8248 30.9921 29.0055 30.8565 29.0055 30.5855C29.0055 30.4726 28.9603 30.3597 28.8699 30.2693C28.7344 30.1564 28.5763 30.0886 28.3956 30.0886H27.6503V31.7148H27.8988V31.105H28.3053L28.7796 31.7148H29.0732L28.5763 31.0598ZM27.8988 30.8791V30.3145H28.3731C28.5989 30.3145 28.7344 30.4274 28.7344 30.5855C28.7344 30.7662 28.5763 30.8791 28.3505 30.8791H27.8988ZM28.5763 31.0598C28.8248 30.9921 29.0055 30.8565 29.0055 30.5855C29.0055 30.4726 28.9603 30.3597 28.8699 30.2693C28.7344 30.1564 28.5763 30.0886 28.3956 30.0886H27.6503V31.7148H27.8988V31.105H28.3053L28.7796 31.7148H29.0732L28.5763 31.0598ZM27.8988 30.8791V30.3145H28.3731C28.5989 30.3145 28.7344 30.4274 28.7344 30.5855C28.7344 30.7662 28.5763 30.8791 28.3505 30.8791H27.8988ZM28.5763 31.0598C28.8248 30.9921 29.0055 30.8565 29.0055 30.5855C29.0055 30.4726 28.9603 30.3597 28.8699 30.2693C28.7344 30.1564 28.5763 30.0886 28.3956 30.0886H27.6503V31.7148H27.8988V31.105H28.3053L28.7796 31.7148H29.0732L28.5763 31.0598ZM27.8988 30.8791V30.3145H28.3731C28.5989 30.3145 28.7344 30.4274 28.7344 30.5855C28.7344 30.7662 28.5763 30.8791 28.3505 30.8791H27.8988ZM25.7983 30.4274C25.6628 29.524 25.3014 29.3207 24.5787 29.0045C25.1207 28.6883 25.4595 28.214 25.4595 27.559C25.4595 26.2716 24.398 25.7522 23.2461 25.7522H20.039V32.6182H23.2461C24.6013 32.5956 26.0467 31.9858 25.7983 30.4274ZM21.507 27.0396H23.1784C24.2173 27.0396 24.2625 28.5076 23.2461 28.5076H21.507V27.0396ZM23.359 31.2857H21.4844V29.7273H23.359C24.7368 29.7273 24.6464 31.2857 23.359 31.2857ZM22.3653 21.2802H10.7337L10.3271 22.6579H13.444L14.0086 24.5551H19.1129L19.6776 22.6579H22.7944L22.3653 21.2802ZM21.3941 7.34484L17.2609 4.34094C16.6737 3.9344 16.3801 3.21166 16.877 2.53409L16.5156 2.28564L14.1667 5.53798C13.06 7.07381 13.4665 9.67116 14.9798 10.7779L18.8419 13.6011C19.6324 14.1657 19.7228 15.6338 19.1581 16.4017L19.4969 16.6501L22.162 12.9009C23.359 11.1844 23.2913 8.69998 21.3941 7.34484ZM19.4066 30.4274C19.271 29.524 18.9097 29.3207 18.1869 28.9819C18.729 28.6657 19.0678 28.1914 19.0678 27.5364C19.0678 26.2491 18.0063 25.7296 16.8544 25.7296H13.6246V32.5956H16.8318C18.1869 32.5956 19.6324 31.9858 19.4066 30.4274ZM15.0927 27.0396H16.764C17.803 27.0396 17.8482 28.5076 16.8318 28.5076H15.0927V27.0396ZM16.9673 31.2857H15.0927V29.7273H16.9673C18.3225 29.7273 18.2547 31.2857 16.9673 31.2857ZM17.5094 14.7981L14.6862 12.7428C14.3474 12.4944 14.3022 12.1556 14.5055 11.7716L14.0989 11.4554L12.5857 13.5333C11.8404 14.5723 12.0662 16.4243 13.1052 17.1696L15.9058 19.1797C16.3801 19.5185 16.4253 19.8799 16.1994 20.2413L16.6059 20.5349L18.0288 18.5699C18.8871 17.3955 18.8193 15.7241 17.5094 14.7981ZM13.0148 30.4274C12.8793 29.524 12.5179 29.3207 11.7952 28.9819C12.3373 28.6657 12.676 28.1914 12.676 27.5364C12.676 26.2491 11.6145 25.7296 10.4627 25.7296H7.23291V32.5956H10.4401C11.7952 32.5956 13.2407 31.9858 13.0148 30.4274ZM8.67839 27.0396H10.3497C11.3887 27.0396 11.4338 28.5076 10.4175 28.5076H8.67839V27.0396ZM10.553 31.2857H8.67839V29.7273H10.553C11.9307 29.7273 11.8404 31.2857 10.553 31.2857Z" fill="white"/>
<path fill-rule="evenodd" clip-rule="evenodd" d="M21.3941 7.34484L17.2609 4.34094C16.6737 3.9344 16.3801 3.21166 16.877 2.53409L16.5156 2.28564L14.1667 5.53798C13.06 7.07381 13.4665 9.67116 14.9798 10.7779L18.8419 13.6011C19.6324 14.1657 19.7228 15.6338 19.1581 16.4017L19.4969 16.6501L22.162 12.9009C23.359 11.1844 23.2913 8.69998 21.3941 7.34484ZM17.5094 14.7981L14.6862 12.7428C14.3474 12.4944 14.3022 12.1556 14.5055 11.7716L14.0989 11.4554L12.5857 13.5333C11.8404 14.5723 12.0662 16.4243 13.1052 17.1696L15.9058 19.1797C16.3801 19.5185 16.4253 19.8799 16.1994 20.2413L16.6059 20.5349L18.0288 18.5699C18.8871 17.3955 18.8193 15.7241 17.5094 14.7981ZM22.3653 21.2802H10.7337L10.3271 22.6579H13.444L14.0086 24.5551H19.1129L19.6776 22.6579H22.7944L22.3653 21.2802ZM28.5763 31.0598C28.8248 30.9921 29.0055 30.8565 29.0055 30.5855C29.0055 30.4726 28.9603 30.3597 28.8699 30.2693C28.7344 30.1564 28.5763 30.0886 28.3956 30.0886H27.6503V31.7148H27.8988V31.105H28.3053L28.7796 31.7148H29.0732L28.5763 31.0598ZM27.8988 30.8791V30.3145H28.3731C28.5989 30.3145 28.7344 30.4274 28.7344 30.5855C28.7344 30.7662 28.5763 30.8791 28.3505 30.8791H27.8988ZM28.5763 31.0598C28.8248 30.9921 29.0055 30.8565 29.0055 30.5855C29.0055 30.4726 28.9603 30.3597 28.8699 30.2693C28.7344 30.1564 28.5763 30.0886 28.3956 30.0886H27.6503V31.7148H27.8988V31.105H28.3053L28.7796 31.7148H29.0732L28.5763 31.0598ZM27.8988 30.8791V30.3145H28.3731C28.5989 30.3145 28.7344 30.4274 28.7344 30.5855C28.7344 30.7662 28.5763 30.8791 28.3505 30.8791H27.8988ZM28.5763 31.0598C28.8248 30.9921 29.0055 30.8565 29.0055 30.5855C29.0055 30.4726 28.9603 30.3597 28.8699 30.2693C28.7344 30.1564 28.5763 30.0886 28.3956 30.0886H27.6503V31.7148H27.8988V31.105H28.3053L28.7796 31.7148H29.0732L28.5763 31.0598ZM27.8988 30.8791V30.3145H28.3731C28.5989 30.3145 28.7344 30.4274 28.7344 30.5855C28.7344 30.7662 28.5763 30.8791 28.3505 30.8791H27.8988ZM28.5763 31.0598C28.8248 30.9921 29.0055 30.8565 29.0055 30.5855C29.0055 30.4726 28.9603 30.3597 28.8699 30.2693C28.7344 30.1564 28.5763 30.0886 28.3956 30.0886H27.6503V31.7148H27.8988V31.105H28.3053L28.7796 31.7148H29.0732L28.5763 31.0598ZM27.8988 30.8791V30.3145H28.3731C28.5989 30.3145 28.7344 30.4274 28.7344 30.5855C28.7344 30.7662 28.5763 30.8791 28.3505 30.8791H27.8988ZM28.5763 31.0598C28.8248 30.9921 29.0055 30.8565 29.0055 30.5855C29.0055 30.4726 28.9603 30.3597 28.8699 30.2693C28.7344 30.1564 28.5763 30.0886 28.3956 30.0886H27.6503V31.7148H27.8988V31.105H28.3053L28.7796 31.7148H29.0732L28.5763 31.0598ZM27.8988 30.8791V30.3145H28.3731C28.5989 30.3145 28.7344 30.4274 28.7344 30.5855C28.7344 30.7662 28.5763 30.8791 28.3505 30.8791H27.8988ZM28.5763 31.0598C28.8248 30.9921 29.0055 30.8565 29.0055 30.5855C29.0055 30.4726 28.9603 30.3597 28.8699 30.2693C28.7344 30.1564 28.5763 30.0886 28.3956 30.0886H27.6503V31.7148H27.8988V31.105H28.3053L28.7796 31.7148H29.0732L28.5763 31.0598ZM27.8988 30.8791V30.3145H28.3731C28.5989 30.3145 28.7344 30.4274 28.7344 30.5855C28.7344 30.7662 28.5763 30.8791 28.3505 30.8791H27.8988ZM28.5763 31.0598C28.8248 30.9921 29.0055 30.8565 29.0055 30.5855C29.0055 30.4726 28.9603 30.3597 28.8699 30.2693C28.7344 30.1564 28.5763 30.0886 28.3956 30.0886H27.6503V31.7148H27.8988V31.105H28.3053L28.7796 31.7148H29.0732L28.5763 31.0598ZM27.8988 30.8791V30.3145H28.3731C28.5989 30.3145 28.7344 30.4274 28.7344 30.5855C28.7344 30.7662 28.5763 30.8791 28.3505 30.8791H27.8988ZM28.5763 31.0598C28.8248 30.9921 29.0055 30.8565 29.0055 30.5855C29.0055 30.4726 28.9603 30.3597 28.8699 30.2693C28.7344 30.1564 28.5763 30.0886 28.3956 30.0886H27.6503V31.7148H27.8988V31.105H28.3053L28.7796 31.7148H29.0732L28.5763 31.0598ZM27.8988 30.8791V30.3145H28.3731C28.5989 30.3145 28.7344 30.4274 28.7344 30.5855C28.7344 30.7662 28.5763 30.8791 28.3505 30.8791H27.8988ZM28.5763 31.0598C28.8248 30.9921 29.0055 30.8565 29.0055 30.5855C29.0055 30.4726 28.9603 30.3597 28.8699 30.2693C28.7344 30.1564 28.5763 30.0886 28.3956 30.0886H27.6503V31.7148H27.8988V31.105H28.3053L28.7796 31.7148H29.0732L28.5763 31.0598ZM27.8988 30.8791V30.3145H28.3731C28.5989 30.3145 28.7344 30.4274 28.7344 30.5855C28.7344 30.7662 28.5763 30.8791 28.3505 30.8791H27.8988ZM28.5763 31.0598C28.8248 30.9921 29.0055 30.8565 29.0055 30.5855C29.0055 30.4726 28.9603 30.3597 28.8699 30.2693C28.7344 30.1564 28.5763 30.0886 28.3956 30.0886H27.6503V31.7148H27.8988V31.105H28.3053L28.7796 31.7148H29.0732L28.5763 31.0598ZM27.8988 30.8791V30.3145H28.3731C28.5989 30.3145 28.7344 30.4274 28.7344 30.5855C28.7344 30.7662 28.5763 30.8791 28.3505 30.8791H27.8988ZM28.5763 31.0598C28.8248 30.9921 29.0055 30.8565 29.0055 30.5855C29.0055 30.4726 28.9603 30.3597 28.8699 30.2693C28.7344 30.1564 28.5763 30.0886 28.3956 30.0886H27.6503V31.7148H27.8988V31.105H28.3053L28.7796 31.7148H29.0732L28.5763 31.0598ZM27.8988 30.8791V30.3145H28.3731C28.5989 30.3145 28.7344 30.4274 28.7344 30.5855C28.7344 30.7662 28.5763 30.8791 28.3505 30.8791H27.8988ZM28.5763 31.0598C28.8248 30.9921 29.0055 30.8565 29.0055 30.5855C29.0055 30.4726 28.9603 30.3597 28.8699 30.2693C28.7344 30.1564 28.5763 30.0886 28.3956 30.0886H27.6503V31.7148H27.8988V31.105H28.3053L28.7796 31.7148H29.0732L28.5763 31.0598ZM27.8988 30.8791V30.3145H28.3731C28.5989 30.3145 28.7344 30.4274 28.7344 30.5855C28.7344 30.7662 28.5763 30.8791 28.3505 30.8791H27.8988ZM28.5763 31.0598C28.8248 30.9921 29.0055 30.8565 29.0055 30.5855C29.0055 30.4726 28.9603 30.3597 28.8699 30.2693C28.7344 30.1564 28.5763 30.0886 28.3956 30.0886H27.6503V31.7148H27.8988V31.105H28.3053L28.7796 31.7148H29.0732L28.5763 31.0598ZM27.8988 30.8791V30.3145H28.3731C28.5989 30.3145 28.7344 30.4274 28.7344 30.5855C28.7344 30.7662 28.5763 30.8791 28.3505 30.8791H27.8988ZM28.5763 31.0598C28.8248 30.9921 29.0055 30.8565 29.0055 30.5855C29.0055 30.4726 28.9603 30.3597 28.8699 30.2693C28.7344 30.1564 28.5763 30.0886 28.3956 30.0886H27.6503V31.7148H27.8988V31.105H28.3053L28.7796 31.7148H29.0732L28.5763 31.0598ZM27.8988 30.8791V30.3145H28.3731C28.5989 30.3145 28.7344 30.4274 28.7344 30.5855C28.7344 30.7662 28.5763 30.8791 28.3505 30.8791H27.8988ZM28.5763 31.0598C28.8248 30.9921 29.0055 30.8565 29.0055 30.5855C29.0055 30.4726 28.9603 30.3597 28.8699 30.2693C28.7344 30.1564 28.5763 30.0886 28.3956 30.0886H27.6503V31.7148H27.8988V31.105H28.3053L28.7796 31.7148H29.0732L28.5763 31.0598ZM27.8988 30.8791V30.3145H28.3731C28.5989 30.3145 28.7344 30.4274 28.7344 30.5855C28.7344 30.7662 28.5763 30.8791 28.3505 30.8791H27.8988ZM28.5763 31.0598C28.8248 30.9921 29.0055 30.8565 29.0055 30.5855C29.0055 30.4726 28.9603 30.3597 28.8699 30.2693C28.7344 30.1564 28.5763 30.0886 28.3956 30.0886H27.6503V31.7148H27.8988V31.105H28.3053L28.7796 31.7148H29.0732L28.5763 31.0598ZM27.8988 30.8791V30.3145H28.3731C28.5989 30.3145 28.7344 30.4274 28.7344 30.5855C28.7344 30.7662 28.5763 30.8791 28.3505 30.8791H27.8988ZM28.5763 31.0598C28.8248 30.9921 29.0055 30.8565 29.0055 30.5855C29.0055 30.4726 28.9603 30.3597 28.8699 30.2693C28.7344 30.1564 28.5763 30.0886 28.3956 30.0886H27.6503V31.7148H27.8988V31.105H28.3053L28.7796 31.7148H29.0732L28.5763 31.0598ZM27.8988 30.8791V30.3145H28.3731C28.5989 30.3145 28.7344 30.4274 28.7344 30.5855C28.7344 30.7662 28.5763 30.8791 28.3505 30.8791H27.8988ZM28.5763 31.0598C28.8248 30.9921 29.0055 30.8565 29.0055 30.5855C29.0055 30.4726 28.9603 30.3597 28.8699 30.2693C28.7344 30.1564 28.5763 30.0886 28.3956 30.0886H27.6503V31.7148H27.8988V31.105H28.3053L28.7796 31.7148H29.0732L28.5763 31.0598ZM27.8988 30.8791V30.3145H28.3731C28.5989 30.3145 28.7344 30.4274 28.7344 30.5855C28.7344 30.7662 28.5763 30.8791 28.3505 30.8791H27.8988ZM28.5763 31.0598C28.8248 30.9921 29.0055 30.8565 29.0055 30.5855C29.0055 30.4726 28.9603 30.3597 28.8699 30.2693C28.7344 30.1564 28.5763 30.0886 28.3956 30.0886H27.6503V31.7148H27.8988V31.105H28.3053L28.7796 31.7148H29.0732L28.5763 31.0598ZM27.8988 30.8791V30.3145H28.3731C28.5989 30.3145 28.7344 30.4274 28.7344 30.5855C28.7344 30.7662 28.5763 30.8791 28.3505 30.8791H27.8988ZM28.5763 31.0598C28.8248 30.9921 29.0055 30.8565 29.0055 30.5855C29.0055 30.4726 28.9603 30.3597 28.8699 30.2693C28.7344 30.1564 28.5763 30.0886 28.3956 30.0886H27.6503V31.7148H27.8988V31.105H28.3053L28.7796 31.7148H29.0732L28.5763 31.0598ZM27.8988 30.8791V30.3145H28.3731C28.5989 30.3145 28.7344 30.4274 28.7344 30.5855C28.7344 30.7662 28.5763 30.8791 28.3505 30.8791H27.8988ZM28.5763 31.0598C28.8248 30.9921 29.0055 30.8565 29.0055 30.5855C29.0055 30.4726 28.9603 30.3597 28.8699 30.2693C28.7344 30.1564 28.5763 30.0886 28.3956 30.0886H27.6503V31.7148H27.8988V31.105H28.3053L28.7796 31.7148H29.0732L28.5763 31.0598ZM27.8988 30.8791V30.3145H28.3731C28.5989 30.3145 28.7344 30.4274 28.7344 30.5855C28.7344 30.7662 28.5763 30.8791 28.3505 30.8791H27.8988ZM28.5763 31.0598C28.8248 30.9921 29.0055 30.8565 29.0055 30.5855C29.0055 30.4726 28.9603 30.3597 28.8699 30.2693C28.7344 30.1564 28.5763 30.0886 28.3956 30.0886H27.6503V31.7148H27.8988V31.105H28.3053L28.7796 31.7148H29.0732L28.5763 31.0598ZM27.8988 30.8791V30.3145H28.3731C28.5989 30.3145 28.7344 30.4274 28.7344 30.5855C28.7344 30.7662 28.5763 30.8791 28.3505 30.8791H27.8988ZM28.5763 31.0598C28.8248 30.9921 29.0055 30.8565 29.0055 30.5855C29.0055 30.4726 28.9603 30.3597 28.8699 30.2693C28.7344 30.1564 28.5763 30.0886 28.3956 30.0886H27.6503V31.7148H27.8988V31.105H28.3053L28.7796 31.7148H29.0732L28.5763 31.0598ZM27.8988 30.8791V30.3145H28.3731C28.5989 30.3145 28.7344 30.4274 28.7344 30.5855C28.7344 30.7662 28.5763 30.8791 28.3505 30.8791H27.8988ZM28.5763 31.0598C28.8248 30.9921 29.0055 30.8565 29.0055 30.5855C29.0055 30.4726 28.9603 30.3597 28.8699 30.2693C28.7344 30.1564 28.5763 30.0886 28.3956 30.0886H27.6503V31.7148H27.8988V31.105H28.3053L28.7796 31.7148H29.0732L28.5763 31.0598ZM27.8988 30.8791V30.3145H28.3731C28.5989 30.3145 28.7344 30.4274 28.7344 30.5855C28.7344 30.7662 28.5763 30.8791 28.3505 30.8791H27.8988ZM28.5763 31.0598C28.8248 30.9921 29.0055 30.8565 29.0055 30.5855C29.0055 30.4726 28.9603 30.3597 28.8699 30.2693C28.7344 30.1564 28.5763 30.0886 28.3956 30.0886H27.6503V31.7148H27.8988V31.105H28.3053L28.7796 31.7148H29.0732L28.5763 31.0598ZM27.8988 30.8791V30.3145H28.3731C28.5989 30.3145 28.7344 30.4274 28.7344 30.5855C28.7344 30.7662 28.5763 30.8791 28.3505 30.8791H27.8988ZM28.5763 31.0598C28.8248 30.9921 29.0055 30.8565 29.0055 30.5855C29.0055 30.4726 28.9603 30.3597 28.8699 30.2693C28.7344 30.1564 28.5763 30.0886 28.3956 30.0886H27.6503V31.7148H27.8988V31.105H28.3053L28.7796 31.7148H29.0732L28.5763 31.0598ZM27.8988 30.8791V30.3145H28.3731C28.5989 30.3145 28.7344 30.4274 28.7344 30.5855C28.7344 30.7662 28.5763 30.8791 28.3505 30.8791H27.8988ZM28.5763 31.0598C28.8248 30.9921 29.0055 30.8565 29.0055 30.5855C29.0055 30.4726 28.9603 30.3597 28.8699 30.2693C28.7344 30.1564 28.5763 30.0886 28.3956 30.0886H27.6503V31.7148H27.8988V31.105H28.3053L28.7796 31.7148H29.0732L28.5763 31.0598ZM27.8988 30.8791V30.3145H28.3731C28.5989 30.3145 28.7344 30.4274 28.7344 30.5855C28.7344 30.7662 28.5763 30.8791 28.3505 30.8791H27.8988ZM28.5763 31.0598C28.8248 30.9921 29.0055 30.8565 29.0055 30.5855C29.0055 30.4726 28.9603 30.3597 28.8699 30.2693C28.7344 30.1564 28.5763 30.0886 28.3956 30.0886H27.6503V31.7148H27.8988V31.105H28.3053L28.7796 31.7148H29.0732L28.5763 31.0598ZM27.8988 30.8791V30.3145H28.3731C28.5989 30.3145 28.7344 30.4274 28.7344 30.5855C28.7344 30.7662 28.5763 30.8791 28.3505 30.8791H27.8988ZM28.2827 29.3659C27.4245 29.3659 26.7017 30.0886 26.7017 30.9469V30.9695C26.7017 31.8277 27.4245 32.5505 28.2827 32.5505C29.141 32.5505 29.8637 31.8277 29.8637 30.9695V30.9469C29.8637 30.066 29.141 29.3659 28.2827 29.3659ZM29.7056 30.9469C29.7056 31.7374 29.0506 32.3924 28.2601 32.3924C27.4696 32.3924 26.8372 31.7374 26.8146 30.9695V30.9469C26.8146 30.1564 27.4696 29.5014 28.2601 29.5014C29.0732 29.5014 29.7056 30.1338 29.7056 30.9469ZM29.0055 30.5855C29.0055 30.45 28.9603 30.3371 28.8699 30.2693C28.7344 30.1564 28.5763 30.0886 28.3956 30.0886H27.6503V31.7148H27.8988V31.105H28.3053L28.7796 31.7148H29.0732L28.5763 31.0598C28.8248 30.9921 29.0055 30.834 29.0055 30.5855ZM27.8988 30.8791V30.3145H28.3731C28.5989 30.3145 28.7344 30.4274 28.7344 30.5855C28.7344 30.7662 28.5763 30.8791 28.3505 30.8791H27.8988ZM28.5763 31.0598C28.8248 30.9921 29.0055 30.8565 29.0055 30.5855C29.0055 30.4726 28.9603 30.3597 28.8699 30.2693C28.7344 30.1564 28.5763 30.0886 28.3956 30.0886H27.6503V31.7148H27.8988V31.105H28.3053L28.7796 31.7148H29.0732L28.5763 31.0598ZM27.8988 30.8791V30.3145H28.3731C28.5989 30.3145 28.7344 30.4274 28.7344 30.5855C28.7344 30.7662 28.5763 30.8791 28.3505 30.8791H27.8988ZM28.5763 31.0598C28.8248 30.9921 29.0055 30.8565 29.0055 30.5855C29.0055 30.4726 28.9603 30.3597 28.8699 30.2693C28.7344 30.1564 28.5763 30.0886 28.3956 30.0886H27.6503V31.7148H27.8988V31.105H28.3053L28.7796 31.7148H29.0732L28.5763 31.0598ZM27.8988 30.8791V30.3145H28.3731C28.5989 30.3145 28.7344 30.4274 28.7344 30.5855C28.7344 30.7662 28.5763 30.8791 28.3505 30.8791H27.8988ZM28.5763 31.0598C28.8248 30.9921 29.0055 30.8565 29.0055 30.5855C29.0055 30.4726 28.9603 30.3597 28.8699 30.2693C28.7344 30.1564 28.5763 30.0886 28.3956 30.0886H27.6503V31.7148H27.8988V31.105H28.3053L28.7796 31.7148H29.0732L28.5763 31.0598ZM27.8988 30.8791V30.3145H28.3731C28.5989 30.3145 28.7344 30.4274 28.7344 30.5855C28.7344 30.7662 28.5763 30.8791 28.3505 30.8791H27.8988ZM28.5763 31.0598C28.8248 30.9921 29.0055 30.8565 29.0055 30.5855C29.0055 30.4726 28.9603 30.3597 28.8699 30.2693C28.7344 30.1564 28.5763 30.0886 28.3956 30.0886H27.6503V31.7148H27.8988V31.105H28.3053L28.7796 31.7148H29.0732L28.5763 31.0598ZM27.8988 30.8791V30.3145H28.3731C28.5989 30.3145 28.7344 30.4274 28.7344 30.5855C28.7344 30.7662 28.5763 30.8791 28.3505 30.8791H27.8988ZM28.5763 31.0598C28.8248 30.9921 29.0055 30.8565 29.0055 30.5855C29.0055 30.4726 28.9603 30.3597 28.8699 30.2693C28.7344 30.1564 28.5763 30.0886 28.3956 30.0886H27.6503V31.7148H27.8988V31.105H28.3053L28.7796 31.7148H29.0732L28.5763 31.0598ZM27.8988 30.8791V30.3145H28.3731C28.5989 30.3145 28.7344 30.4274 28.7344 30.5855C28.7344 30.7662 28.5763 30.8791 28.3505 30.8791H27.8988ZM28.5763 31.0598C28.8248 30.9921 29.0055 30.8565 29.0055 30.5855C29.0055 30.4726 28.9603 30.3597 28.8699 30.2693C28.7344 30.1564 28.5763 30.0886 28.3956 30.0886H27.6503V31.7148H27.8988V31.105H28.3053L28.7796 31.7148H29.0732L28.5763 31.0598ZM27.8988 30.8791V30.3145H28.3731C28.5989 30.3145 28.7344 30.4274 28.7344 30.5855C28.7344 30.7662 28.5763 30.8791 28.3505 30.8791H27.8988ZM28.5763 31.0598C28.8248 30.9921 29.0055 30.8565 29.0055 30.5855C29.0055 30.4726 28.9603 30.3597 28.8699 30.2693C28.7344 30.1564 28.5763 30.0886 28.3956 30.0886H27.6503V31.7148H27.8988V31.105H28.3053L28.7796 31.7148H29.0732L28.5763 31.0598ZM27.8988 30.8791V30.3145H28.3731C28.5989 30.3145 28.7344 30.4274 28.7344 30.5855C28.7344 30.7662 28.5763 30.8791 28.3505 30.8791H27.8988ZM28.5763 31.0598C28.8248 30.9921 29.0055 30.8565 29.0055 30.5855C29.0055 30.4726 28.9603 30.3597 28.8699 30.2693C28.7344 30.1564 28.5763 30.0886 28.3956 30.0886H27.6503V31.7148H27.8988V31.105H28.3053L28.7796 31.7148H29.0732L28.5763 31.0598ZM27.8988 30.8791V30.3145H28.3731C28.5989 30.3145 28.7344 30.4274 28.7344 30.5855C28.7344 30.7662 28.5763 30.8791 28.3505 30.8791H27.8988ZM28.5763 31.0598C28.8248 30.9921 29.0055 30.8565 29.0055 30.5855C29.0055 30.4726 28.9603 30.3597 28.8699 30.2693C28.7344 30.1564 28.5763 30.0886 28.3956 30.0886H27.6503V31.7148H27.8988V31.105H28.3053L28.7796 31.7148H29.0732L28.5763 31.0598ZM27.8988 30.8791V30.3145H28.3731C28.5989 30.3145 28.7344 30.4274 28.7344 30.5855C28.7344 30.7662 28.5763 30.8791 28.3505 30.8791H27.8988ZM28.5763 31.0598C28.8248 30.9921 29.0055 30.8565 29.0055 30.5855C29.0055 30.4726 28.9603 30.3597 28.8699 30.2693C28.7344 30.1564 28.5763 30.0886 28.3956 30.0886H27.6503V31.7148H27.8988V31.105H28.3053L28.7796 31.7148H29.0732L28.5763 31.0598ZM27.8988 30.8791V30.3145H28.3731C28.5989 30.3145 28.7344 30.4274 28.7344 30.5855C28.7344 30.7662 28.5763 30.8791 28.3505 30.8791H27.8988ZM28.5763 31.0598C28.8248 30.9921 29.0055 30.8565 29.0055 30.5855C29.0055 30.4726 28.9603 30.3597 28.8699 30.2693C28.7344 30.1564 28.5763 30.0886 28.3956 30.0886H27.6503V31.7148H27.8988V31.105H28.3053L28.7796 31.7148H29.0732L28.5763 31.0598ZM27.8988 30.8791V30.3145H28.3731C28.5989 30.3145 28.7344 30.4274 28.7344 30.5855C28.7344 30.7662 28.5763 30.8791 28.3505 30.8791H27.8988ZM28.5763 31.0598C28.8248 30.9921 29.0055 30.8565 29.0055 30.5855C29.0055 30.4726 28.9603 30.3597 28.8699 30.2693C28.7344 30.1564 28.5763 30.0886 28.3956 30.0886H27.6503V31.7148H27.8988V31.105H28.3053L28.7796 31.7148H29.0732L28.5763 31.0598ZM27.8988 30.8791V30.3145H28.3731C28.5989 30.3145 28.7344 30.4274 28.7344 30.5855C28.7344 30.7662 28.5763 30.8791 28.3505 30.8791H27.8988ZM28.5763 31.0598C28.8248 30.9921 29.0055 30.8565 29.0055 30.5855C29.0055 30.4726 28.9603 30.3597 28.8699 30.2693C28.7344 30.1564 28.5763 30.0886 28.3956 30.0886H27.6503V31.7148H27.8988V31.105H28.3053L28.7796 31.7148H29.0732L28.5763 31.0598ZM27.8988 30.8791V30.3145H28.3731C28.5989 30.3145 28.7344 30.4274 28.7344 30.5855C28.7344 30.7662 28.5763 30.8791 28.3505 30.8791H27.8988ZM28.5763 31.0598C28.8248 30.9921 29.0055 30.8565 29.0055 30.5855C29.0055 30.4726 28.9603 30.3597 28.8699 30.2693C28.7344 30.1564 28.5763 30.0886 28.3956 30.0886H27.6503V31.7148H27.8988V31.105H28.3053L28.7796 31.7148H29.0732L28.5763 31.0598ZM27.8988 30.8791V30.3145H28.3731C28.5989 30.3145 28.7344 30.4274 28.7344 30.5855C28.7344 30.7662 28.5763 30.8791 28.3505 30.8791H27.8988ZM28.5763 31.0598C28.8248 30.9921 29.0055 30.8565 29.0055 30.5855C29.0055 30.4726 28.9603 30.3597 28.8699 30.2693C28.7344 30.1564 28.5763 30.0886 28.3956 30.0886H27.6503V31.7148H27.8988V31.105H28.3053L28.7796 31.7148H29.0732L28.5763 31.0598ZM27.8988 30.8791V30.3145H28.3731C28.5989 30.3145 28.7344 30.4274 28.7344 30.5855C28.7344 30.7662 28.5763 30.8791 28.3505 30.8791H27.8988ZM28.5763 31.0598C28.8248 30.9921 29.0055 30.8565 29.0055 30.5855C29.0055 30.4726 28.9603 30.3597 28.8699 30.2693C28.7344 30.1564 28.5763 30.0886 28.3956 30.0886H27.6503V31.7148H27.8988V31.105H28.3053L28.7796 31.7148H29.0732L28.5763 31.0598ZM27.8988 30.8791V30.3145H28.3731C28.5989 30.3145 28.7344 30.4274 28.7344 30.5855C28.7344 30.7662 28.5763 30.8791 28.3505 30.8791H27.8988ZM28.5763 31.0598C28.8248 30.9921 29.0055 30.8565 29.0055 30.5855C29.0055 30.4726 28.9603 30.3597 28.8699 30.2693C28.7344 30.1564 28.5763 30.0886 28.3956 30.0886H27.6503V31.7148H27.8988V31.105H28.3053L28.7796 31.7148H29.0732L28.5763 31.0598ZM27.8988 30.8791V30.3145H28.3731C28.5989 30.3145 28.7344 30.4274 28.7344 30.5855C28.7344 30.7662 28.5763 30.8791 28.3505 30.8791H27.8988ZM28.5763 31.0598C28.8248 30.9921 29.0055 30.8565 29.0055 30.5855C29.0055 30.4726 28.9603 30.3597 28.8699 30.2693C28.7344 30.1564 28.5763 30.0886 28.3956 30.0886H27.6503V31.7148H27.8988V31.105H28.3053L28.7796 31.7148H29.0732L28.5763 31.0598ZM27.8988 30.8791V30.3145H28.3731C28.5989 30.3145 28.7344 30.4274 28.7344 30.5855C28.7344 30.7662 28.5763 30.8791 28.3505 30.8791H27.8988ZM28.5763 31.0598C28.8248 30.9921 29.0055 30.8565 29.0055 30.5855C29.0055 30.4726 28.9603 30.3597 28.8699 30.2693C28.7344 30.1564 28.5763 30.0886 28.3956 30.0886H27.6503V31.7148H27.8988V31.105H28.3053L28.7796 31.7148H29.0732L28.5763 31.0598ZM27.8988 30.8791V30.3145H28.3731C28.5989 30.3145 28.7344 30.4274 28.7344 30.5855C28.7344 30.7662 28.5763 30.8791 28.3505 30.8791H27.8988ZM28.5763 31.0598C28.8248 30.9921 29.0055 30.8565 29.0055 30.5855C29.0055 30.4726 28.9603 30.3597 28.8699 30.2693C28.7344 30.1564 28.5763 30.0886 28.3956 30.0886H27.6503V31.7148H27.8988V31.105H28.3053L28.7796 31.7148H29.0732L28.5763 31.0598ZM27.8988 30.8791V30.3145H28.3731C28.5989 30.3145 28.7344 30.4274 28.7344 30.5855C28.7344 30.7662 28.5763 30.8791 28.3505 30.8791H27.8988ZM28.5763 31.0598C28.8248 30.9921 29.0055 30.8565 29.0055 30.5855C29.0055 30.4726 28.9603 30.3597 28.8699 30.2693C28.7344 30.1564 28.5763 30.0886 28.3956 30.0886H27.6503V31.7148H27.8988V31.105H28.3053L28.7796 31.7148H29.0732L28.5763 31.0598ZM27.8988 30.8791V30.3145H28.3731C28.5989 30.3145 28.7344 30.4274 28.7344 30.5855C28.7344 30.7662 28.5763 30.8791 28.3505 30.8791H27.8988ZM28.5763 31.0598C28.8248 30.9921 29.0055 30.8565 29.0055 30.5855C29.0055 30.4726 28.9603 30.3597 28.8699 30.2693C28.7344 30.1564 28.5763 30.0886 28.3956 30.0886H27.6503V31.7148H27.8988V31.105H28.3053L28.7796 31.7148H29.0732L28.5763 31.0598ZM27.8988 30.8791V30.3145H28.3731C28.5989 30.3145 28.7344 30.4274 28.7344 30.5855C28.7344 30.7662 28.5763 30.8791 28.3505 30.8791H27.8988ZM28.5763 31.0598C28.8248 30.9921 29.0055 30.8565 29.0055 30.5855C29.0055 30.4726 28.9603 30.3597 28.8699 30.2693C28.7344 30.1564 28.5763 30.0886 28.3956 30.0886H27.6503V31.7148H27.8988V31.105H28.3053L28.7796 31.7148H29.0732L28.5763 31.0598ZM27.8988 30.8791V30.3145H28.3731C28.5989 30.3145 28.7344 30.4274 28.7344 30.5855C28.7344 30.7662 28.5763 30.8791 28.3505 30.8791H27.8988ZM28.5763 31.0598C28.8248 30.9921 29.0055 30.8565 29.0055 30.5855C29.0055 30.4726 28.9603 30.3597 28.8699 30.2693C28.7344 30.1564 28.5763 30.0886 28.3956 30.0886H27.6503V31.7148H27.8988V31.105H28.3053L28.7796 31.7148H29.0732L28.5763 31.0598ZM27.8988 30.8791V30.3145H28.3731C28.5989 30.3145 28.7344 30.4274 28.7344 30.5855C28.7344 30.7662 28.5763 30.8791 28.3505 30.8791H27.8988ZM28.5763 31.0598C28.8248 30.9921 29.0055 30.8565 29.0055 30.5855C29.0055 30.4726 28.9603 30.3597 28.8699 30.2693C28.7344 30.1564 28.5763 30.0886 28.3956 30.0886H27.6503V31.7148H27.8988V31.105H28.3053L28.7796 31.7148H29.0732L28.5763 31.0598ZM27.8988 30.8791V30.3145H28.3731C28.5989 30.3145 28.7344 30.4274 28.7344 30.5855C28.7344 30.7662 28.5763 30.8791 28.3505 30.8791H27.8988ZM28.5763 31.0598C28.8248 30.9921 29.0055 30.8565 29.0055 30.5855C29.0055 30.4726 28.9603 30.3597 28.8699 30.2693C28.7344 30.1564 28.5763 30.0886 28.3956 30.0886H27.6503V31.7148H27.8988V31.105H28.3053L28.7796 31.7148H29.0732L28.5763 31.0598ZM27.8988 30.8791V30.3145H28.3731C28.5989 30.3145 28.7344 30.4274 28.7344 30.5855C28.7344 30.7662 28.5763 30.8791 28.3505 30.8791H27.8988ZM25.7983 30.4274C25.6628 29.524 25.3014 29.3207 24.5787 29.0045C25.1207 28.6883 25.4595 28.214 25.4595 27.559C25.4595 26.2716 24.398 25.7522 23.2461 25.7522H20.039V32.6182H23.2461C24.6013 32.5956 26.0467 31.9858 25.7983 30.4274ZM21.507 27.0396H23.1784C24.2173 27.0396 24.2625 28.5076 23.2461 28.5076H21.507V27.0396ZM23.359 31.2857H21.4844V29.7273H23.359C24.7368 29.7273 24.6464 31.2857 23.359 31.2857ZM19.4066 30.4274C19.271 29.524 18.9097 29.3207 18.1869 28.9819C18.729 28.6657 19.0678 28.1914 19.0678 27.5364C19.0678 26.2491 18.0063 25.7296 16.8544 25.7296H13.6246V32.5956H16.8318C18.1869 32.5956 19.6324 31.9858 19.4066 30.4274ZM15.0927 27.0396H16.764C17.803 27.0396 17.8482 28.5076 16.8318 28.5076H15.0927V27.0396ZM16.9673 31.2857H15.0927V29.7273H16.9673C18.3225 29.7273 18.2547 31.2857 16.9673 31.2857ZM13.0148 30.4274C12.8793 29.524 12.5179 29.3207 11.7952 28.9819C12.3373 28.6657 12.676 28.1914 12.676 27.5364C12.676 26.2491 11.6145 25.7296 10.4627 25.7296H7.23291V32.5956H10.4401C11.7952 32.5956 13.2407 31.9858 13.0148 30.4274ZM8.67839 27.0396H10.3497C11.3887 27.0396 11.4338 28.5076 10.4175 28.5076H8.67839V27.0396ZM10.553 31.2857H8.67839V29.7273H10.553C11.9307 29.7273 11.8404 31.2857 10.553 31.2857Z" fill="black"/>
</svg>
