<svg width="16" height="16" viewBox="0 0 16 16" fill="none" xmlns="http://www.w3.org/2000/svg">
<path d="M2.3583 7.26869H4.86487C5.06224 7.26869 5.22317 7.43448 5.22317 7.64133V13.6274C5.22317 13.8326 5.06375 14 4.86487 14H2.3583C2.16093 14 2 13.8342 2 13.6274V7.63975C2.00152 7.43448 2.16093 7.26869 2.3583 7.26869ZM6.09917 12.5931V8.30451C6.10069 7.24816 6.3846 6.21391 6.92053 5.31703C7.24694 4.77385 7.97872 3.90382 8.38864 3.4538C8.47973 3.35274 8.8107 3.05589 8.8107 2.89325C8.8107 2.68482 8.83348 2.3485 8.84107 1.72163C8.84562 1.32372 9.15686 0.996865 9.53944 1.00002H9.55615C10.2257 1.01265 10.4397 1.65689 10.4397 1.65689C10.4397 1.65689 11.0121 2.83167 10.4777 4.26857C10.0268 5.48283 9.93418 5.58073 9.93418 5.58073C9.93418 5.58073 9.78843 5.80021 10.25 5.79073C10.25 5.79073 13.0678 5.7781 13.1649 5.7781C13.3729 5.7781 14.0364 5.97548 13.9984 6.85499C13.9711 7.50554 13.5824 7.73291 13.3836 7.80713C13.3577 7.8166 13.3441 7.8466 13.3547 7.87345C13.3593 7.8845 13.3669 7.89397 13.3775 7.90029C13.5809 8.02345 13.9969 8.33452 13.9878 8.81138C13.9757 9.38929 13.7525 9.60246 13.2879 9.7351C13.2621 9.74141 13.2454 9.76984 13.253 9.79668C13.256 9.81089 13.2651 9.82194 13.2758 9.82826C13.4519 9.93247 13.754 10.1867 13.7358 10.7015C13.7176 11.2257 13.3532 11.4104 13.1543 11.4736C13.1285 11.4815 13.1133 11.5099 13.1209 11.5367C13.1239 11.5478 13.1315 11.5589 13.1406 11.5652C13.2667 11.6552 13.4534 11.8589 13.4443 12.2773C13.4397 12.4984 13.3684 12.6594 13.2788 12.7747C13.1376 12.9563 12.916 13.051 12.6913 13.0526L6.43925 13.0652C6.43774 13.0636 6.09917 13.0652 6.09917 12.5931Z" fill="white"/>
</svg>
