<svg width="138" height="19" viewBox="0 0 138 19" fill="none" xmlns="http://www.w3.org/2000/svg">
<path d="M26.9565 15.9672L22.5283 4.68335H23.7381L27.4977 14.6715L31.2885 4.68335H32.4983L28.0753 15.962L26.9565 15.9672Z" fill="white"/>
<path d="M34.8634 14.8068C34.029 13.8826 33.5892 12.6687 33.6379 11.4245C33.6379 10.056 34.0438 8.9554 34.8556 8.12284C35.2564 7.71065 35.7388 7.3865 36.2718 7.17104C36.8049 6.95557 37.377 6.85352 37.9517 6.87138C38.7 6.86078 39.4351 7.06875 40.0669 7.46979C40.6547 7.83633 41.1251 8.36362 41.4224 8.98922V7.0431H42.5672V15.9672H41.4224V14.0054C41.1233 14.6326 40.6535 15.1628 40.0669 15.5353C39.4328 15.9395 38.6931 16.1468 37.9413 16.1311C37.3633 16.1439 36.7893 16.0322 36.2583 15.8037C35.7272 15.5752 35.2515 15.2352 34.8634 14.8068ZM40.4624 14.1459C40.7912 13.7921 41.0463 13.3764 41.2129 12.923C41.3795 12.4696 41.4542 11.9877 41.4328 11.5051C41.4539 11.023 41.379 10.5415 41.2124 10.0887C41.0458 9.63576 40.7908 9.22048 40.4624 8.86694C40.1638 8.54514 39.8013 8.28932 39.398 8.11592C38.9948 7.94252 38.5597 7.85536 38.1208 7.86006C37.6852 7.85208 37.2526 7.93363 36.8498 8.09967C36.447 8.26571 36.0826 8.51269 35.7792 8.82531C35.134 9.46708 34.8122 10.3343 34.8139 11.4271C34.773 12.4136 35.1227 13.3765 35.787 14.1069C36.08 14.438 36.4407 14.7023 36.8447 14.8818C37.2487 15.0614 37.6865 15.152 38.1286 15.1476C38.5641 15.1506 38.9955 15.0631 39.3954 14.8907C39.7954 14.7182 40.1551 14.4646 40.452 14.1459H40.4624Z" fill="white"/>
<path d="M45.64 14.8562C44.8439 14.0045 44.4458 12.8875 44.4458 11.5051C44.4458 10.1227 44.8439 9.00564 45.64 8.15399C46.0372 7.73255 46.5198 7.4008 47.0555 7.18094C47.5913 6.96108 48.1678 6.85818 48.7465 6.87913C50.8383 6.87913 52.1679 7.81663 52.735 9.69164H51.5148C51.3547 9.12657 51.0058 8.63344 50.5261 8.29449C49.9989 7.94881 49.3764 7.77769 48.7465 7.80536C48.3235 7.79087 47.9024 7.86906 47.5127 8.03445C47.123 8.19984 46.7743 8.44843 46.4908 8.76281C45.9132 9.40111 45.6244 10.3161 45.6244 11.5077C45.6244 12.6993 45.9132 13.6177 46.4908 14.2629C46.7732 14.579 47.1217 14.829 47.5115 14.9954C47.9013 15.1617 48.323 15.2403 48.7465 15.2256C49.3746 15.2495 49.9943 15.0757 50.5183 14.7287C51.0028 14.3884 51.3548 13.8911 51.5148 13.3211H52.7428C52.487 14.1307 51.9906 14.8431 51.3197 15.3635C50.459 15.941 49.4263 16.2056 48.394 16.1133C47.3617 16.021 46.3923 15.5772 45.6478 14.8562H45.64Z" fill="white"/>
<path d="M55.4801 14.8067C54.6457 13.8825 54.2059 12.6686 54.2546 11.4244C54.2546 10.0559 54.6605 8.95537 55.4723 8.1228C55.8732 7.71075 56.3556 7.38668 56.8886 7.17122C57.4216 6.95577 57.9937 6.85364 58.5684 6.87135C59.3194 6.85638 60.0584 7.06169 60.694 7.46195C61.2831 7.82765 61.7546 8.35511 62.0521 8.98139V7.04307H63.1943V15.9671H62.0521V14.0054C61.7528 14.6333 61.282 15.1636 60.694 15.5352C60.0599 15.9395 59.3202 16.1468 58.5684 16.1311C57.9887 16.1453 57.4127 16.0344 56.8797 15.8059C56.3468 15.5773 55.8694 15.2366 55.4801 14.8067ZM61.0791 14.1459C61.4083 13.7923 61.6639 13.3767 61.831 12.9233C61.998 12.4699 62.0732 11.9878 62.0521 11.5051C62.0729 11.0228 61.9975 10.5412 61.8305 10.0883C61.6634 9.63542 61.408 9.22023 61.0791 8.86691C60.7805 8.5451 60.418 8.28928 60.0147 8.11588C59.6115 7.94248 59.1764 7.85533 58.7375 7.86002C58.3019 7.85204 57.8693 7.9336 57.4665 8.09963C57.0637 8.26567 56.6993 8.51265 56.3959 8.82528C55.7541 9.46705 55.4324 10.3343 55.4306 11.427C55.3909 12.4134 55.7403 13.3759 56.4037 14.1069C56.6969 14.4377 57.0576 14.7018 57.4616 14.8813C57.8655 15.0608 58.3033 15.1516 58.7453 15.1476C59.1825 15.152 59.6159 15.0652 60.0178 14.8927C60.4196 14.7203 60.7811 14.4659 61.0791 14.1459Z" fill="white"/>
<path d="M69.6174 7.94332H67.151V13.8597C67.1162 14.1944 67.2091 14.5299 67.4111 14.799C67.6755 15.0044 68.01 15.0978 68.3426 15.0592H69.6174V15.9568H68.098C66.7104 15.9568 66.0166 15.2543 66.0166 13.8493V7.94332H64.7729V7.0431H66.0166V4.80298H67.1614V7.0431H69.6278L69.6174 7.94332Z" fill="white"/>
<path d="M72.6098 4.51926C72.6123 4.62937 72.5926 4.73885 72.5519 4.8412C72.5112 4.94354 72.4504 5.03668 72.373 5.11507C72.2977 5.19488 72.2064 5.25791 72.1051 5.30005C72.0038 5.34219 71.8947 5.36249 71.785 5.35964C71.6739 5.36203 71.5634 5.34156 71.4604 5.29949C71.3575 5.25742 71.2643 5.19465 71.1866 5.11507C71.0298 4.9559 70.9419 4.74141 70.9419 4.51796C70.9419 4.29451 71.0298 4.08003 71.1866 3.92086C71.2643 3.84128 71.3575 3.77851 71.4604 3.73643C71.5634 3.69436 71.6739 3.67389 71.785 3.67629C71.8947 3.67343 72.0038 3.69374 72.1051 3.73588C72.2064 3.77802 72.2977 3.84105 72.373 3.92086C72.4505 3.99973 72.5113 4.09332 72.552 4.1961C72.5927 4.29888 72.6123 4.40876 72.6098 4.51926ZM71.1866 15.967V7.04298H72.3288V15.967H71.1866Z" fill="white"/>
<path d="M78.5346 16.1309C77.9535 16.1524 77.3745 16.0498 76.8361 15.83C76.2978 15.6102 75.8124 15.2781 75.4125 14.856C74.6111 14.0044 74.2104 12.89 74.2104 11.5128C74.2104 10.1364 74.6371 9.01765 75.4879 8.16427C76.3441 7.33978 77.4865 6.87915 78.6751 6.87915C79.8637 6.87915 81.0061 7.33978 81.8623 8.16427C82.7104 9.01765 83.1371 10.1312 83.1371 11.4971C83.1584 12.1154 83.0501 12.7312 82.8194 13.3052C82.5886 13.8791 82.2405 14.3985 81.7972 14.83C81.3674 15.2531 80.8574 15.5862 80.2971 15.8096C79.7369 16.033 79.1376 16.1422 78.5346 16.1309ZM78.5346 15.2151C78.9818 15.2201 79.4255 15.1343 79.8387 14.963C80.2519 14.7918 80.626 14.5385 80.9386 14.2186C81.6116 13.556 81.949 12.6489 81.9507 11.4971C81.9525 10.3454 81.6307 9.44088 80.9855 8.7835C80.6848 8.46563 80.3215 8.21363 79.9184 8.04345C79.5153 7.87326 79.0813 7.7886 78.6439 7.79482C78.2097 7.78486 77.7783 7.86713 77.3782 8.03621C76.9782 8.2053 76.6185 8.45734 76.3231 8.77569C75.7021 9.4296 75.3916 10.3394 75.3916 11.5049C75.3916 12.6705 75.6857 13.5803 76.2737 14.2342C76.5549 14.5522 76.9023 14.8048 77.2915 14.9743C77.6808 15.1437 78.1024 15.2259 78.5268 15.2151H78.5346Z" fill="white"/>
<path d="M86.1599 7.04312V8.49751C86.7583 7.42038 87.7444 6.88094 89.1181 6.87921C89.5763 6.86668 90.0324 6.94636 90.4593 7.11352C90.8861 7.28067 91.275 7.5319 91.6028 7.85227C92.2654 8.50098 92.5976 9.43588 92.5993 10.657V15.9672H91.4727V10.8677C91.4727 9.88685 91.2334 9.14275 90.7598 8.6302C90.2331 8.13556 89.5376 7.86023 88.815 7.86023C88.0924 7.86023 87.397 8.13556 86.8702 8.6302C86.3967 9.15055 86.1599 9.88685 86.1599 10.8677V15.9672H85.0151V7.04312H86.1599Z" fill="white"/>
<path d="M98.1409 15.9671L93.978 4.55835H96.4133L99.5354 13.6645L102.658 4.55835H105.111L100.92 15.9671H98.1409Z" fill="white"/>
<path d="M106.558 15.9671V4.55835H108.863V15.9671H106.558Z" fill="white"/>
<path d="M118.768 10.2484C118.423 10.6424 117.981 10.9378 117.485 11.1044C116.854 11.3292 116.188 11.4377 115.518 11.4244H113.619V15.9671H111.313V4.55835H115.518C116.838 4.55835 117.854 4.88791 118.567 5.54702C118.904 5.837 119.174 6.19645 119.358 6.60066C119.543 7.00487 119.638 7.44425 119.637 7.88862C119.642 8.75446 119.333 9.5929 118.768 10.2484ZM113.619 9.65782H115.518C115.757 9.67412 115.997 9.64298 116.225 9.56618C116.452 9.48938 116.662 9.36845 116.842 9.21031C116.998 9.04935 117.118 8.85828 117.197 8.64887C117.276 8.43946 117.311 8.21615 117.3 7.99269C117.312 7.76733 117.277 7.54198 117.198 7.33068C117.119 7.11939 116.997 6.9267 116.84 6.76465C116.475 6.44874 115.999 6.2906 115.518 6.32495H113.619V9.65782Z" fill="white"/>
<path d="M118.932 15.8447C118.894 15.8843 118.848 15.9155 118.797 15.9366C118.747 15.9576 118.692 15.968 118.638 15.967C118.583 15.9683 118.528 15.9581 118.478 15.937C118.427 15.9159 118.381 15.8845 118.344 15.8447C118.304 15.8068 118.272 15.7612 118.251 15.7106C118.229 15.6601 118.218 15.6057 118.219 15.5507C118.221 15.4398 118.266 15.3341 118.345 15.2559C118.423 15.1777 118.529 15.1332 118.64 15.1318C118.695 15.1314 118.75 15.1422 118.8 15.1637C118.851 15.1852 118.896 15.2169 118.934 15.2567C118.974 15.2944 119.006 15.3399 119.028 15.3906C119.049 15.4412 119.06 15.4957 119.059 15.5507C119.059 15.6059 119.048 15.6604 119.026 15.7109C119.004 15.7615 118.972 15.807 118.932 15.8447Z" fill="white"/>
<path d="M120.532 15.387C120.102 14.9087 119.878 14.2807 119.907 13.6386C119.878 12.9964 120.102 12.3684 120.532 11.8902C120.739 11.6698 120.99 11.4963 121.27 11.3814C121.55 11.2665 121.851 11.2129 122.153 11.2241C123.245 11.2241 123.939 11.7133 124.234 12.6915H123.584C123.499 12.3961 123.315 12.1389 123.063 11.963C122.79 11.7809 122.466 11.6899 122.137 11.7028C121.92 11.6986 121.705 11.7407 121.506 11.8264C121.307 11.9121 121.128 12.0394 120.982 12.1998C120.657 12.6041 120.496 13.1159 120.532 13.6334C120.497 14.1523 120.657 14.6656 120.982 15.0721C121.129 15.2375 121.311 15.3684 121.515 15.4557C121.719 15.5429 121.939 15.5843 122.16 15.5769C122.489 15.5898 122.813 15.4988 123.087 15.3167C123.339 15.1409 123.522 14.8836 123.607 14.5882H124.247C124.114 15.0107 123.855 15.3827 123.506 15.6549C123.057 15.9571 122.518 16.0962 121.979 16.0488C121.44 16.0015 120.934 15.7706 120.545 15.3948L120.532 15.387Z" fill="white"/>
<path d="M127.286 16.0529C126.984 16.0626 126.684 16.0083 126.405 15.8935C126.125 15.7787 125.873 15.606 125.665 15.3869C125.236 14.9106 125.011 14.2845 125.038 13.6437C125.025 13.3219 125.077 13.0007 125.191 12.6997C125.306 12.3986 125.48 12.1241 125.705 11.8927C126.152 11.4635 126.748 11.2239 127.368 11.2239C127.988 11.2239 128.585 11.4635 129.032 11.8927C129.255 12.1225 129.43 12.3953 129.544 12.6945C129.659 12.9937 129.711 13.3131 129.698 13.6333C129.71 13.957 129.654 14.2796 129.533 14.5803C129.413 14.881 129.231 15.1531 128.998 15.379C128.773 15.6004 128.505 15.7741 128.211 15.8899C127.917 16.0057 127.602 16.0611 127.286 16.0529ZM127.286 15.5768C127.52 15.5794 127.751 15.5346 127.967 15.4452C128.182 15.3557 128.377 15.2235 128.54 15.0564C128.72 14.8681 128.859 14.6448 128.949 14.4004C129.038 14.1559 129.076 13.8957 129.061 13.6359C129.075 13.3799 129.038 13.1237 128.952 12.8821C128.866 12.6405 128.733 12.4183 128.561 12.2283C128.404 12.0611 128.213 11.9285 128.002 11.8389C127.791 11.7493 127.563 11.7047 127.333 11.7079C127.106 11.7038 126.88 11.7481 126.671 11.8378C126.462 11.9275 126.274 12.0606 126.121 12.2283C125.778 12.6213 125.603 13.1334 125.634 13.6541C125.603 14.1703 125.767 14.6795 126.095 15.0798C126.244 15.2441 126.428 15.3737 126.633 15.4596C126.838 15.5454 127.059 15.5854 127.281 15.5768H127.286Z" fill="white"/>
<path d="M131.264 11.3098V12.0695C131.413 11.7954 131.639 11.5701 131.913 11.4202C132.186 11.2703 132.498 11.2022 132.809 11.2239C133.158 11.2172 133.502 11.3072 133.803 11.4841C134.101 11.6651 134.331 11.9395 134.456 12.2646C134.602 11.9417 134.841 11.6699 135.143 11.4841C135.458 11.3009 135.819 11.2107 136.184 11.2239C136.424 11.2187 136.664 11.2621 136.887 11.3515C137.111 11.441 137.314 11.5745 137.485 11.7443C137.667 11.94 137.807 12.171 137.896 12.4229C137.986 12.6748 138.023 12.9423 138.005 13.2091V15.967H137.399V13.3054C137.429 12.8831 137.297 12.4652 137.029 12.1372C136.754 11.8796 136.391 11.7364 136.013 11.7364C135.636 11.7364 135.273 11.8796 134.997 12.1372C134.73 12.4652 134.598 12.8831 134.628 13.3054V15.967H134.037V13.3054C134.068 12.8831 133.935 12.4652 133.668 12.1372C133.392 11.8796 133.029 11.7364 132.652 11.7364C132.275 11.7364 131.911 11.8796 131.636 12.1372C131.368 12.4649 131.234 12.8828 131.264 13.3054V15.967H130.668V11.3098H131.264Z" fill="white"/>
<path d="M17.9108 0L15.9985 3.10131H19.4511L21.3452 0H17.9108Z" fill="white"/>
<path d="M11.2134 10.8677L14.9313 4.83154H18.3839L12.9488 13.6567L11.2134 10.8677Z" fill="white"/>
<path d="M11.9157 15.3504L4.13123 2.94H13.0345L15.1966 0H1.46962C1.20685 6.80929e-05 0.948894 0.0705722 0.722618 0.204173C0.496341 0.337773 0.310013 0.529585 0.183031 0.759641C0.0560489 0.989696 -0.00694497 1.24958 0.000607404 1.51225C0.00815978 1.77491 0.0859822 2.03075 0.225973 2.25313L10.1621 18.189L11.9157 15.3504Z" fill="white"/>
<path d="M15.2439 0L9.87904 8.70032L8.07861 5.81236L11.8668 0H15.2439Z" fill="white"/>
</svg>
